<?xml version="1.0" encoding="UTF-8"?>
<!DOCTYPE svg PUBLIC "-//W3C//DTD SVG 1.1//EN" "http://www.w3.org/Graphics/SVG/1.1/DTD/svg11.dtd">
<svg xmlns="http://www.w3.org/2000/svg" xml:space="preserve" width="100%" height="100%" version="1.1" style="shape-rendering:geometricPrecision; text-rendering:geometricPrecision; image-rendering:optimizeQuality; fill-rule:evenodd; clip-rule:evenodd"
viewBox="0 0 17991.66 21374.13"
 xmlns:xlink="http://www.w3.org/1999/xlink">
 <defs>
  <style type="text/css">
   <![CDATA[
    .fil1 {fill:#FEFEFE}
    .fil0 {fill:#419ED8}
   ]]>
  </style>
 </defs>
 <g id="Layer_x0020_1">
  <metadata id="CorelCorpID_0Corel-Layer"/>
  <g id="_2205480327904">
   <path class="fil0" d="M5362.22 10759.72c0,647.38 -90.94,1357.44 341.21,1704.9 440.09,353.83 1336.09,-71.92 1967.33,854.89 348.58,511.8 231.46,717.01 231.46,1109.09 0,537.16 -85.76,1357.35 153.99,1680.46 127.09,171.3 289.2,237.19 482.43,259.82l704.13 0c270.9,0 502.35,-205.48 587.56,-400.23 75.32,-172.17 55.15,-1543.86 83.71,-1927.11 46,-617.21 552.57,-1172.74 1156.78,-1347.94 424.19,-123.01 1417.51,190.74 1417.51,-1122.5 0,-1135.53 211.67,-917.22 -846.67,-917.22 -1767.98,0 -650.54,1323.99 -1667.98,2177.3 -961.89,806.72 -2254.03,317.92 -2559.59,-771.95 -145.59,-519.28 182.08,-1405.35 -1205.2,-1405.35 -498.33,0 -846.67,-75.82 -846.67,105.84z"/>
   <path class="fil0" d="M5362.22 5997.22c0,1805.21 1026.73,811.23 2006.48,1591.85 865.75,689.8 366.15,1385.63 758.8,1922.31 242.9,332.01 1783.76,568.63 1786.83,-620.1 1.33,-513.06 136.25,-935.66 512.03,-1251.87 604.22,-508.43 821.05,-333.48 1307.91,-420.69 916.34,-164.15 754.06,-1043.34 754.06,-1962.33 -764.54,0 -1585.62,-140.37 -1871.77,421.28 -169.84,333.37 -78.08,614.98 -180.05,984.11 -157.28,569.35 -767.82,1134.6 -1299.57,1134.6 -498.12,0 -858.62,-5.29 -1244.36,-378.41 -780.54,-755 -372.46,-1221.81 -653.71,-1745.18 -298.17,-554.89 -1121.62,-416.4 -1876.65,-416.4l0 740.83z"/>
   <path class="fil0" d="M5362.22 740.83c0,1511.27 852.43,1120.71 1405.35,1275.76 727,203.86 1151.81,756.22 1168.96,1547.43 19.82,913.86 520.16,951.53 1129.86,951.53 516.33,0 846.59,-356.96 847.94,-880.66 0.94,-360.23 17.51,-498.1 139.17,-742.77 46.8,-94.12 83.96,-185.24 151.83,-271.51 834.03,-1060.18 1602.05,-315.43 2093.44,-975.72 265.35,-356.55 189.56,-1123.75 189.56,-1644.89l-1115.08 0c-336.68,35.09 -613.56,140.4 -756.69,421.29 -266.12,522.26 111.18,992.52 -658.62,1740.27 -656.99,638.18 -2071.22,553.52 -2524.83,-704.67 -122.56,-339.95 83.33,-1456.89 -942,-1456.89l-1128.89 0 0 740.83z"/>
   <path class="fil0" d="M35.28 8890c0,1243.24 1055.35,919.17 1517.64,1092.91 222.5,83.62 381.57,184.05 553.81,328.13 114.77,96.01 309.99,358.8 374.08,507.87 250.77,583.27 -10.36,1047.43 360.45,1403.44 342.56,328.9 1697.19,462.01 1745.49,-615.33 17.16,-382.69 -20.86,-472.46 116.3,-765.64 185.19,-395.88 519.68,-721.46 936.21,-862.95 543.15,-184.51 1522.13,207.88 1522.13,-1229.55l0 -811.38c-1023.01,0 -1986.75,-222.82 -2011.26,987.35 -5.35,264.19 -11.96,304.78 -82.33,517.39 -164.56,497.16 -728.86,1035.25 -1363.63,1035.25 -438.03,0 -703.33,-32.47 -1099.59,-346.79 -201.04,-159.47 -401.61,-437.65 -493.08,-706.37 -111.61,-327.88 25.47,-1486.83 -876.78,-1486.83l-1199.44 0 0 952.5z"/>
   <path class="fil0" d="M-0 3810c0,496.22 398.61,775.14 883.36,809.97 496.19,35.66 762.47,6.25 1225.11,468.23 452.92,452.27 396.13,795.32 455.92,1237.41 43.51,321.74 36.79,436.45 229.44,617.22 316.64,297.12 1151.47,298.98 1467.76,-0.13 179,-169.28 220.63,-309.38 265.25,-616.7 55.93,-385.27 -20.91,-814.12 463.61,-1265 156.14,-145.3 316.35,-245.94 512.61,-334.05 483.49,-217.05 1587.77,108.64 1587.77,-1022.79l0 -1058.33c-820.78,0 -1600.39,-149.81 -1880.79,447.55 -135.56,288.81 -69.65,680.19 -180.98,1018.46 -164.85,500.91 -724.22,1073.99 -1360.17,1073.99 -359.08,0 -403.38,23.29 -762.26,-119.68 -379.89,-151.34 -716.14,-549.05 -856.84,-942.33 -112.85,-315.45 -34.42,-684.1 -168.08,-996.08 -123.51,-288.26 -414.32,-481.91 -717.54,-481.91l-1164.17 0 0 1164.17z"/>
   <path class="fil0" d="M10900.83 3704.16c0,253.35 91.72,490.28 219.08,627.59 532.34,573.92 1158.99,-38.17 1911.08,770.03 26.54,28.52 24.48,27.92 49.95,55.88 290.69,319.22 397.26,647.83 394.15,1122.8 -7.59,1158.49 1370.44,961.43 1714.8,654.44 127.83,-113.96 236.24,-388.44 257.94,-588.74 42.17,-389.4 -64.28,-759.04 435.36,-1257.96 153.44,-153.22 285.47,-251.02 496.8,-349.88 482.01,-225.49 905.28,18.48 1351.52,-341.81 162.55,-131.24 232.69,-369.53 260.15,-645.51l0 -1105.17c-492.59,0 -1276.36,-76.88 -1594.26,134.35 -598.56,397.73 -165.78,1023.45 -643.05,1720.56 -44.17,64.51 -80.06,96.86 -125.8,156.42 -58.77,76.53 -69.16,95.24 -155.66,161.84 -979.37,754.09 -2159.96,291.17 -2501.13,-681.04 -150.6,-429.15 62.53,-1492.13 -942.04,-1492.13l-1128.89 0 0 1058.33z"/>
   <path class="fil0" d="M10900.83 8995.83c0,921.02 777.04,883.41 1234.08,917.86 491.05,37.03 1010.46,465.15 1211.04,940.91 326.26,773.91 -223.3,1598.45 1188.49,1598.45 1117.13,0 829.82,-1091.28 1002.15,-1537.85 156.62,-405.86 435.69,-687.68 819.73,-873.6 294.94,-142.78 339.16,-103.26 716.4,-130.27 255.05,-18.26 479.65,-78.1 629.04,-217.62 149.36,-139.5 289.9,-315.05 289.9,-592.05l0 -1164.16c-876.79,0 -1585.33,-152.93 -1870.63,457.7 -195.08,417.52 63.69,1141.36 -673.6,1725.29 -895.93,709.57 -2102.78,320.38 -2465.99,-665.27 -179.45,-486.98 -43.68,-642.89 -179.33,-1020.11 -89.11,-247.77 -366.41,-497.61 -701.84,-497.61l-1199.44 0 0 1058.33z"/>
   <path class="fil0" d="M2610.55 8890c0,431.15 184.5,816.82 567.43,949.51 597.17,206.94 1408.13,-10.96 1408.13,-808.4 0,-606.05 -337.65,-1093.61 -846.67,-1093.61 -574.39,0 -1128.89,62.78 -1128.89,952.5z"/>
   <path class="fil0" d="M3527.78 4621.39c280.43,0 574.58,-91.15 732.35,-220.15 183.36,-149.9 254.25,-429.16 282.81,-707.49 51.58,-502.66 -405.6,-1047.92 -874.05,-1047.92l-246.95 0c-1167.23,0 -1217.24,1975.56 105.84,1975.56z"/>
   <path class="fil0" d="M7937.5 11641.66c0,1206.91 1315.91,1107.11 1649.37,837.98 443.1,-357.62 438.93,-1141.71 36.21,-1535.78 -551.24,-539.39 -1685.58,-356.88 -1685.58,697.8z"/>
   <path class="fil0" d="M13476.11 3527.78c0,641.94 237.69,1093.61 987.77,1093.61 1445.47,0 1177.22,-1975.56 70.56,-1975.56 -563.87,0 -1058.33,147.56 -1058.33,881.95z"/>
   <path class="fil0" d="M13476.11 8748.88c0,329.6 10.76,685.79 276.03,923.41 376.61,337.37 1699.52,477.68 1699.52,-747.02 0,-271.15 -116,-520.7 -240.3,-676.92 -425.17,-534.34 -1735.25,-431.68 -1735.25,500.53z"/>
   <path class="fil0" d="M7937.5 6244.16c0,1329.4 1975.55,1284.23 1975.55,141.11 0,-354.03 -21.15,-583.4 -272.54,-856.35 -389.83,-423.26 -1703.01,-496.41 -1703.01,715.24z"/>
   <path class="fil0" d="M7937.5 987.78c0,1311.19 1975.55,1299.33 1975.55,141.11 0,-310.19 -9.44,-597.09 -271.56,-857.33 -146.78,-145.74 -374.15,-243.67 -615.47,-271.56l-278.97 0c-422.19,50.5 -809.55,340.07 -809.55,987.78z"/>
  </g>
  <g id="_2205480332544">
   <g>
    <path class="fil1" d="M16636.67 18517.46c-26.5,229.36 -20.52,708.91 -11.13,950.42 13.19,339.78 481.15,253.06 616.69,107.85 185.29,-198.52 412.17,-1156.33 -605.56,-1058.27z"/>
    <path class="fil1" d="M712.97 20693.39c541.74,-159.97 508.5,-1541.13 -4.21,-1728.25l4.21 1728.25z"/>
   </g>
   <g>
    <path class="fil1" d="M11920.03 18461.14c-997.42,-131.13 -889.22,899.76 -742.73,1092.64 195.62,257.55 591.15,68.32 681.28,-118.16 101.82,-210.65 70.16,-707.3 61.45,-974.48z"/>
    <path class="fil1" d="M8121.18 18452.71c-368.58,-34.58 -586.67,44.56 -738.29,291.58 -124.7,203.13 -145.4,632.51 8.97,810.3 200.47,230.89 539.51,83.38 656.74,-110.16 130.86,-216.06 79.25,-708.9 72.58,-991.72z"/>
    <path class="fil1" d="M5431.13 18977.46c1063.34,180.8 736.38,-895.17 175.33,-448.79 -110.51,87.93 -163.21,256.89 -175.33,448.79z"/>
    <path class="fil1" d="M3584.12 18982.45c789.98,89.09 760.82,-381.82 636.59,-493.04 -137.05,-122.69 -628.11,-78.28 -636.59,493.04z"/>
   </g>
   <path class="fil0" d="M16636.67 18517.46c1017.73,-98.06 790.85,859.75 605.56,1058.27 -135.54,145.21 -603.5,231.93 -616.69,-107.85 -9.39,-241.51 -15.37,-721.06 11.13,-950.42zm-8515.49 -64.75c6.67,282.82 58.28,775.66 -72.58,991.72 -117.23,193.54 -456.27,341.05 -656.74,110.16 -154.37,-177.79 -133.67,-607.17 -8.97,-810.3 151.62,-247.02 369.71,-326.16 738.29,-291.58zm3798.85 8.43c8.71,267.18 40.37,763.83 -61.45,974.48 -90.13,186.48 -485.66,375.71 -681.28,118.16 -146.49,-192.88 -254.69,-1223.77 742.73,-1092.64zm-6488.9 516.32c12.12,-191.9 64.82,-360.86 175.33,-448.79 561.05,-446.38 888.01,629.59 -175.33,448.79zm-1847.01 4.99c8.48,-571.32 499.54,-615.73 636.59,-493.04 124.23,111.22 153.39,582.13 -636.59,493.04zm9087.59 -857.54c-10.15,291.41 -26.12,287.81 179.46,403.43 37.91,791.09 124.79,1222.72 -386.57,1087.65 -138.1,-295.73 -62.24,-1087.01 -71.81,-1490.07 -392.59,-194.74 -1092.99,-94.47 -1388.85,140.44 -581.61,461.81 -299.48,985.88 -462.87,1235.76 -218.31,333.87 -954.15,338.37 -1105.62,-114.87 -152.05,-454.99 123.36,-1027.49 647.28,-914.66l2.33 303.69c176.52,9.58 343.64,-25.99 394.01,-164.67 71.94,-198.01 7.93,-447.54 5.81,-458.89 -46.77,-249.53 -985.75,-118.27 -1271.8,163.58 -97.76,96.32 -226.87,325.42 -273.41,529.38 -71.29,312.45 19.71,485.63 -5.94,722.72 -110.94,63.32 -145.45,79.19 -284.36,43.53 -179.53,-403.41 65.06,-2194.46 -70.97,-2732.17 -640.16,-13.77 -405.97,331.26 -462.67,1138.99 -862.55,125.93 -1325.31,166.96 -1323.93,1458.69 -497.36,433.69 -1213.46,350.16 -1321.03,-113.12 472.12,22.77 872.28,-41.9 1042.56,-345.63 217.83,-388.55 77.22,-798.44 -258.11,-934.02 -189.89,-76.78 -430.45,-69.65 -621.92,-15.44 -222.41,62.97 -301.21,139.08 -424.61,270.9 -360.39,384.95 -235.34,602.44 -267.85,1122.92 -164.3,160.53 -364.39,306.3 -724.74,292.11 -310.27,-12.22 -552.98,-115.62 -592.9,-393.89 997.34,87.92 1309.33,-530.67 1094.9,-985.26 -275.95,-585.01 -1153.47,-350.36 -1437.67,49.66 -335.48,472.17 -251.23,1256.11 180.87,1553.29 460.9,316.99 1325.17,183.92 1614.35,-168.22 126.88,52.85 205.3,169.36 390.69,247.38 516.5,217.35 1062.92,61.49 1458.75,-220.52l61.18 50.64c5.51,5.05 12.96,12.53 18.52,17.83l193.12 154.95c541.12,276.09 875.29,-131.19 1016.04,-247.4 68.51,205.21 175.2,321.96 445.13,306.52 278.95,-15.94 325.61,-139.3 480.27,-256.9 223.64,189.61 394.66,291.5 806.44,285.91 417.17,-5.66 525.2,-126.79 798.42,-281.49 146.82,161.91 315.11,303.75 656.85,283.5 349.03,-20.68 419.03,-163.58 593.04,-328.64 106.39,120.97 60.22,146.94 210.04,233.25 274.12,157.88 498.67,-4.64 735.26,8.92 126.72,7.28 256.68,10.27 383.36,0.62 76.98,-460.08 -186.32,-1495.52 374.83,-1548.29 546.04,-51.35 227.45,897.45 335.62,1552.72l441.02 -1.22c81.22,-276.67 -31.61,-880.09 41.57,-1207.65 94.84,-424.46 594.67,-453.64 679.34,-138.39 85.42,317.98 -89.23,864.36 102.8,1154.61 194.18,293.51 487.83,271.42 846.91,160.26l12.36 1262.27c312.37,-17.66 463.51,-79.81 473.01,-408.31 8.14,-281.81 -16.57,-567.52 4.91,-847.86 850.56,242.34 1411.71,-347.64 1245.81,-1222.03 -67.27,-354.6 -310.07,-577.02 -654.04,-667.28 -210.03,-55.1 -1043.77,-72.09 -1258.2,-31.25 -7.5,247.72 -30.17,304.03 170.32,405.45 14.23,207.56 60.8,854.17 -20.25,993.32 -70.11,119.56 -162.76,140.49 -316.71,100.92 -297.9,-246.11 34.99,-1024.9 -246.83,-1356.38 -219.72,-258.44 -738.79,-311.09 -1130.78,53.57l-103.29 -105.3c-267.69,-262.88 -680.88,-142.27 -973.01,51.01l-50.87 -65.68c-35.35,-36.82 11.51,-9.23 -57.83,-50.09 -111.69,-65.83 -451.8,-49.83 -567.74,-24.8z"/>
   <path class="fil0" d="M1108.34 17221.2c46.79,-91.82 104.56,-208.82 121.26,-366.32 -1188.45,-143.7 -969.59,677.49 -984.17,1222.11 -107.24,71 1.31,0.26 -122.88,38.97l-91.25 30.47c-0.84,330.21 -8.44,270.06 222.57,381.91l4.44 2845.79c1458.09,-261.22 1692.15,-2268.63 502.84,-2861.04 373.86,-32.17 583.96,81.14 582.41,-404.33l-625.11 -5.17c-41.04,-902.17 -10.23,-797.06 389.89,-882.39z"/>
   <path class="fil1" d="M708.76 18965.14c512.71,187.12 545.95,1568.28 4.21,1728.25l-4.21 -1728.25z"/>
   <path class="fil0" d="M2087.75 20079.35c-25.78,-617.8 -107.95,-1418.56 511.77,-1522.39l6.16 300.44c175.15,22.48 352.93,-30.99 389.81,-195.62 27.93,-124.67 19.8,-480.91 -14.84,-597.16 -397.63,-50.86 -770.45,133.01 -870.69,377.01 -6.84,-8.78 -12.07,-21.43 -15.8,-29.42l-54.96 -142.17c-76,-198.65 -191.65,-156.66 -441.01,-165.45l-4.12 1972.52 493.68 2.24z"/>
  </g>
 </g>
</svg>
