<svg height="440pt" viewBox="0 -10 440.7286 440" width="440pt" xmlns="http://www.w3.org/2000/svg"><path d="m11.375 225.253906c-1.292969-2.382812-2.058594-5.328125-2.058594-8.515625 0-7.398437 4.117188-13.492187 9.414063-14.300781-.285157-1.296875-.4375-2.675781-.4375-4.101562 0-7.949219 4.75-14.390626 10.609375-14.390626 5.863281 0 10.613281 6.445313 10.613281 14.390626 0 1.417968-.152344 2.78125-.433594 4.074218 4.960938 1.207032 8.722657 7.085938 8.722657 14.160156 0 3.1875-.765626 6.132813-2.058594 8.519532 4.769531 1.410156 8.339844 7.167968 8.339844 14.054687 0 7.949219-4.753907 14.394531-10.613282 14.394531h-28.199218c-.53125.109376-1.070313.164063-1.621094.164063-5.863282 0-10.613282-6.441406-10.613282-14.390625 0-6.890625 3.570313-12.644531 8.335938-14.058594zm0 0" fill="#99af17"/><path d="m28.21875 232.027344c.710938.96875 1.871094.96875 2.585938 0l7.023437-9.527344c.714844-.96875.714844-2.539062 0-3.503906-.714844-.972656-1.871094-.972656-2.585937 0l-7.023438 9.523437c-.714844.96875-.714844 2.539063 0 3.507813zm0 0" fill="#a56021"/><path d="m28.523438 267.707031h.074218c.992188 0 1.792969-.800781 1.792969-1.789062v-51.300781c0-.988282-.800781-1.789063-1.792969-1.789063h-.074218c-.992188 0-1.792969.800781-1.792969 1.789063v51.300781c0 .988281.804687 1.789062 1.792969 1.789062zm0 0" fill="#bf6c0d"/><path d="m28.800781 246.785156c.710938-.96875.710938-2.539062 0-3.507812l-7.027343-9.527344c-.714844-.96875-1.871094-.96875-2.585938 0s-.714844 2.539062 0 3.507812l7.027344 9.527344c.710937.96875 1.871094.96875 2.585937 0zm0 0" fill="#bf6c0d"/><path d="m40.445312 229.386719c-1.082031-1.839844-1.722656-4.117188-1.722656-6.582031 0-5.71875 3.445313-10.425782 7.875-11.046876-.238281-1.007812-.367187-2.070312-.367187-3.171874 0-6.140626 3.976562-11.121094 8.878906-11.121094s8.875 4.976562 8.875 11.121094c0 1.09375-.125 2.148437-.359375 3.148437 4.148438.933594 7.296875 5.476563 7.296875 10.941406 0 2.464844-.640625 4.742188-1.722656 6.585938 3.988281 1.089843 6.976562 5.539062 6.976562 10.863281 0 6.140625-3.976562 11.121094-8.878906 11.121094h-23.59375c-.441406.085937-.894531.128906-1.355469.128906-4.902344 0-8.878906-4.980469-8.878906-11.121094 0-5.328125 2.988281-9.773437 6.976562-10.867187zm0 0" fill="#ccc033"/><path d="m54.535156 234.621094c.597656.75 1.566406.75 2.164063 0l5.875-7.359375c.597656-.75.597656-1.964844 0-2.710938-.597657-.75-1.566407-.75-2.164063 0l-5.875 7.363281c-.597656.746094-.597656 1.960938 0 2.707032zm0 0" fill="#a56021"/><path d="m70.507812 240.121094c0-5.324219-2.988281-9.769532-6.976562-10.863282 1.082031-1.839843 1.726562-4.117187 1.726562-6.582031 0-5.464843-3.152343-10.007812-7.300781-10.941406.234375-1 .363281-2.054687.363281-3.148437 0-4.902344-2.53125-9.058594-6.046874-10.539063.890624-.375 1.84375-.582031 2.835937-.582031 4.902344 0 8.875 4.976562 8.875 11.121094 0 1.09375-.125 2.148437-.359375 3.148437 4.148438.933594 7.296875 5.476563 7.296875 10.941406 0 2.464844-.640625 4.738281-1.722656 6.582031 3.988281 1.09375 6.976562 5.539063 6.976562 10.863282 0 6.144531-3.976562 11.125-8.878906 11.125h-5.667969c4.902344 0 8.878906-4.980469 8.878906-11.125zm0 0" fill="#99af17"/><path d="m54.789062 262.195312h.0625c.828126 0 1.5-.671874 1.5-1.5v-39.414062c0-.824219-.671874-1.496094-1.5-1.496094h-.0625c-.828124 0-1.496093.671875-1.496093 1.496094v39.414062c0 .828126.667969 1.5 1.496093 1.5zm0 0" fill="#bf6c0d"/><path d="m55.019531 246.027344c.597657-.75.597657-1.964844 0-2.710938l-5.875-7.363281c-.597656-.746094-1.566406-.746094-2.164062 0-.597657.75-.597657 1.964844 0 2.710937l5.875 7.363282c.601562.746094 1.566406.746094 2.164062 0zm0 0" fill="#bf6c0d"/><path d="m7.425781 185.078125c-1.496093 0-2.839843-.945313-3.351562-2.355469l-.847657-2.351562c-.667968-1.847656.289063-3.894532 2.136719-4.5625l61.03125-22.050782 2.742188 7.585938-5.265625 3.242188-21.433594 12.964843c-2.066406 1.25-4.324219 2.101563-6.703125 2.527344l-27.683594 4.941406c-.203125.039063-.414062.058594-.625.058594zm0 0" fill="#ffdf74"/><path d="m15.902344 182.726562-.847656-2.355468c-.667969-1.847656.289062-3.894532 2.136718-4.5625l50.570313-18.269532-1.367188-3.78125-61.027343 22.050782c-1.847657.667968-2.808594 2.714844-2.140626 4.5625l.851563 2.355468c.507813 1.40625 1.851563 2.351563 3.347656 2.351563.210938 0 .421875-.019531.628907-.058594l8.28125-1.476562c-.171876-.25-.324219-.523438-.433594-.816407zm0 0" fill="#ffd551"/><path d="m50.082031 159.652344c.476563 4.082031 3.003907 7.546875 6.527344 9.328125l7.261719-4.394531 5.265625-3.242188-2.742188-7.585938zm0 0" fill="#ffd551"/><path d="m122.851562 189.226562c-.527343 0-1.035156-.113281-1.511718-.339843l-58.75-27.558594 3.425781-7.304687 6.015625 1.429687 24.324219 5.988281c2.347656.578125 4.542969 1.574219 6.527343 2.957032l23.066407 16.078124c1.429687.992188 1.929687 2.859376 1.191406 4.433594l-1.066406 2.265625c-.582031 1.246094-1.847657 2.050781-3.222657 2.050781zm0 0" fill="#ffdf74"/><path d="m81.917969 158.25c0-.121094-.003907-.242188-.007813-.363281l-9.878906-2.433594-6.015625-1.429687-3.425781 7.304687 14.285156 6.703125c3.050781-2.183594 5.042969-5.753906 5.042969-9.78125zm0 0" fill="#ffd551"/><path d="m62.773438 160.160156-1.261719-6.054687-4.90625-24.5625c-.476563-2.371094-.507813-4.78125-.097657-7.164063l4.757813-27.714844c.292969-1.714843 1.769531-2.960937 3.507813-2.960937h2.503906c1.964844 0 3.5625 1.597656 3.5625 3.5625v64.894531zm0 0" fill="#ffdf74"/><path d="m64.488281 129.542969c-.472656-2.371094-.507812-4.78125-.097656-7.164063l4.757813-27.714844c.113281-.660156.402343-1.25.816406-1.730468-.652344-.75-1.613282-1.230469-2.6875-1.230469h-2.503906c-1.738282 0-3.214844 1.246094-3.507813 2.960937l-4.757813 27.714844c-.410156 2.382813-.378906 4.792969.097657 7.164063l4.90625 24.5625 1.261719 6.054687h7.882812l-1.257812-6.054687zm0 0" fill="#ffd551"/><path d="m56.839844 258.171875h18.339844l-4.78125-99.929687h-8.777344zm0 0" fill="#f9bb32"/><path d="m61.621094 158.242188-4.78125 99.929687h7.882812l4.785156-99.929687zm0 0" fill="#db9c2e"/><path d="m65.957031 170.269531c-6.625 0-12.019531-5.390625-12.019531-12.019531 0-6.625 5.394531-12.019531 12.019531-12.019531 6.628907 0 12.019531 5.394531 12.019531 12.019531 0 6.628906-5.390624 12.019531-12.019531 12.019531zm0 0" fill="#ffea63"/><path d="m65.957031 165.8125c-4.167969 0-7.5625-3.390625-7.5625-7.5625 0-4.167969 3.394531-7.5625 7.5625-7.5625 4.171875 0 7.5625 3.394531 7.5625 7.5625s-3.390625 7.5625-7.5625 7.5625zm0 0" fill="#a56021"/><path d="m62.730469 158.25c0-3.414062 2.28125-6.308594 5.394531-7.242188-.6875-.207031-1.414062-.320312-2.167969-.320312-4.167969 0-7.5625 3.394531-7.5625 7.5625 0 4.171875 3.394531 7.5625 7.5625 7.5625.753907 0 1.480469-.113281 2.167969-.320312-3.113281-.933594-5.394531-3.824219-5.394531-7.242188zm0 0" fill="#8c4c17"/><path d="m159.285156 244.621094h-70.601562v-181.585938c0-5.523437 4.476562-10 10-10h60.601562zm0 0" fill="#e58d23"/><path d="m129.542969 53.035156h-30.644531c-5.640626 0-10.214844 4.570313-10.214844 10.214844v181.371094h30.644531v-181.371094c0-5.644531 4.574219-10.214844 10.214844-10.214844zm0 0" fill="#bf6c0d"/><path d="m427.1875 216.683594c1.613281-2.820313 2.570312-6.300782 2.570312-10.070313 0-8.746093-5.136718-15.949219-11.742187-16.90625.355469-1.535156.550781-3.164062.550781-4.847656 0-9.398437-5.925781-17.015625-13.234375-17.015625-7.308593 0-13.230469 7.617188-13.230469 17.015625 0 1.671875.191407 3.285156.539063 4.816406-6.183594 1.425781-10.878906 8.375-10.878906 16.742188 0 3.765625.957031 7.25 2.570312 10.070312-5.945312 1.667969-10.398437 8.472657-10.398437 16.617188 0 9.398437 5.925781 17.019531 13.234375 17.019531h35.164062c.65625.128906 1.332031.195312 2.019531.195312 7.308594 0 13.234376-7.617187 13.234376-17.015624 0-8.144532-4.453126-14.949219-10.398438-16.621094zm0 0" fill="#99af17"/><path d="m406.1875 224.691406c-.890625 1.144532-2.332031 1.144532-3.222656 0l-8.761719-11.265625c-.890625-1.144531-.890625-3 0-4.144531s2.335937-1.144531 3.226563 0l8.757812 11.261719c.890625 1.148437.890625 3.003906 0 4.148437zm0 0" fill="#a56021"/><path d="m405.808594 266.875h-.097656c-1.230469 0-2.230469-.996094-2.230469-2.230469v-60.417969c0-1.234374 1-2.234374 2.230469-2.234374h.097656c1.234375 0 2.230468 1 2.230468 2.234374v60.417969c0 1.230469-.996093 2.230469-2.230468 2.230469zm0 0" fill="#bf6c0d"/><path d="m405.464844 242.140625c-.894532-1.144531-.894532-3.003906 0-4.148437l8.757812-11.265626c.890625-1.144531 2.335938-1.144531 3.226563 0 .890625 1.148438.890625 3.003907 0 4.148438l-8.761719 11.265625c-.890625 1.144531-2.335938 1.144531-3.222656 0zm0 0" fill="#bf6c0d"/><path d="m400.707031 195.078125c1.613281-2.820313 2.570313-6.304687 2.570313-10.070313 0-8.75-5.136719-15.953124-11.742188-16.90625.355469-1.539062.550782-3.164062.550782-4.851562 0-9.394531-5.925782-17.015625-13.234376-17.015625-7.308593 0-13.234374 7.617187-13.234374 17.015625 0 1.675781.191406 3.289062.542968 4.816406-6.183594 1.429688-10.878906 8.378906-10.878906 16.742188 0 3.769531.953125 7.25 2.566406 10.070312-5.945312 1.671875-10.394531 8.476563-10.394531 16.621094 0 9.398438 5.925781 17.015625 13.230469 17.015625h35.164062c.660156.128906 1.335938.199219 2.023438.199219 7.308594 0 13.234375-7.617188 13.234375-17.015625 0-8.148438-4.453125-14.953125-10.398438-16.621094zm0 0" fill="#ccc033"/><path d="m379.707031 203.085938c-.890625 1.144531-2.332031 1.144531-3.226562 0l-8.757813-11.265626c-.890625-1.144531-.890625-3.003906 0-4.148437s2.332032-1.144531 3.222656 0l8.761719 11.265625c.890625 1.144531.890625 3 0 4.148438zm0 0" fill="#a56021"/><path d="m355.898438 211.5c0-8.144531 4.453124-14.949219 10.398437-16.621094-1.613281-2.820312-2.570313-6.300781-2.570313-10.070312 0-8.363282 4.695313-15.3125 10.878907-16.742188-.347657-1.527344-.539063-3.144531-.539063-4.816406 0-7.496094 3.773438-13.859375 9.007813-16.125-1.324219-.574219-2.746094-.890625-4.222657-.890625-7.308593 0-13.234374 7.617187-13.234374 17.015625 0 1.675781.191406 3.289062.542968 4.816406-6.183594 1.429688-10.878906 8.378906-10.878906 16.742188 0 3.769531.953125 7.25 2.566406 10.070312-5.945312 1.671875-10.394531 8.476563-10.394531 16.621094 0 9.398438 5.925781 17.015625 13.230469 17.015625h8.449218c-7.3125 0-13.234374-7.621094-13.234374-17.015625zm0 0" fill="#99af17"/><path d="m379.324219 245.269531h-.09375c-1.234375 0-2.230469-1-2.230469-2.234375v-60.417968c0-1.234376.996094-2.230469 2.230469-2.230469h.09375c1.234375 0 2.234375.996093 2.234375 2.230469v60.417968c0 1.234375-1 2.234375-2.234375 2.234375zm0 0" fill="#bf6c0d"/><path d="m378.980469 220.53125c-.890625-1.144531-.890625-3 0-4.144531l8.761719-11.265625c.890624-1.144532 2.332031-1.144532 3.222656 0 .890625 1.144531.890625 3.003906 0 4.148437l-8.757813 11.261719c-.890625 1.144531-2.335937 1.144531-3.226562 0zm0 0" fill="#bf6c0d"/><path d="m350.507812 230.183594h-70.601562v-137.660156h62.601562c4.417969 0 8 3.582031 8 8zm0 0" fill="#a56021"/><path d="m130.601562 97.800781h-15.1875c-1.65625 0-3-1.34375-3-3v-13.378906c0-1.65625 1.34375-3 3-3h15.1875c1.65625 0 3 1.34375 3 3v13.378906c0 1.65625-1.34375 3-3 3zm0 0" fill="#f9bb32"/><path d="m130.601562 140.703125h-15.1875c-1.65625 0-3-1.34375-3-3v-13.378906c0-1.65625 1.34375-3 3-3h15.1875c1.65625 0 3 1.34375 3 3v13.378906c0 1.65625-1.34375 3-3 3zm0 0" fill="#f9bb32"/><path d="m130.601562 181.5625h-15.1875c-1.65625 0-3-1.34375-3-3v-13.378906c0-1.65625 1.34375-3 3-3h15.1875c1.65625 0 3 1.34375 3 3v13.378906c0 1.65625-1.34375 3-3 3zm0 0" fill="#f9bb32"/><path d="m130.601562 222.421875h-15.1875c-1.65625 0-3-1.34375-3-3v-13.378906c0-1.65625 1.34375-3 3-3h15.1875c1.65625 0 3 1.34375 3 3v13.378906c0 1.65625-1.34375 3-3 3zm0 0" fill="#f9bb32"/><path d="m415.214844 358.699219c-246.175782 150.003906-377.902344-14.082031-413.324219-69.5625-5.980469-9.367188 2.71875-21.46875 19.171875-26.699219 99.398438-31.597656 419.292969-118.632812 411.347656 72.902344-.347656 8.378906-6.671875 16.945312-17.195312 23.359375zm0 0" fill="#ccc033"/><path d="m41.183594 256.234375c-7.417969 2.21875-14.167969 4.3125-20.121094 6.203125-16.453125 5.230469-25.152344 17.332031-19.171875 26.699219 35.421875 55.480469 167.148437 219.566406 413.324219 69.5625 10.523437-6.414063 16.847656-14.980469 17.195312-23.359375.332032-7.996094.078125-15.496094-.691406-22.542969-216.335938 126.101563-342.253906 8-390.535156-56.5625zm0 0" fill="#99af17"/><path d="m304.871094 230.183594h-73.996094v-191.585938h65.992188c4.421874 0 8 3.582032 8 8v183.585938zm0 0" fill="#db9c2e"/><path d="m272.609375 78.390625h-21.398437c-2.75 0-4.980469-2.226563-4.980469-4.976563v-9.421874c0-2.75 2.230469-4.980469 4.980469-4.980469h21.398437c2.75 0 4.980469 2.230469 4.980469 4.980469v9.421874c0 2.75-2.230469 4.976563-4.980469 4.976563zm0 0" fill="#a56021"/><path d="m272.609375 111.078125h-21.398437c-2.75 0-4.980469-2.230469-4.980469-4.980469v-9.417968c0-2.75 2.230469-4.980469 4.980469-4.980469h21.398437c2.75 0 4.980469 2.230469 4.980469 4.980469v9.417968c0 2.753906-2.230469 4.980469-4.980469 4.980469zm0 0" fill="#a56021"/><path d="m272.101562 141.722656h-21.402343c-2.75 0-4.980469-2.226562-4.980469-4.976562v-9.421875c0-2.75 2.230469-4.980469 4.980469-4.980469h21.402343c2.75 0 4.980469 2.230469 4.980469 4.980469v9.421875c0 2.75-2.230469 4.976562-4.980469 4.976562zm0 0" fill="#a56021"/><path d="m272.609375 172.371094h-21.398437c-2.75 0-4.980469-2.230469-4.980469-4.980469v-9.421875c0-2.75 2.230469-4.976562 4.980469-4.976562h21.398437c2.75 0 4.980469 2.226562 4.980469 4.976562v9.421875c0 2.75-2.230469 4.980469-4.980469 4.980469zm0 0" fill="#a56021"/><path d="m272.609375 204.035156h-21.398437c-2.75 0-4.980469-2.230468-4.980469-4.980468v-9.417969c0-2.75 2.230469-4.980469 4.980469-4.980469h21.398437c2.75 0 4.980469 2.230469 4.980469 4.980469v9.417969c0 2.75-2.230469 4.980468-4.980469 4.980468zm0 0" fill="#a56021"/><path d="m351.070312 276.40625h22.195313l-5.789063-120.933594h-10.621093zm0 0" fill="#ffd551"/><path d="m356.855469 155.472656-5.785157 120.933594h9.542969l5.785157-120.933594zm0 0" fill="#f9bb32"/><path d="m337.144531 227.296875c-1.277343 1.28125-3.238281 1.621094-4.878906.855469l-2.742187-1.289063c-2.152344-1.007812-3.082032-3.582031-2.070313-5.734375l33.351563-71.09375 8.839843 4.144532-1.730469 7.28125-7.246093 29.433593c-.699219 2.84375-1.902344 5.5-3.578125 7.902344l-19.457032 27.917969c-.144531.207031-.308593.402344-.488281.582031zm0 0" fill="#fce575"/><path d="m342.386719 218.03125-2.742188-1.289062c-2.152343-1.007813-3.082031-3.582032-2.070312-5.734376l27.636719-58.90625-4.40625-2.066406-33.355469 71.09375c-1.007813 2.152344-.078125 4.726563 2.074219 5.734375l2.742187 1.289063c1.640625.769531 3.597656.425781 4.878906-.855469.179688-.179687.34375-.375.488281-.582031l5.824219-8.355469c-.363281-.066406-.726562-.167969-1.070312-.328125zm0 0" fill="#ffd551"/><path d="m351.890625 169.039062c3.902344 3.085938 9.03125 3.886719 13.566406 2.394532l2.457031-9.972656 1.730469-7.28125-8.839843-4.144532zm0 0" fill="#ffd551"/><path d="m439.46875 132.078125c-.453125.449219-.984375.789063-1.582031 1.003906l-73.859375 26.6875-3.316406-9.179687 6.371093-3.925782 25.9375-15.6875c2.503907-1.515624 5.234375-2.542968 8.113281-3.058593l33.5-5.984375c2.074219-.371094 4.097657.796875 4.8125 2.78125l1.03125 2.847656c.5625 1.566406.167969 3.335938-1.007812 4.515625zm0 0" fill="#fce575"/><path d="m377.933594 140.597656c-.105469-.105468-.210938-.203125-.320313-.304687l-10.535156 6.371093-6.371094 3.925782 3.316407 9.179687 17.960937-6.488281c.746094-4.476562-.601563-9.238281-4.050781-12.683594zm0 0" fill="#ffd551"/><path d="m363.183594 158.613281-6.257813-4.101562-25.21875-16.820313c-2.4375-1.621094-4.527343-3.65625-6.214843-6.046875l-19.644532-27.785156c-1.214844-1.71875-1.015625-4.050781.472656-5.539063l2.140626-2.140624c1.683593-1.679688 4.417968-1.679688 6.097656 0l55.53125 55.53125zm0 0" fill="#fce575"/><path d="m338.453125 130.945312c-2.433594-1.621093-4.527344-3.65625-6.214844-6.046874l-19.644531-27.789063c-.46875-.660156-.722656-1.414063-.777344-2.175781-1.203125-.085938-2.4375.328125-3.355468 1.246094l-2.140626 2.140624c-1.488281 1.488282-1.6875 3.820313-.472656 5.539063l19.644532 27.785156c1.6875 2.390625 3.78125 4.425781 6.214843 6.046875l25.21875 16.820313 6.257813 4.101562 6.75-6.746093-6.261719-4.101563zm0 0" fill="#ffd551"/><path d="m374.558594 164.539062c-5.667969 5.671876-14.898438 5.671876-20.570313 0-5.667969-5.671874-5.667969-14.898437 0-20.570312 5.671875-5.671875 14.902344-5.671875 20.570313 0 5.671875 5.671875 5.671875 14.898438 0 20.570312zm0 0" fill="#ffa730"/><path d="m370.746094 160.726562c-3.566406 3.566407-9.371094 3.566407-12.941406 0-3.566407-3.566406-3.566407-9.375 0-12.941406 3.570312-3.570312 9.375-3.570312 12.941406 0 3.570312 3.566406 3.570312 9.371094 0 12.941406zm0 0" fill="#bf6c0d"/><path d="m361.515625 157.015625c-2.921875-2.925781-3.449219-7.347656-1.582031-10.8125-.761719.410156-1.484375.933594-2.128906 1.582031-3.566407 3.566406-3.566407 9.371094 0 12.941406 3.570312 3.566407 9.375 3.566407 12.941406 0 .644531-.644531 1.171875-1.367187 1.582031-2.132812-3.464844 1.867188-7.890625 1.34375-10.8125-1.578125zm0 0" fill="#a56021"/><path d="m118.390625 280.351562c0 8.386719-6.800781 15.183594-15.183594 15.183594-8.386719 0-15.1875-6.796875-15.1875-15.183594 0-8.386718 6.800781-15.183593 15.1875-15.183593 8.382813 0 15.183594 6.796875 15.183594 15.183593zm0 0" fill="#99af17"/><path d="m159.285156 310.722656c0 8.382813-6.800781 15.183594-15.183594 15.183594-8.386718 0-15.183593-6.800781-15.183593-15.183594 0-8.386718 6.796875-15.183594 15.183593-15.183594 8.382813 0 15.183594 6.796876 15.183594 15.183594zm0 0" fill="#99af17"/><path d="m292.613281 208.214844c-3.3125 0-6-2.6875-6-6v-41.433594c0-3.316406 2.6875-6 6-6s6 2.683594 6 6v41.433594c0 3.3125-2.6875 6-6 6zm0 0" fill="#f9bb32"/><path d="m227.808594 38.597656h34.632812v191.585938h-34.632812zm0 0" fill="#bf6c0d"/><path d="m239.96875 262.289062h-92.816406v-253.925781c0-4.417969 3.582031-8 8-8h76.816406c4.417969 0 8 3.582031 8 8zm0 0" fill="#ffc34c"/><path d="m185.972656.367188h-30.648437c-4.511719 0-8.171875 3.65625-8.171875 8.171874v253.75h30.648437v-253.75c0-4.515624 3.65625-8.171874 8.171875-8.171874zm0 0" fill="#ffb74b"/><g fill="#e58d23"><path d="m221.25 66.179688h-25.449219c-1.628906 0-2.953125-1.324219-2.953125-2.957032v-13.464844c0-1.632812 1.320313-2.957031 2.953125-2.957031h25.449219c1.632812 0 2.957031 1.324219 2.957031 2.957031v13.464844c0 1.632813-1.324219 2.957032-2.957031 2.957032zm0 0"/><path d="m190.605469 96.824219h-25.449219c-1.628906 0-2.953125-1.324219-2.953125-2.957031v-13.46875c0-1.628907 1.320313-2.953126 2.953125-2.953126h25.449219c1.632812 0 2.957031 1.320313 2.957031 2.953126v13.46875c0 1.632812-1.324219 2.957031-2.957031 2.957031zm0 0"/><path d="m221.25 127.46875h-25.449219c-1.628906 0-2.953125-1.324219-2.953125-2.957031v-13.464844c0-1.632813 1.320313-2.957031 2.953125-2.957031h25.449219c1.632812 0 2.957031 1.324218 2.957031 2.957031v13.464844c0 1.632812-1.324219 2.957031-2.957031 2.957031zm0 0"/><path d="m190.605469 158.113281h-25.449219c-1.628906 0-2.953125-1.324219-2.953125-2.957031v-13.464844c0-1.632812 1.320313-2.957031 2.953125-2.957031h25.449219c1.632812 0 2.957031 1.324219 2.957031 2.957031v13.464844c0 1.632812-1.324219 2.957031-2.957031 2.957031zm0 0"/><path d="m221.25 188.757812h-25.449219c-1.628906 0-2.953125-1.324218-2.953125-2.957031v-13.464843c0-1.632813 1.320313-2.957032 2.953125-2.957032h25.449219c1.632812 0 2.957031 1.324219 2.957031 2.957032v13.464843c0 1.632813-1.324219 2.957031-2.957031 2.957031zm0 0"/><path d="m190.605469 219.402344h-25.449219c-1.628906 0-2.953125-1.324219-2.953125-2.957032v-13.464843c0-1.632813 1.320313-2.957031 2.953125-2.957031h25.449219c1.632812 0 2.957031 1.324218 2.957031 2.957031v13.464843c0 1.632813-1.324219 2.957032-2.957031 2.957032zm0 0"/><path d="m221.25 250.046875h-25.449219c-1.628906 0-2.953125-1.324219-2.953125-2.957031v-13.464844c0-1.632812 1.320313-2.957031 2.953125-2.957031h25.449219c1.632812 0 2.957031 1.324219 2.957031 2.957031v13.464844c0 1.632812-1.324219 2.957031-2.957031 2.957031zm0 0"/></g><path d="m177.800781 200.023438h-12.578125c-1.667968 0-3.019531 1.351562-3.019531 3.019531v13.339843c0 1.667969 1.351563 3.019532 3.019531 3.019532h12.578125zm0 0" fill="#bf6c0d"/><path d="m177.800781 77.445312h-12.578125c-1.667968 0-3.019531 1.351563-3.019531 3.019532v13.339844c0 1.667968 1.351563 3.019531 3.019531 3.019531h12.578125zm0 0" fill="#bf6c0d"/><path d="m177.800781 138.734375h-12.578125c-1.667968 0-3.019531 1.351563-3.019531 3.019531v13.339844c0 1.667969 1.351563 3.019531 3.019531 3.019531h12.578125zm0 0" fill="#bf6c0d"/><path d="m262.441406 184.65625h-11.125c-2.808594 0-5.085937 2.277344-5.085937 5.089844v9.203125c0 2.808593 2.277343 5.085937 5.085937 5.085937h11.125zm0 0" fill="#8c4c17"/><path d="m262.441406 152.992188h-11.125c-2.808594 0-5.085937 2.277343-5.085937 5.085937v9.203125c0 2.808594 2.277343 5.089844 5.085937 5.089844h11.125zm0 0" fill="#8c4c17"/><path d="m262.441406 122.347656h-11.636718c-2.808594 0-5.085938 2.277344-5.085938 5.085938v9.203125c0 2.808593 2.277344 5.085937 5.085938 5.085937h11.636718zm0 0" fill="#8c4c17"/><path d="m262.441406 91.703125h-11.125c-2.808594 0-5.085937 2.273437-5.085937 5.085937v9.203126c0 2.808593 2.277343 5.089843 5.085937 5.089843h11.125zm0 0" fill="#8c4c17"/><path d="m262.441406 59.015625h-11.125c-2.808594 0-5.085937 2.277344-5.085937 5.085937v9.203126c0 2.808593 2.277343 5.089843 5.085937 5.089843h11.125zm0 0" fill="#8c4c17"/><path d="m119.328125 203.042969h-3.847656c-1.691407 0-3.066407 1.375-3.066407 3.066406v13.246094c0 1.695312 1.375 3.066406 3.066407 3.066406h3.847656zm0 0" fill="#db9c2e"/><path d="m119.328125 162.183594h-3.847656c-1.691407 0-3.066407 1.371094-3.066407 3.066406v13.246094c0 1.691406 1.375 3.066406 3.066407 3.066406h3.847656zm0 0" fill="#db9c2e"/><path d="m119.328125 121.324219h-3.847656c-1.691407 0-3.066407 1.375-3.066407 3.066406v13.246094c0 1.695312 1.375 3.066406 3.066407 3.066406h3.847656zm0 0" fill="#db9c2e"/><path d="m119.328125 78.421875h-3.847656c-1.691407 0-3.066407 1.371094-3.066407 3.0625v13.25c0 1.691406 1.375 3.066406 3.066407 3.066406h3.847656zm0 0" fill="#db9c2e"/><path d="m419.800781 326.699219c-2.726562 0-5.4375-1.109375-7.414062-3.285157-29.265625-32.296874-115.6875-13.25-146.515625-3.1875-5.253906 1.714844-10.894532-1.152343-12.609375-6.398437-1.714844-5.25 1.144531-10.894531 6.394531-12.609375 1.230469-.40625 30.585938-9.921875 65.421875-14.027344 48.847656-5.757812 83.207031 1.914063 102.132813 22.792969 3.707031 4.09375 3.394531 10.414063-.695313 14.125-1.917969 1.734375-4.320313 2.589844-6.714844 2.589844zm0 0" fill="#99af17"/></svg>