<?xml version="1.0" encoding="UTF-8"?>
<svg xmlns="http://www.w3.org/2000/svg" xml:space="preserve" width="32.5521mm" height="32.5521mm" version="1.1" viewBox="0 0 16909 16909"
 xmlns:xlink="http://www.w3.org/1999/xlink">
 <defs>
  <style type="text/css">
   <![CDATA[
    .str1 {stroke:#FEFEFE;stroke-width:259.72}
    .str0 {stroke:#2B2A29;stroke-width:779.161}
    .fil1 {fill:#FEFEFE}
    .fil0 {fill:#E31E24}
   ]]>
  </style>
 </defs>
 <g id="Layer_x0020_1">
  <metadata id="CorelCorpID_0Corel-Layer"/>
  <rect class="fil0 str0" x="390" y="390" width="16130" height="16130"/>
  <g id="_2780314832704">
   <polygon class="fil1 str1" points="8393,12554 9830,8517 9972,8517 11451,12554 12878,8517 13299,8517 11480,13458 11399,13458 9906,9377 8427,13458 8351,13458 6494,8517 6921,8517 "/>
   <polygon class="fil1 str1" points="4333,13373 4333,8865 2527,8865 2527,8517 6558,8517 6558,8865 4752,8865 4752,13373 "/>
   <path class="fil1 str1" d="M10001 5122c0,-466 163,-861 486,-1185 324,-324 720,-486 1188,-486 462,0 855,162 1181,488 325,325 487,719 487,1183 0,220 -44,433 -130,641 -87,207 -209,390 -366,547 -159,159 -339,280 -538,360 -199,82 -410,123 -634,123 -468,0 -864,-162 -1188,-485 -323,-324 -486,-718 -486,-1186zm392 7c0,372 125,688 375,948 250,259 551,388 906,388 351,0 651,-129 899,-388 248,-260 372,-576 372,-948 0,-376 -123,-693 -370,-953 -246,-261 -547,-391 -901,-391 -358,0 -662,130 -909,391 -248,260 -372,577 -372,953zm-2482 1600l0 -3207 356 0 0 791c199,-305 380,-523 545,-654 164,-129 335,-194 514,-194 97,0 191,20 282,59 91,41 187,102 287,185l-195 340c-97,-78 -186,-136 -265,-173 -81,-37 -158,-56 -231,-56 -144,0 -289,70 -437,209 -148,139 -316,363 -500,673l0 2027 -356 0zm-3506 1614l0 -4821 341 0 0 229c131,-100 271,-175 419,-222 148,-47 311,-71 486,-71 468,0 846,153 1135,460 290,307 434,708 434,1204 0,495 -144,897 -434,1204 -289,307 -667,459 -1135,459 -180,0 -343,-23 -490,-70 -147,-46 -286,-117 -415,-215l0 1843 -341 0zm341 -4193l0 1961c118,123 247,213 387,273 140,59 298,89 474,89 358,0 651,-125 876,-374 226,-249 339,-572 339,-970 0,-398 -113,-722 -339,-971 -225,-249 -518,-373 -876,-373 -179,0 -337,30 -476,89 -139,59 -267,150 -385,276z"/>
  </g>
 </g>
</svg>
