<?xml version="1.0" encoding="UTF-8" standalone="no"?>
<svg
   xmlns:dc="http://purl.org/dc/elements/1.1/"
   xmlns:cc="http://creativecommons.org/ns#"
   xmlns:rdf="http://www.w3.org/1999/02/22-rdf-syntax-ns#"
   xmlns:svg="http://www.w3.org/2000/svg"
   xmlns="http://www.w3.org/2000/svg"
   xmlns:sodipodi="http://sodipodi.sourceforge.net/DTD/sodipodi-0.dtd"
   xmlns:inkscape="http://www.inkscape.org/namespaces/inkscape"
   version="1.1"
   id="svg4770"
   viewBox="0 0 500.00001 500.00001"
   height="141.11111mm"
   width="141.11111mm"
   inkscape:version="0.91 r13725"
   sodipodi:docname="Babel.svg">
  <sodipodi:namedview
     pagecolor="#ffffff"
     bordercolor="#666666"
     borderopacity="1"
     objecttolerance="10"
     gridtolerance="10"
     guidetolerance="10"
     inkscape:pageopacity="0"
     inkscape:pageshadow="2"
     inkscape:window-width="1600"
     inkscape:window-height="837"
     id="namedview7092"
     showgrid="false"
     inkscape:zoom="0.47199999"
     inkscape:cx="429.29561"
     inkscape:cy="65.057654"
     inkscape:window-x="-8"
     inkscape:window-y="-8"
     inkscape:window-maximized="1"
     inkscape:current-layer="svg4770" />
  <defs
     id="defs4772" />
  <metadata
     id="metadata4775">
    <rdf:RDF>
      <cc:Work
         rdf:about="">
        <dc:format>image/svg+xml</dc:format>
        <dc:type
           rdf:resource="http://purl.org/dc/dcmitype/StillImage" />
        <dc:title />
      </cc:Work>
    </rdf:RDF>
  </metadata>
  <ellipse
     id="circle4657"
     cy="250"
     cx="250.00002"
     style="fill:#ffb60c;fill-opacity:1"
     rx="249.99994"
     ry="250" />
  <g
     style="font-style:normal;font-variant:normal;font-weight:bold;font-stretch:normal;font-size:220.93637085px;line-height:125%;font-family:'Microsoft JhengHei';-inkscape-font-specification:'Microsoft JhengHei, Bold';text-align:start;letter-spacing:0px;word-spacing:0px;writing-mode:lr-tb;text-anchor:start;opacity:0.98999999;fill:#111111;fill-opacity:1;stroke:#131211;stroke-width:10;stroke-linecap:round;stroke-linejoin:round;stroke-miterlimit:4;stroke-dasharray:none;stroke-opacity:1"
     id="text5373"
     transform="translate(-6,4)">
    <path
       d="m 275.9385,284.49096 -11.8667,17.47641 q -50.27165,-18.44732 -84.90084,-45.74073 -37.43404,29.66675 -86.842665,44.12255 L 81.324628,282.76489 Q 134.40114,265.72 163.31273,242.74175 137.85327,216.41926 120.48474,170.89428 l 18.98672,-7.65941 q 16.18186,43.90678 39.26798,66.022 24.05704,-23.40976 38.51284,-70.22929 l -134.417344,0 0,-19.74187 84.469324,0 q -6.58062,-14.67156 -15.75035,-27.83281 l 20.60491,-6.58062 q 11.54306,18.87884 17.47641,34.41343 l 85.00872,0 0,19.74187 -35.6001,0 q -16.61338,54.26318 -44.3383,83.71417 28.3722,22.76249 81.23295,41.74921 z"
       style="stroke:#131211;stroke-opacity:1"
       id="path8363"
       inkscape:connector-curvature="0" />
    <path
       d="m 418.67539,380.28346 -28.48008,0 -15.64247,-43.47527 -66.88503,0 -14.88732,43.47527 -28.48008,0 63.00139,-167.1047 28.80372,0 62.56987,167.1047 z m -51.35045,-64.94321 -23.30188,-65.91412 q -1.29455,-3.56001 -2.5891,-12.62185 l -0.75515,0 q -0.97092,7.44365 -2.69698,12.40609 l -23.194,66.12988 52.53711,0 z"
       style="stroke:#131211;stroke-opacity:1"
       id="path8365"
       inkscape:connector-curvature="0" />
  </g>
  <g
     id="g5720"
     transform="matrix(0.69701552,0.02060122,-0.02060122,0.69701552,-321.25223,-559.83804)"
     style="fill:#131211;fill-opacity:1;stroke:none;stroke-width:0.99954122;stroke-miterlimit:4;stroke-dasharray:none;stroke-opacity:1">
    <path
       inkscape:connector-curvature="0"
       d="m 802.02921,1318.528 0,-0.1 c -0.1,-0.4 -0.2,-0.8 -0.3,-1.1 0,0 0,0 0,-0.1 -0.1,-0.3 -0.2,-0.7 -0.4,-1 0,-0.1 -0.1,-0.2 -0.2,-0.3 -0.1,-0.2 -0.3,-0.5 -0.4,-0.7 -0.1,-0.1 -0.1,-0.2 -0.2,-0.3 -0.2,-0.3 -0.4,-0.6 -0.6,-0.9 -0.2,-0.3 -0.5,-0.6 -0.8,-0.9 -0.1,-0.1 -0.1,-0.1 -0.2,-0.2 -0.2,-0.2 -0.5,-0.4 -0.7,-0.6 -0.1,-0.1 -0.2,-0.1 -0.3,-0.2 -0.2,-0.2 -0.5,-0.3 -0.7,-0.5 -0.1,-0.1 -0.2,-0.1 -0.3,-0.2 -0.3,-0.2 -0.7,-0.4 -1,-0.5 l -51.093,-20.607 c -5.099,-2.101 -10.898,0.4 -12.998,5.502 -2.1,5.102 0.4,10.903 5.499,13.004 l 34.195,13.804 c -18.797,10.103 -41.494,10.903 -61.191,1.5 l -0.1,0 c -24.896,-11.504 -40.594,-36.912 -39.994,-64.921 0.1,-5.502 -4.199,-10.103 -9.799,-10.203 -5.499,-0.1 -10.099,4.201 -10.199,9.803 -0.9,35.911 19.397,68.622 51.493,83.527 11.998,5.702 24.796,8.503 37.595,8.503 10.898,0 21.797,-2.101 32.095,-6.102 l -9.099,22.207 c -2.1,5.102 0.4,11.004 5.499,13.004 1.2,0.5 2.5,0.7 3.799,0.7 3.899,0 7.699,-2.301 9.299,-6.202 l 20.597,-50.516 c 0,-0.1 0.1,-0.2 0.1,-0.3 -0.1,-0.1 -0.1,-0.2 0,-0.3 0.1,-0.3 0.2,-0.6 0.2,-0.8 0,-0.1 0,-0.2 0.1,-0.3 0.1,-0.4 0.1,-0.8 0.2,-1.2 0,-0.4 0,-0.7 0,-1.1 0,-0.1 0,-0.2 0,-0.3 0,-0.3 -0.1,-0.6 -0.1,-0.9 0.002,-0.103 0.002,-0.103 0.002,-0.203 z"
       id="path5614"
       style="fill:#131211;fill-opacity:1;stroke:none;stroke-width:0.99954122;stroke-miterlimit:4;stroke-dasharray:none;stroke-opacity:1" />
    <path
       inkscape:connector-curvature="0"
       d="m 904.31521,954.91298 0,0.1 c 0.1,0.4 0.2,0.8 0.3,1.1 0,0 0,0 0,0.1 0.1,0.3 0.2,0.7 0.4,1 0,0.1 0.1,0.2 0.2,0.3 0.1,0.2 0.3,0.5 0.4,0.7 0.1,0.1 0.1,0.2 0.2,0.3 0.2,0.3 0.4,0.6 0.6,0.9 0.2,0.3 0.5,0.6 0.8,0.9 0.1,0.1 0.1,0.1 0.2,0.2 0.2,0.2 0.5,0.4 0.7,0.6 0.1,0.1 0.2,0.1 0.3,0.2 0.2,0.2 0.5,0.3 0.7,0.5 0.1,0.1 0.2,0.1 0.3,0.2 0.3,0.2 0.7,0.4 1,0.5 l 51.093,20.607 c 5.099,2.101 10.898,-0.4 12.998,-5.502 2.1,-5.102 -0.4,-10.903 -5.499,-13.004 l -34.195,-13.804 c 18.797,-10.103 41.494,-10.903 61.191,-1.5 l 0.1,0 c 24.89599,11.504 40.59399,36.912 39.99399,64.92102 -0.1,5.502 4.199,10.103 9.799,10.203 0.1,0 0.2,0 0.2,0 5.399,0 9.899,-4.301 9.999,-9.803 0.8,-36.01102 -19.397,-68.82202 -51.593,-83.62702 l 0,0 c -22.29699,-10.603 -47.39299,-11.104 -69.58999,-2.401 l 9.099,-22.207 c 2.1,-5.102 -0.4,-11.003 -5.499,-13.004 -5.099,-2.101 -10.998,0.4 -12.998,5.502 l -20.597,50.516 c 0,0.1 -0.1,0.2 -0.1,0.3 0,0.1 -0.1,0.3 -0.1,0.4 -0.1,0.3 -0.2,0.6 -0.2,0.8 0,0.1 0,0.2 -0.1,0.3 -0.1,0.4 -0.1,0.8 -0.2,1.2 0,0.4 0,0.7 0,1.1 0,0.1 0,0.2 0,0.3 0,0.3 0.1,0.6 0.1,0.9 -0.002,0.103 -0.002,0.103 -0.002,0.203 z"
       id="path5616"
       style="fill:#131211;fill-opacity:1;stroke:none;stroke-width:0.99954122;stroke-miterlimit:4;stroke-dasharray:none;stroke-opacity:1" />
  </g>
</svg>
