<?xml version="1.0" encoding="UTF-8"?>
<!DOCTYPE svg PUBLIC "-//W3C//DTD SVG 1.1//EN" "http://www.w3.org/Graphics/SVG/1.1/DTD/svg11.dtd">
<!-- Creator: CorelDRAW 2017 -->
<svg xmlns="http://www.w3.org/2000/svg" xml:space="preserve" width="100%" height="100%" version="1.1" style="shape-rendering:geometricPrecision; text-rendering:geometricPrecision; image-rendering:optimizeQuality; fill-rule:evenodd; clip-rule:evenodd"
viewBox="0 0 8138.13 13840.31"
 xmlns:xlink="http://www.w3.org/1999/xlink">
 <defs>
  <style type="text/css">
   <![CDATA[
    .fil3 {fill:black}
    .fil2 {fill:#049C3D}
    .fil4 {fill:#059C3E}
    .fil5 {fill:#8E8E8E}
    .fil1 {fill:#FDFDFD}
    .fil0 {fill:#FEFEFE}
   ]]>
  </style>
 </defs>
 <g id="Layer_x0020_1">
  <metadata id="CorelCorpID_0Corel-Layer"/>
  <g id="_2598256194080">
   <polygon class="fil0" points="3644.4,8934.22 3611.19,4807.1 3397.92,4822.58 3177.26,9111.93 "/>
   <polygon class="fil0" points="6090.25,8073.18 6533.11,7926.17 6535.69,5063.49 6323.62,5067.51 "/>
   <path class="fil0" d="M4920.19 10708.08l116.86 459.67 -242.7 -11.12 125.84 -448.55zm-161.12 669.8l335.79 9.16 92.09 306.24 298.05 -20.32 -389.47 -1206.68 -331.23 3.74c-80.44,109.62 -354.41,1038.75 -384.47,1220.47l275.73 -6.42 103.51 -306.19z"/>
   <polygon class="fil0" points="6700.51,11688.12 7484.37,11693.47 7484.37,11463.34 6995.2,11462.75 6986.1,11177.7 7427.27,11170.3 7431.04,10957.76 6986.97,10944.75 6982.3,10703.74 7454.81,10690.08 7457.34,10473.69 6710.77,10464.3 "/>
   <path class="fil0" d="M6162.17 11683.92c76.29,-225.14 384.49,-1046.43 386.79,-1218.51l-276.56 -1.39 -263.56 927.12 -277.53 -924.47 -266.08 1.07c-0.89,133.84 308.77,1107.71 385.35,1224.63l311.59 -8.45z"/>
   <path class="fil0" d="M3967.62 11429.29c-196.07,96.52 -358.11,-37.07 -488.73,12.39l-41.16 202.07c783.68,268.16 1065.52,-359.14 640.87,-619.08 -169.43,-103.71 -314.1,-69.02 -346.22,-253.48 108.96,-161.82 252.45,-81.12 411.44,-54.26l76.62 -209.01c-289.31,-115.06 -770.98,-88.97 -772.41,298.47 -1.73,469.75 572,242.81 519.59,622.9z"/>
   <path class="fil0" d="M2601.89 12009.52c382.23,-73.33 689.14,59.3 669.85,488.47 -19.3,429.52 -307.08,488.75 -678.26,472.84l8.41 -961.31zm-164.15 1080.64c510.13,55.47 995.24,-13.94 1002.45,-625.75 7.06,-598.87 -512.33,-649.4 -1005.58,-579.59l3.13 1205.34z"/>
   <path class="fil0" d="M6947.61 12352.05c389.53,-179.24 485.54,489.35 212.71,613.58 -365.77,166.55 -517.51,-473.32 -212.71,-613.58zm-320.01 384.06c67.24,579.37 966,483.63 846.6,-197.9 -88.93,-507.64 -923.49,-464.72 -846.6,197.9z"/>
   <path class="fil1" d="M282.22 9652.77l-19.22 421.09 76.61 22.97 380.21 -139.69 -7.68 -5407.2c-109.73,-11.04 -130.77,-24.41 -236.63,18l-193.29 5084.83z"/>
   <path class="fil1" d="M4658.42 13096.36l149.97 -14.78c9.68,-182.97 35.79,-722.97 -17.19,-865.52l-143.16 4.07 10.38 876.23z"/>
   <path class="fil2" d="M4646.94 12213.51l172.93 0.35c-2.14,177.83 -2.91,690.26 -7.08,879.84l-154.37 2.66 -11.48 -882.85zm1980.66 522.6c-76.89,-662.62 757.67,-705.54 846.6,-197.9 119.4,681.53 -779.36,777.27 -846.6,197.9zm-4189.86 354.05l-3.13 -1205.34c493.25,-69.81 1012.64,-19.28 1005.58,579.59 -7.21,611.81 -492.32,681.22 -1002.45,625.75zm3963.97 -863.91c52.87,-19.3 55.78,-23.03 141.15,-30.62l22.23 129.43 -111.91 35.34c-112.24,38.93 -167.23,120.48 -188.53,224.09 -8.92,177.1 4.32,345.49 -2.55,503.47l-149.04 1.88c-4.06,-191.11 -6.57,-713.53 -4.27,-886.2 80.53,1.1 112.87,1.61 144.37,2.55 0.11,22.21 1.43,71.89 1.14,139.81 80.25,-85.71 80.18,-84.69 147.41,-119.75zm-2624.7 -3.08l-1.83 90.33c178.56,-123.24 323.9,-124.43 426.16,-60.02 33.81,21.29 80.25,60.02 102.76,94.25 32.44,34.23 48.79,75.1 62.13,118.28 -1.03,231.18 0.43,468.25 1.32,624.88l-129.96 2.67c-11.43,-194.74 3.56,-398.87 -12.86,-592.82 -17.39,-53.62 -44.52,-103.64 -101.84,-149.9 -187.65,-47.32 -289.95,34.92 -340.31,143.44 -1.14,197.13 -0.49,433.97 0.57,591.7l-148.07 1.85c-10.56,-162.67 -11.52,-683.67 -7.65,-868.57l149.58 3.91zm881.28 -334.11c24.54,-31.7 56.26,-43.55 91.83,-41.08 32.55,2.56 61.76,29.39 69.51,65.03 3.38,182.75 -234.5,139.5 -161.34,-23.95zm-7.14 -202.79l-271.32 4.22c65.34,-194.95 312.85,-1040.29 380.06,-1229.29l335.64 5.08 391.67 1222.11 -300.25 4.89 -98.7 -308.45 -329.18 -6.95 -107.92 308.39zm2059.62 -1221.97l746.57 9.39 -2.53 216.39 -472.51 13.66 4.67 241.01 444.07 13.01 -3.77 212.54 -441.17 7.4 9.1 285.05 489.17 0.59 0 230.13 -783.86 -5.35 10.26 -1223.82zm-2743.15 964.99c52.41,-380.09 -521.32,-153.15 -519.59,-622.9 1.43,-387.44 483.1,-413.53 772.41,-298.47l-76.62 209.01c-158.99,-26.86 -302.48,-107.56 -411.44,54.26 32.12,184.46 176.79,149.77 346.22,253.48 424.65,259.94 142.81,887.24 -640.87,619.08l45.57 -215.3c128.7,38.74 285.54,97.36 484.32,0.84zm2194.55 254.63l-311.59 8.45c-76.58,-116.92 -386.24,-1090.79 -385.35,-1224.63l266.08 -1.07 277.53 924.47 263.56 -927.12 276.56 -3.02c-77.26,247.04 -310.5,997.78 -386.79,1222.92zm-925.52 657.09c250.6,-294.87 650.13,-133.82 670.99,268.83 23.13,446.22 -274.83,586.1 -667.5,414.55l-7.18 297.83 2604.05 0 -2.86 -3043.17 -4720.08 14.75 -2.18 1361.39 -1000.76 0 -0.25 1667.03 2963.34 0c0,-252.88 -9.21,-872.71 -0.4,-1112.43 99.42,1.66 103.44,-0.88 162.97,0.2 1.71,55.55 0.29,56.55 -0.14,131.02z"/>
   <path class="fil2" d="M2593.48 12970.83c371.18,15.91 658.96,-43.32 678.26,-472.84 19.29,-429.17 -287.62,-561.8 -669.85,-488.47l-8.41 961.31z"/>
   <path class="fil2" d="M6947.61 12352.05c-304.8,140.26 -153.06,780.13 212.71,613.58 272.83,-124.23 176.82,-792.82 -212.71,-613.58z"/>
   <path class="fil2" d="M5728.35 12856.98c219.32,-402.17 -282.83,-722.26 -435.25,-400.86 -199.18,419.99 252.98,735.12 435.25,400.86z"/>
   <path class="fil3" d="M3840.98 1490.96l-47.94 124.9 -31.54 -176.82c-34.58,-448.29 -529.08,-731.06 -955.54,-624.99 -646.32,160.74 -569.21,730.6 -590.13,994.32 -167.14,-31.19 -333.61,-385.99 -811.35,-416.6 -309.16,-19.8 -665.51,115.53 -844.64,349.08 -426.44,555.98 -258.44,1228.08 299.99,1593.14 -4.98,262.47 -35.27,483.01 73.12,736.9 324.37,-63.92 168.16,-439.64 1030.92,-891.01 834.18,373.76 1005.96,-193.88 1221.86,-362.57 118.07,222.82 305.18,292.09 549.36,337.1 -89.21,260.19 -327.84,774.46 -237.38,1040.59 319.19,-40.02 421.71,-793.87 781.46,-741.9 72.27,155.89 100.45,762.22 723.88,834.91 567.35,66.15 677.53,-244.9 894.95,-623.61 560.62,-39.7 260.79,-16.78 623.05,-266.61 362.12,125.48 490.73,287.94 943.07,132.2 252.77,-87.02 502.39,-312.31 600.5,-562.2 121.83,-310.33 90.29,-643.53 -80.27,-927.5 -202,-336.31 -381.89,-332.68 -696.89,-465.59 -162.99,-495.37 -102.15,-678.37 -530.42,-1094.36 -320.29,-311.1 -703.66,-473.58 -1153.36,-480.14 -864.28,-12.61 -1705.07,596.83 -1762.7,1490.76z"/>
   <path class="fil3" d="M339.61 10096.83l-100.09 61.39 42.7 -505.45 193.29 -5084.83c105.86,-42.41 126.9,-29.04 236.63,-18l7.68 5407.2 -380.21 139.69zm1019.4 -162.63l-237.57 -5551.26 -798.74 12.34 -236.02 5970.53 1272.33 -431.61z"/>
   <path class="fil3" d="M0.41 13828.38l7241.23 11.93 0 -329.64c-259.95,0.29 -132.14,-24.13 -227.06,148.95 -1228.9,72.17 -3666.67,5.37 -5115.36,5.37l-1589.02 1.63c-131.17,-20.16 -41.03,13.65 -102.6,-47.02l6.46 -2803.58 6764.31 -2371.91 79.23 -27.86 1.72 1618.03 175.61 0 -7.09 -1915.85 -7227.84 2549.68 0.41 3160.27z"/>
   <path class="fil3" d="M3177.26 9111.93l220.66 -4289.35 213.27 -15.48 33.21 4127.12 -467.14 177.71zm1057.59 -196.24l-229.3 -4274.38 -757.39 5.8 -254.5 4695.52 1241.19 -426.94z"/>
   <path class="fil3" d="M6323.62 5067.51l212.07 -4.02 -2.58 2862.68 -442.86 147.01 233.37 -3005.67zm836.73 2816.4l-222.46 -2980.51 -764.29 4.68 -258.09 3405.92 1244.84 -430.09z"/>
   <polygon class="fil4" points="4796.56,11165.45 5037.05,11167.75 4920.19,10708.08 "/>
   <polygon class="fil5" points="3840.98,1490.96 3761.5,1439.04 3793.04,1615.86 "/>
  </g>
 </g>
</svg>
