<?xml version="1.0" encoding="UTF-8" standalone="no"?>
<svg
   xmlns:svg="http://www.w3.org/2000/svg"
   xmlns="http://www.w3.org/2000/svg"
   width="288.00595mm"
   height="290mm"
   viewBox="0 0 288.00595 237.35713"
   version="1.1"
   id="svg915">
  <defs
     id="defs909">
    <style
       id="style2">.cls-1{fill:#4378ff;}</style>
  </defs>
  <g
     id="layer1"
     transform="translate(51.776781,-25.619052)">
    <g
       id="g945"
       transform="translate(6.4256005,-12.095223)">
      <g
         id="g941"
         transform="matrix(0.26458333,0,0,0.26458333,-42.033506,70.837155)">
        <rect
           id="rect920"
           style="opacity:0.98999999;fill:none;fill-opacity:1;stroke:#000000;stroke-width:5.6692915;stroke-miterlimit:4;stroke-dasharray:none;stroke-opacity:0"
           width="964.08887"
           height="619.91113"
           x="2.8346457"
           y="2.8346457"
           ry="42.857101" />
        <path
           id="path922"
           class="cls-1"
           d="m 314.28576,291.2302 a 31.79,31.79 0 0 1 15.66,3.8 27.51,27.51 0 0 1 10.79,10.74 32,32 0 0 1 3.92,16 32.3,32.3 0 0 1 -3.92,16.06 27.4,27.4 0 0 1 -10.79,10.8 31.79,31.79 0 0 1 -15.61,3.8 q -12.09,0 -19.14,-8.05 v 29 h -14 v -81.48 h 13.31 v 7.83 a 21.73,21.73 0 0 1 8.53,-6.34 29.06,29.06 0 0 1 11.25,-2.16 z m -1.57,49.23 a 16.91,16.91 0 0 0 12.7,-5.15 q 5,-5.15 5,-13.54 0,-8.39 -5,-13.54 a 16.94,16.94 0 0 0 -12.7,-5.14 17.94,17.94 0 0 0 -9.06,2.3 16.56,16.56 0 0 0 -6.38,6.55 21.8,21.8 0 0 0 0,19.69 16.56,16.56 0 0 0 6.38,6.55 18,18 0 0 0 9.06,2.28 z"
           style="opacity:0.98999999;fill:#4378ff;stroke:#000000;stroke-opacity:0"/>
        <path
           id="path924"
           class="cls-1"
           d="m 357.94576,268.6302 h 14 v 83 h -14 z"
           style="opacity:0.98999999;fill:#4378ff;stroke:#000000;stroke-opacity:0"/>
        <path
           id="path926"
           class="cls-1"
           d="m 448.09576,291.9002 v 59.75 h -13.31 v -7.61 a 22.23,22.23 0 0 1 -8.39,6.21 27.12,27.12 0 0 1 -10.86,2.14 q -12,0 -18.85,-6.66 -6.85,-6.66 -6.88,-19.74 v -34.09 h 14 v 32.22 q 0,8.05 3.63,12 c 2.42,2.65 5.88,4 10.35,4 q 7.5,0 11.92,-4.64 4.42,-4.64 4.42,-13.37 v -30.21 z"
           style="opacity:0.98999999;fill:#4378ff;stroke:#000000;stroke-opacity:0"/>
        <path
           class="cls-1"
           d="m 541.86576,291.2302 q 11.29,0 17.9,6.54 6.61,6.54 6.6,19.62 v 34.24 h -14 v -32.43 q 0.01,-7.81 -3.42,-11.81 -3.43,-4 -10,-4 a 14.57,14.57 0 0 0 -11.3,4.65 q -4.26,4.63 -4.26,13.26 v 30.32 h -14 v -32.42 q 0.03,-7.81 -3.44,-11.81 -3.47,-4 -10,-4 -7.16,0 -11.35,4.59 -4.19,4.59 -4.2,13.32 v 30.32 h -14 v -59.72 h 13.32 v 7.61 a 21.73,21.73 0 0 1 8.44,-6.12 28.65,28.65 0 0 1 11.19,-2.12 27,27 0 0 1 11.92,2.52 19.25,19.25 0 0 1 8.22,7.44 24.78,24.78 0 0 1 9.51,-7.33 31,31 0 0 1 12.87,-2.67 z"
           id="path12"
           style="opacity:0.98999999;fill:#4378ff;stroke:#000000;stroke-opacity:0"/>
        <path
           id="path929"
           class="cls-1"
           d="m 640.43576,322.1102 c 0,1 -0.08,2.35 -0.22,4.14 h -46.89 a 16.24,16.24 0 0 0 6.44,10.46 21.1,21.1 0 0 0 12.92,3.86 21.76,21.76 0 0 0 16.26,-6.49 l 7.5,8.62 a 25.19,25.19 0 0 1 -10.18,7.27 40.34,40.34 0 0 1 -31.22,-1.46 28.1,28.1 0 0 1 -11.58,-10.9 30.86,30.86 0 0 1 -4.08,-15.84 31.28,31.28 0 0 1 4,-15.72 28.26,28.26 0 0 1 11,-10.91 32.18,32.18 0 0 1 15.89,-3.91 31.39,31.39 0 0 1 15.61,3.86 27.28,27.28 0 0 1 10.74,10.85 32.94,32.94 0 0 1 3.81,16.17 z m -30.21,-19.72 a 16.53,16.53 0 0 0 -17,14.54 h 33.91 a 16.35,16.35 0 0 0 -16.91,-14.54 z"
           style="opacity:0.98999999;fill:#4378ff;stroke:#000000;stroke-opacity:0"/>
        <path
           id="path931"
           class="cls-1"
           d="m 684.74576,268.6302 h 14 v 83 h -14 z"
           style="opacity:0.98999999;fill:#4378ff;stroke:#000000;stroke-opacity:0"/>
        <path
           id="path933"
           class="cls-1"
           d="m 775.48576,291.9002 v 59.75 h -13.32 v -7.72 a 21.73,21.73 0 0 1 -8.56,6.38 29,29 0 0 1 -11.24,2.08 31.79,31.79 0 0 1 -15.61,-3.8 27.07,27.07 0 0 1 -10.74,-10.74 32.56,32.56 0 0 1 -3.86,-16.12 32.21,32.21 0 0 1 3.86,-16 27.14,27.14 0 0 1 10.74,-10.69 31.79,31.79 0 0 1 15.61,-3.8 27.68,27.68 0 0 1 10.68,2 23.45,23.45 0 0 1 8.45,5.93 v -7.27 z m -31.54,48.56 a 17.11,17.11 0 0 0 12.76,-5.15 q 5,-5.15 5,-13.54 0,-8.39 -5,-13.54 a 17.14,17.14 0 0 0 -12.76,-5.14 17,17 0 0 0 -12.7,5.14 q -5,5.16 -5,13.54 0,8.38 5,13.54 a 16.93,16.93 0 0 0 12.7,5.15 z"
           style="opacity:0.98999999;fill:#4378ff;stroke:#000000;stroke-opacity:0"/>
        <path
           id="path935"
           class="cls-1"
           d="m 826.94576,291.2302 a 31.79,31.79 0 0 1 15.61,3.8 27.47,27.47 0 0 1 10.8,10.74 32,32 0 0 1 3.92,16 32.3,32.3 0 0 1 -3.92,16.06 27.36,27.36 0 0 1 -10.8,10.8 31.79,31.79 0 0 1 -15.61,3.76 29,29 0 0 1 -11.24,-2.12 21.66,21.66 0 0 1 -8.56,-6.38 v 7.72 h -13.32 v -83 h 14 v 30.56 a 23.45,23.45 0 0 1 8.45,-5.93 27.68,27.68 0 0 1 10.67,-2.01 z m -1.56,49.23 a 16.93,16.93 0 0 0 12.7,-5.15 q 5,-5.15 5,-13.54 0,-8.39 -5,-13.54 a 17,17 0 0 0 -12.7,-5.14 18,18 0 0 0 -9.07,2.3 16.53,16.53 0 0 0 -6.37,6.54 21.8,21.8 0 0 0 0,19.69 16.53,16.53 0 0 0 6.37,6.55 18.11,18.11 0 0 0 9.07,2.29 z"
           style="opacity:0.98999999;fill:#4378ff;stroke:#000000;stroke-opacity:0"/>
        <path
           id="path937"
           class="cls-1"
           d="m 894.08576,352.3902 a 53.38,53.38 0 0 1 -14.21,-1.9 35.75,35.75 0 0 1 -11.08,-4.81 l 5.37,-10.63 a 34.52,34.52 0 0 0 9.68,4.34 40.3,40.3 0 0 0 11.1,1.63 q 12.53,0 12.53,-6.6 a 4.43,4.43 0 0 0 -3.19,-4.37 55.54,55.54 0 0 0 -10.24,-2.35 82.54,82.54 0 0 1 -12,-2.57 18.48,18.48 0 0 1 -8.05,-5.09 q -3.42,-3.63 -3.42,-10.13 a 15.91,15.91 0 0 1 7.11,-13.59 q 7.1,-5.09 19.19,-5.09 a 55.61,55.61 0 0 1 12.31,1.4 34.28,34.28 0 0 1 10.07,3.76 l -5.31,10.61 a 33.21,33.21 0 0 0 -17.12,-4.47 c -4.11,0 -7.22,0.61 -9.35,1.85 -2.13,1.24 -3.19,2.85 -3.19,4.86 a 4.86,4.86 0 0 0 3.42,4.76 54.29,54.29 0 0 0 10.57,2.63 81,81 0 0 1 11.67,2.57 18.4,18.4 0 0 1 7.89,4.92 q 3.3,3.48 3.3,9.85 0,8.39 -7.27,13.43 -7.27,5.04 -19.78,4.99 z"
           style="opacity:0.98999999;fill:#4378ff;stroke:#000000;stroke-opacity:0"/>
        <path
           id="path939"
           class="cls-1"
           d="m 177.42576,373.3902 h -65.73 a 69,69 0 1 1 66.11,-88.59 44.3,44.3 0 0 1 -0.38,88.59 z m -65.73,-128.3 a 59.3,59.3 0 0 0 0,118.6 h 65.73 a 34.63,34.63 0 0 0 2.52,-69.17 69.22,69.22 0 0 1 -9.06,45.26 4.83,4.83 0 0 1 -5.92,2 29.34,29.34 0 0 1 -18.65,-27.39 29.73,29.73 0 0 1 21.72,-28.5 59.74,59.74 0 0 0 -19.25,-27.76 58.62,58.62 0 0 0 -37.09,-13.04 z m 58.59,50.21 a 20,20 0 0 0 -14.34,19.09 19.74,19.74 0 0 0 8.78,16.48 59.19,59.19 0 0 0 6.22,-26.48 59.8,59.8 0 0 0 -0.66,-9.09 z"
           style="opacity:0.98999999;fill:#4378ff;stroke:#000000;stroke-opacity:0"/>
      </g>
      <rect
         id="rect943"
         ry="13.943858"
         y="38.464275"
         x="-57.452381"
         height="235.85713"
         width="286.50595"
         style="opacity:0.98999999;fill:none;fill-opacity:1;stroke:#000000;stroke-width:1.5;stroke-miterlimit:4;stroke-dasharray:none;stroke-opacity:0" />
    </g>
  </g>
</svg>
