<?xml version="1.0" encoding="UTF-8" standalone="no"?>
<svg
   xmlns:svg="http://www.w3.org/2000/svg"
   xmlns="http://www.w3.org/2000/svg"
   width="153.58041"
   height="123.24708"
   version="1.1"
   id="svg16">
  <g
     id="g14"
     style="fill:none;fill-rule:evenodd"
     transform="translate(11.501313,39.967976)">
    <path
       d="M 0,40 H 130 V 0 H 0 Z"
       id="path2" />
    <path
       d="m 14.81,8.03 c 0,1.48 0.13,1.52 0.78,1.6 l 0.31,0.05 c 0.1,0.1 0.09,0.35 -0.03,0.4 a 42.2,42.2 0 0 0 -3.73,0 c -0.12,-0.06 -0.13,-0.3 -0.03,-0.4 l 0.3,-0.05 C 13.07,9.55 13.2,9.51 13.2,8.03 V 2.84 c 0,-1.48 -0.13,-1.52 -0.78,-1.6 L 12.11,1.2 C 12.01,1.1 12.02,0.85 12.14,0.8 a 41.28,41.28 0 0 0 3.73,0 C 15.99,0.85 16,1.1 15.9,1.2 l -0.3,0.04 c -0.66,0.08 -0.79,0.12 -0.79,1.6 z M 29.51,6.5 h 2.44 L 31.51,2.87 h -0.03 z m 1.33,-5.6 h 2.06 l 1.52,9.14 H 32.43 L 32.13,8 h -3.41 l -1.16,2.04 h -2.12 z m 7.64,1.5 H 36.65 L 37,0.9 h 1.83 l -0.34,1.5 z m -2.03,1.02 h 1.83 l -1.4,6.62 h -1.84 l 1.4,-6.62 z m 3.29,0 h 1.73 l -0.27,1.19 0.02,0.03 c 0.41,-0.91 1.31,-1.4 2.28,-1.4 0.2,0 0.37,0.01 0.57,0.04 L 43.7,5.04 C 43.44,4.99 43.18,4.93 42.93,4.93 c -1.4,0 -1.9,1.05 -2.14,2.18 l -0.62,2.93 h -1.81 z"
       id="path4"

       style="fill:#4e8abe" />
    <path
       d="m 18.1,5.16 c 0,1.92 0.82,4.54 3.2,4.54 1.6,0 2.88,-1.18 2.88,-3.98 0,-2.11 -0.95,-4.55 -3.17,-4.55 -1.4,0 -2.91,1.02 -2.91,3.99 m 7.98,0.3 a 4.61,4.61 0 0 1 -3.16,4.5 c -0.08,0.06 -0.02,0.18 0.13,0.3 0.8,0.7 2.04,1.8 3.08,2.1 0.34,0.1 0.67,0.16 1,0.16 0.29,0 0.52,-0.07 0.7,-0.14 0.09,0.04 0.13,0.2 0.09,0.28 -0.42,0.32 -1.15,0.43 -1.75,0.43 -1.86,0 -3.79,-1.11 -5.16,-2.56 -0.25,-0.25 -0.34,-0.3 -0.51,-0.31 a 4.63,4.63 0 0 1 -4.3,-4.66 4.8,4.8 0 0 1 5,-4.95 c 3.22,0 4.88,2.34 4.88,4.86"
       id="path6"

       style="fill:#4e8abe" />
    <path
       d="m 9.18,9.33 a 0.7,0.7 0 0 1 -0.7,0.7 H 0.7 A 0.7,0.7 0 0 1 0,9.33 V 1.55 a 0.7,0.7 0 0 1 0.7,-0.7 h 7.78 a 0.7,0.7 0 0 1 0.7,0.7 z"
       id="path8"

       style="fill:#d9272e" />
    <path
       d="m 5.6,4.53 v -2 H 3.65 v 2 h -2 v 1.93 h 2 v 2 H 5.6 v -2 h 2 V 4.53 Z"
       id="path10"

       style="fill:#ffffff" />
    <path
       d="m 13.66,30.58 -2.8,-8.13 H 10.8 l -2.88,8.13 z m -0.28,-13.6 8.29,22.17 H 16.6 L 14.92,34.22 H 6.64 L 4.91,39.15 H 0 L 8.37,17 h 5 z M 23.5,39.16 h 4.4 V 23.1 h -4.4 v 16.05 z m 0,-18.53 h 4.4 V 17 h -4.4 z m 12.38,2.48 v 2.98 h 0.07 a 5.4,5.4 0 0 1 0.83,-1.38 5.51,5.51 0 0 1 1.22,-1.09 5.92,5.92 0 0 1 1.46,-0.7 5.28,5.28 0 0 1 1.6,-0.25 c 0.3,0 0.62,0.05 0.97,0.15 v 4.1 a 8.2,8.2 0 0 0 -0.74,-0.1 7.88,7.88 0 0 0 -0.84,-0.05 c -0.8,0 -1.5,0.13 -2.05,0.4 a 3.57,3.57 0 0 0 -1.35,1.1 4.41,4.41 0 0 0 -0.73,1.63 8.87,8.87 0 0 0 -0.22,2.02 v 7.23 H 31.7 V 23.1 h 4.19 z M 49.51,39.16 42.34,17 h 5 l 4.93,15.58 h 0.07 l 5,-15.58 h 5.02 l -7.35,22.16 z m 14.56,0 h 4.4 V 23.1 h -4.4 v 16.05 z m 0,-18.53 h 4.4 V 17 h -4.4 z m 11.75,14.54 c 0.2,0.35 0.45,0.62 0.76,0.84 0.31,0.22 0.67,0.38 1.07,0.48 a 5.01,5.01 0 0 0 1.26,0.16 c 0.3,0 0.63,-0.04 0.98,-0.11 0.34,-0.07 0.65,-0.19 0.93,-0.34 0.28,-0.16 0.5,-0.37 0.7,-0.62 0.18,-0.26 0.27,-0.59 0.27,-0.98 0,-0.66 -0.43,-1.16 -1.31,-1.5 -0.88,-0.32 -2.11,-0.65 -3.68,-0.99 a 21.22,21.22 0 0 1 -1.88,-0.5 6.42,6.42 0 0 1 -1.63,-0.78 3.75,3.75 0 0 1 -1.15,-1.21 3.42,3.42 0 0 1 -0.43,-1.79 c 0,-1.03 0.2,-1.88 0.6,-2.54 a 4.46,4.46 0 0 1 1.6,-1.57 7.02,7.02 0 0 1 2.24,-0.8 13.8,13.8 0 0 1 2.54,-0.24 c 0.87,0 1.71,0.08 2.53,0.25 a 6.7,6.7 0 0 1 2.19,0.83 5.02,5.02 0 0 1 1.6,1.57 c 0.42,0.66 0.68,1.48 0.76,2.47 h -4.2 c -0.05,-0.85 -0.38,-1.42 -0.95,-1.72 a 4.4,4.4 0 0 0 -2.05,-0.45 c -0.25,0 -0.52,0.01 -0.81,0.04 -0.3,0.03 -0.56,0.1 -0.8,0.2 a 1.63,1.63 0 0 0 -0.6,0.46 c -0.16,0.2 -0.25,0.46 -0.25,0.79 0,0.4 0.15,0.71 0.44,0.96 0.29,0.25 0.67,0.45 1.13,0.6 0.47,0.16 1,0.3 1.6,0.43 0.6,0.12 1.21,0.25 1.83,0.4 a 18.57,18.57 0 0 1 1.88,0.53 6.19,6.19 0 0 1 1.63,0.82 4,4 0 0 1 1.15,1.27 c 0.29,0.5 0.43,1.13 0.43,1.88 0,1.06 -0.21,1.94 -0.63,2.65 a 5.1,5.1 0 0 1 -1.66,1.73 6.8,6.8 0 0 1 -2.35,0.91 13.66,13.66 0 0 1 -5.42,-0.01 7.2,7.2 0 0 1 -2.37,-0.93 5.33,5.33 0 0 1 -1.7,-1.73 5.4,5.4 0 0 1 -0.74,-2.68 h 4.2 c 0,0.47 0.1,0.88 0.29,1.22 m 23.98,4 v -2.24 h -0.1 a 4.97,4.97 0 0 1 -2.17,2.01 c -0.89,0.42 -1.8,0.63 -2.73,0.63 A 7.7,7.7 0 0 1 91.9,39.1 4.18,4.18 0 0 1 90.11,37.78 5.15,5.15 0 0 1 89.2,35.7 12.93,12.93 0 0 1 88.93,32.99 V 23.1 h 4.41 v 9.07 c 0,1.32 0.2,2.31 0.62,2.96 0.42,0.65 1.15,0.98 2.2,0.98 1.2,0 2.08,-0.36 2.61,-1.07 0.54,-0.71 0.81,-1.89 0.81,-3.52 V 23.1 h 4.4 V 39.15 H 99.8 Z m 17.69,-7.86 a 2,2 0 0 1 -0.7,0.39 c -0.28,0.09 -0.58,0.17 -0.9,0.23 a 13.18,13.18 0 0 1 -1,0.15 l -1.06,0.16 a 7.87,7.87 0 0 0 -0.98,0.25 c -0.32,0.1 -0.6,0.24 -0.84,0.42 a 2,2 0 0 0 -0.57,0.66 c -0.15,0.27 -0.22,0.61 -0.22,1.03 0,0.4 0.07,0.72 0.22,1 0.14,0.26 0.34,0.47 0.59,0.63 0.25,0.15 0.54,0.26 0.87,0.32 0.33,0.07 0.67,0.1 1.02,0.1 a 3.9,3.9 0 0 0 2.02,-0.44 2.9,2.9 0 0 0 1.05,-1.04 3.32,3.32 0 0 0 0.42,-1.22 c 0.06,-0.42 0.08,-0.75 0.08,-1 V 31.3 Z m -10.18,-3.26 c 0.06,-1.03 0.32,-1.9 0.78,-2.58 a 5.28,5.28 0 0 1 1.73,-1.64 7.54,7.54 0 0 1 2.38,-0.89 13.48,13.48 0 0 1 2.65,-0.26 c 0.8,0 1.63,0.06 2.46,0.17 a 7.49,7.49 0 0 1 2.26,0.67 4.47,4.47 0 0 1 1.68,1.38 c 0.43,0.59 0.65,1.37 0.65,2.34 v 8.35 c 0,0.73 0.04,1.42 0.12,2.08 0.09,0.66 0.23,1.16 0.44,1.5 h -4.47 a 6.16,6.16 0 0 1 -0.2,-0.77 6.65,6.65 0 0 1 -0.11,-0.79 5.75,5.75 0 0 1 -2.49,1.52 10,10 0 0 1 -2.91,0.44 7.9,7.9 0 0 1 -2.15,-0.28 4.9,4.9 0 0 1 -1.73,-0.87 4.03,4.03 0 0 1 -1.17,-1.5 5.03,5.03 0 0 1 -0.42,-2.13 c 0,-0.91 0.16,-1.66 0.48,-2.25 a 4.02,4.02 0 0 1 1.25,-1.42 5.6,5.6 0 0 1 1.73,-0.79 18.93,18.93 0 0 1 1.97,-0.42 33.12,33.12 0 0 1 1.96,-0.25 11.79,11.79 0 0 0 1.7,-0.28 c 0.5,-0.12 0.9,-0.3 1.19,-0.54 0.29,-0.24 0.42,-0.58 0.4,-1.04 0,-0.47 -0.08,-0.85 -0.23,-1.13 a 1.7,1.7 0 0 0 -0.62,-0.65 2.45,2.45 0 0 0 -0.9,-0.31 7.6,7.6 0 0 0 -1.1,-0.08 c -0.88,0 -1.56,0.18 -2.06,0.56 -0.49,0.37 -0.78,0.99 -0.86,1.86 z m 18.28,11.11 H 130 V 17 h -4.4 z"
       id="path12"

       style="fill:#4e8abe" />
  </g>
  <rect
     style="opacity:0.98999999;fill:none;fill-opacity:1;stroke:#000000;stroke-width:7.48683643;stroke-miterlimit:4;stroke-dasharray:none;stroke-opacity:0"
     id="rect829"
     width="134.24911"
     height="108.24913"
     x="6.3434186"
     y="15.01008"
     ry="51.306454" />
  <rect
     style="opacity:0.98999999;fill:none;fill-opacity:1;stroke:#000000;stroke-width:5.6692915;stroke-miterlimit:4;stroke-dasharray:none;stroke-opacity:0"
     id="rect831"
     width="147.91112"
     height="117.57779"
     x="2.8346457"
     y="2.8346457"
     ry="52.70118" />
</svg>
