<svg id="Layer_1" data-name="Layer 1" xmlns="http://www.w3.org/2000/svg" viewBox="0 0 40 40"><defs><style>.cls-1{fill:#fff;}.cls-2{fill:#03529a;}</style></defs><title>ISSA Icons 40px</title><rect class="cls-1" x="2.91" y="1.9" width="34.18" height="36.19"/><path class="cls-2" d="M37.09,39.1H2.91a1,1,0,0,1-1-1V1.9a1,1,0,0,1,1-1H37.09a1,1,0,0,1,1,1V38.1A1,1,0,0,1,37.09,39.1Zm-33.18-2H36.09V2.9H3.91V37.1Z"/><path class="cls-2" d="M31.51,10.56H19a1,1,0,1,1,0-2H31.51A1,1,0,1,1,31.51,10.56Z"/><path class="cls-2" d="M31.51,16.13H19a1,1,0,0,1,0-2H31.51A1,1,0,0,1,31.51,16.13Z"/><path class="cls-2" d="M31.51,21.7H19a1,1,0,0,1,0-2H31.51A1,1,0,0,1,31.51,21.7Z"/><path class="cls-2" d="M31.51,27.26H19a1,1,0,0,1,0-2H31.51A1,1,0,0,1,31.51,27.26Z"/><path class="cls-2" d="M27.32,32.83H19a1,1,0,0,1,0-2h8.37A1,1,0,1,1,27.32,32.83Z"/><path class="cls-2" d="M14.07,14H8.49a1,1,0,0,1-1-1V7.47a1,1,0,0,1,1-1h5.58a1,1,0,0,1,1,1V13A1,1,0,0,1,14.07,14ZM9.49,12h3.58V8.47H9.49V12Z"/><path class="cls-2" d="M14.07,23.78H8.49a1,1,0,0,1-1-1V17.22a1,1,0,0,1,1-1h5.58a1,1,0,0,1,1,1v5.57A1,1,0,0,1,14.07,23.78Zm-4.58-2h3.58V18.22H9.49v3.57Z"/><path class="cls-2" d="M14.07,33.53H8.49a1,1,0,0,1-1-1V27a1,1,0,0,1,1-1h5.58a1,1,0,0,1,1,1v5.57A1,1,0,0,1,14.07,33.53Zm-4.58-2h3.58V28H9.49v3.57Z"/></svg>