<?xml version="1.0" encoding="UTF-8"?>
<!DOCTYPE svg PUBLIC "-//W3C//DTD SVG 1.1//EN" "http://www.w3.org/Graphics/SVG/1.1/DTD/svg11.dtd">
<!-- Creator: CorelDRAW 2017 -->
<svg xmlns="http://www.w3.org/2000/svg" xml:space="preserve" width="50%" height="50%" version="1.1" style="shape-rendering:geometricPrecision; text-rendering:geometricPrecision; image-rendering:optimizeQuality; fill-rule:evenodd; clip-rule:evenodd"
viewBox="0 0 3327.04 2753.89"
 xmlns:xlink="http://www.w3.org/1999/xlink">
 <defs>
  <style type="text/css">
   <![CDATA[
    .str0 {stroke:#393185;stroke-width:10;stroke-miterlimit:22.9256}
    .fil0 {fill:#393185}
    .fil1 {fill:#FFED00;fill-rule:nonzero}
   ]]>
  </style>
 </defs>
 <g id="Слой_x0020_1">
  <metadata id="CorelCorpID_0Corel-Layer"/>
  <rect class="fil0 str0" x="5" y="5" width="3317.04" height="2743.89"/>
  <g id="_1885902569952">
   <path class="fil1" d="M2513.93 1947.57c0,-32.74 -11.73,-60.81 -35.17,-84.27 -23.46,-23.44 -51.54,-35.17 -84.27,-35.17 -33.8,0 -62.17,11.73 -85.07,35.17 -22.92,23.46 -34.36,51.54 -34.36,84.27 0,33.8 11.44,62.44 34.36,85.9 22.9,23.44 51.27,35.17 85.07,35.17 32.73,0 60.81,-11.73 84.27,-35.17 23.44,-23.46 35.17,-52.1 35.17,-85.9zm-119.44 -606.99c82.9,0 161.43,15.83 235.61,47.44 74.17,31.64 138.51,74.73 193.04,129.26 54.53,54.53 97.9,118.9 130.07,193.06 32.18,74.17 48.27,152.7 48.27,235.6l-58.9 0c0,-73.09 -13.65,-141.8 -40.91,-206.15 -27.27,-64.35 -64.08,-121.08 -110.43,-170.17 -46.36,-49.08 -101.16,-88.89 -164.43,-119.42 -63.27,-30.55 -130.88,-47.46 -202.88,-50.73l0 371.94c20.74,3.27 40.1,10.09 58.09,20.45 17.99,10.36 33.82,23.46 47.44,39.27 13.64,15.83 24.27,33.55 31.9,53.45 7.66,19.64 11.46,40.35 11.46,62.17 0,44.72 -14.46,83.44 -43.36,116.17 -28.89,32.99 -64.08,53.16 -105.53,60.8l0 430.84 -58.9 0 0 -430.84c-42.53,-7.64 -77.97,-27.81 -106.34,-60.8 -28.35,-32.73 -42.53,-71.46 -42.53,-116.17 0,-44.72 14.19,-83.71 42.53,-116.43 28.37,-32.74 63.81,-52.37 106.34,-58.9l0 -371.94c-71.98,3.27 -139.6,20.18 -202.86,50.73 -63.27,30.53 -118.36,70.34 -165.26,119.42 -46.9,49.09 -83.71,105.82 -110.43,170.17 -26.73,64.35 -40.08,133.06 -40.08,206.15l-58.9 0c0,-82.9 15.81,-161.43 47.44,-235.6 31.64,-74.17 75,-138.53 130.07,-193.06 55.09,-54.53 119.44,-97.62 193.06,-129.26 73.62,-31.62 152.43,-47.44 236.41,-47.44z"/>
   <path class="fil1" d="M1565.02 1826.49c-33.8,0 -62.44,11.73 -85.9,35.46 -23.44,23.44 -35.17,52.35 -35.17,86.43 0,34.09 11.73,63 35.17,86.44 23.46,23.73 52.1,35.46 85.9,35.46 33.82,0 62.72,-11.73 86.72,-35.46 24,-23.44 35.98,-52.35 35.98,-86.44 0,-34.09 -11.98,-63 -35.98,-86.43 -24,-23.73 -52.91,-35.46 -86.72,-35.46zm-0.55 302.68c-45.8,0 -85.06,-14.45 -118.07,-43.36 -32.72,-28.91 -52.89,-65.18 -60.54,-108.79l-334.57 0c3.27,72.25 19.9,139.88 49.89,202.59 30.01,63 69.55,118.07 118.63,164.97 49.08,47.19 106.07,84 170.96,111 64.91,26.73 133.89,40.08 206.97,40.08l0 58.9c-83.98,0 -162.8,-16.1 -236.42,-48.27 -73.63,-32.18 -137.97,-75.52 -193.04,-130.07 -55.1,-54.53 -98.17,-118.61 -129.26,-192.23 -31.1,-73.63 -46.63,-152.43 -46.63,-236.41 0,-82.9 15.54,-161.43 46.63,-235.61 31.09,-74.17 74.16,-138.51 129.26,-193.05 55.07,-54.53 119.42,-97.89 193.04,-130.07 73.62,-32.18 152.44,-48.27 236.42,-48.27l0 58.9c-73.08,0 -142.07,13.37 -206.97,40.08 -64.89,27 -121.88,63.81 -170.96,111 -49.09,46.9 -88.62,101.97 -118.63,164.97 -29.99,62.73 -46.63,130.34 -49.89,202.61l334.57 0c7.65,-43.09 27.83,-79.09 60.54,-107.71 33.01,-28.64 72.27,-42.82 118.07,-42.82 25.38,0 48.82,4.91 70.63,14.73 21.82,9.82 40.91,22.63 57.53,39 16.37,16.37 29.45,35.46 39.27,56.99 9.82,21.82 14.73,45.01 14.73,70.09 0,25.09 -4.91,48.27 -14.73,70.07 -9.82,21.55 -22.9,40.64 -39.27,57.01 -16.62,16.35 -35.71,29.18 -57.53,39 -21.82,9.82 -45.26,14.72 -70.63,14.72z"/>
   <path class="fil1" d="M385.43 2242.06c0,-33.82 -11.73,-62.46 -35.19,-85.9 -23.44,-23.46 -52.08,-35.19 -85.89,-35.19 -33.8,0 -62.44,11.73 -85.9,35.19 -23.44,23.44 -35.17,52.08 -35.17,85.9 0,32.72 11.73,60.79 35.17,84.25 23.46,23.46 52.1,35.17 85.9,35.17 33.82,0 62.46,-11.71 85.89,-35.17 23.46,-23.46 35.19,-51.54 35.19,-84.25zm-121.08 -899.84c82.63,0 160.89,16.08 235.05,48.25 73.9,32.19 137.97,75.54 192.52,130.07 54.26,54.55 97.61,118.9 129.51,193.06 32.2,74.17 48.27,152.7 48.27,235.6 0,83.98 -15.81,162.51 -47.44,235.59 -31.63,73.08 -74.72,137.16 -129.26,192.25 -54.53,55.07 -118.88,98.44 -193.06,130.07 -74.16,31.64 -152.7,47.44 -235.59,47.44l0 -58.9c75.27,0 146.16,-14.45 212.7,-43.36 66.53,-28.89 124.35,-68.16 173.43,-117.24 49.09,-49.08 88.08,-106.9 116.97,-173.7 28.91,-66.53 43.37,-137.7 43.37,-212.97 0,-73.08 -13.36,-142.07 -40.08,-206.41 -26.73,-64.64 -63.54,-121.36 -110.43,-170.44 -46.9,-49.08 -101.72,-88.89 -164.43,-118.88 -62.73,-29.99 -130.07,-47.17 -202.07,-51.54l0 660.42c42.55,7.64 78.26,27.81 107.17,60.54 28.91,32.72 43.37,72.25 43.37,118.07 0,25.09 -4.64,48.55 -13.92,70.36 -9.28,21.8 -22.09,41.16 -38.46,57.53 -16.35,16.37 -35.44,29.18 -57.26,38.46 -21.82,9.26 -45.26,13.89 -70.36,13.89 -25.08,0 -48.52,-4.64 -70.34,-13.89 -21.82,-9.28 -40.91,-22.09 -57.28,-38.46 -16.35,-16.37 -29.18,-35.44 -38.43,-57.26 -9.28,-21.82 -13.92,-45.28 -13.92,-70.36 0,-45.82 14.46,-85.09 43.36,-117.8 28.89,-32.72 64.62,-52.91 107.15,-60.54l0 -719.86 29.45 0z"/>
  </g>
  <path class="fil1" d="M2842.72 819.08c37.1,0 72,-7.37 105.26,-22.09 33.01,-14.72 62.19,-34.36 87.27,-59.44 25.08,-25.09 44.45,-54.54 58.63,-88.08 14.18,-33.82 21.26,-70.09 21.26,-109.35 0,-38.17 -7.08,-73.9 -21.26,-107.69 -14.19,-33.55 -33.55,-63.27 -58.63,-88.91 -25.08,-25.63 -54.26,-45.53 -87.27,-60.26 -33.26,-14.72 -68.16,-22.09 -105.26,-22.09 -38.17,0 -73.33,7.37 -106.07,22.09 -32.45,14.73 -61.36,34.63 -86.44,60.26 -25.08,25.64 -44.45,55.36 -58.63,88.91 -14.19,33.8 -21.28,69.53 -21.28,107.69 0,39.27 7.1,75.54 21.28,109.35 14.18,33.55 33.55,63 58.63,88.08 25.08,25.08 53.99,44.72 86.44,59.44 32.74,14.73 67.9,22.09 106.07,22.09zm-0.81 -616.79c45.82,0 88.89,8.71 129.26,26.16 40.35,17.47 75.54,41.45 105.53,72 29.99,30.53 53.72,66.26 71.17,107.15 17.45,40.91 26.16,84.81 26.16,131.71 0,46.9 -8.72,90.8 -26.16,131.71 -17.45,40.91 -41.18,76.62 -71.17,107.17 -29.99,30.53 -65.18,54.8 -105.53,72.79 -40.37,18.01 -83.44,27 -129.26,27 -43.64,0 -84.52,-7.9 -122.71,-23.71 -38.17,-15.83 -71.98,-37.64 -101.43,-65.45 -29.45,-27.81 -53.72,-60.54 -72.81,-98.17 -19.09,-37.63 -30.26,-78.26 -33.55,-121.9l-86.71 0 0 845.85 -58.9 0 0 -1213.96 58.9 0 0 310.86 86.71 0c3.29,-43.63 14.46,-84.27 33.55,-121.89 19.09,-37.63 43.36,-70.36 72.81,-98.17 29.45,-27.81 63.27,-49.62 101.43,-65.45 38.19,-15.81 79.07,-23.71 122.71,-23.71z"/>
  <path class="fil1" d="M1575.61 1102.13c0,-33.82 -11.73,-62.46 -35.19,-85.9 -23.44,-23.46 -52.08,-35.19 -85.9,-35.19 -33.8,0 -62.44,11.73 -85.89,35.19 -23.44,23.44 -35.17,52.08 -35.17,85.9 0,32.72 11.73,60.79 35.17,84.25 23.46,23.46 52.1,35.17 85.89,35.17 33.82,0 62.46,-11.71 85.9,-35.17 23.46,-23.46 35.19,-51.54 35.19,-84.25zm-121.08 -899.84c82.63,0 160.89,16.08 235.05,48.25 73.9,32.19 137.97,75.54 192.52,130.07 54.26,54.55 97.61,118.9 129.51,193.06 32.19,74.17 48.27,152.7 48.27,235.59 0,83.98 -15.81,162.52 -47.44,235.6 -31.64,73.08 -74.73,137.16 -129.26,192.25 -54.53,55.07 -118.88,98.43 -193.06,130.07 -74.17,31.64 -152.7,47.44 -235.6,47.44l0 -58.9c75.27,0 146.17,-14.46 212.7,-43.36 66.53,-28.89 124.35,-68.16 173.43,-117.24 49.08,-49.09 88.08,-106.9 116.97,-173.7 28.91,-66.53 43.36,-137.7 43.36,-212.97 0,-73.08 -13.35,-142.07 -40.08,-206.42 -26.73,-64.64 -63.54,-121.35 -110.44,-170.43 -46.9,-49.08 -101.72,-88.89 -164.43,-118.88 -62.73,-29.99 -130.07,-47.17 -202.07,-51.54l0 660.42c42.55,7.63 78.26,27.81 107.17,60.54 28.91,32.72 43.36,72.25 43.36,118.07 0,25.09 -4.64,48.54 -13.92,70.36 -9.28,21.8 -22.09,41.16 -38.45,57.53 -16.35,16.37 -35.44,29.18 -57.26,38.46 -21.82,9.26 -45.26,13.89 -70.36,13.89 -25.08,0 -48.52,-4.64 -70.34,-13.89 -21.82,-9.28 -40.91,-22.09 -57.28,-38.46 -16.35,-16.37 -29.18,-35.44 -38.44,-57.26 -9.28,-21.82 -13.92,-45.28 -13.92,-70.36 0,-45.82 14.46,-85.08 43.37,-117.8 28.89,-32.72 64.62,-52.91 107.15,-60.54l0 -719.86 29.45 0z"/>
  <path class="fil1" d="M704.35 261.19c-37.08,0 -71.44,7.09 -103.61,21.26 -31.91,13.92 -60,33.55 -84,58.36 -24,25.08 -42.81,53.99 -56.99,87 -14.19,33.26 -21.28,68.71 -21.28,106.61 0,37.92 7.09,73.08 21.28,105.8 14.18,32.47 32.99,61.09 56.99,86.17 24,24.83 52.1,44.47 84,58.36 32.17,14.19 66.53,21.28 103.61,21.28 37.08,0 71.44,-7.09 103.62,-21.28 31.9,-13.89 59.98,-33.53 83.98,-58.36 24,-25.08 42.83,-53.7 56.99,-86.17 14.19,-32.72 21.28,-67.88 21.28,-105.8 0,-37.9 -7.1,-73.35 -21.28,-106.61 -14.16,-33.01 -32.99,-61.92 -56.99,-87 -24,-24.82 -52.08,-44.45 -83.98,-58.36 -32.18,-14.17 -66.54,-21.26 -103.62,-21.26zm-411.48 299.4l0 245.41c80.99,3.27 157.06,21.28 227.96,54.26 71.17,32.72 133.33,76.35 186.24,131.15 53.18,54.55 94.9,118.36 125.7,191.15 30.55,72.54 45.82,149.99 45.82,232.06l-58.9 0c0,-74.17 -13.91,-143.98 -41.72,-209.41 -27.83,-65.45 -65.45,-122.71 -112.89,-171.79 -47.46,-49.08 -103.07,-88.35 -166.88,-117.8 -63.81,-29.45 -132.25,-45.82 -205.33,-49.09l0 546.43 -58.9 0 0 -1212.32 58.9 0 0 304.31 86.71 0c3.29,-42.53 14.19,-82.34 32.74,-119.44 18.53,-37.09 42.26,-68.99 71.17,-95.71 28.91,-26.71 62.16,-47.98 99.79,-63.81 37.64,-15.81 77.72,-23.71 120.25,-23.71 44.74,0 87,8.71 126.8,26.16 39.81,17.47 74.44,41.18 103.89,71.17 29.45,30.01 52.64,65.18 69.55,105.53 16.91,40.37 25.35,83.44 25.35,129.26 0,45.82 -8.45,88.62 -25.35,128.45 -16.91,39.81 -40.1,74.71 -69.55,104.7 -29.45,29.99 -64.08,53.72 -103.89,71.17 -39.81,17.45 -82.07,26.19 -126.8,26.19 -42.53,0 -82.61,-8.18 -120.25,-24.27 -37.63,-16.37 -70.88,-37.9 -99.79,-64.62 -28.91,-27 -52.64,-58.9 -71.17,-95.98 -18.55,-37.1 -29.45,-76.91 -32.74,-119.44l-86.71 0z"/>
 </g>
</svg>
