<?xml version="1.0" encoding="UTF-8"?>
<!DOCTYPE svg PUBLIC "-//W3C//DTD SVG 1.1//EN" "http://www.w3.org/Graphics/SVG/1.1/DTD/svg11.dtd">
<!-- Creator: CorelDRAW 2017 -->
<svg xmlns="http://www.w3.org/2000/svg" xml:space="preserve" width="38.6985mm" height="23.3043mm" version="1.1" style="shape-rendering:geometricPrecision; text-rendering:geometricPrecision; image-rendering:optimizeQuality; fill-rule:evenodd; clip-rule:evenodd"
viewBox="0 0 1868.05 1124.94"
 xmlns:xlink="http://www.w3.org/1999/xlink">
 <defs>
  <style type="text/css">
   <![CDATA[
    .str1 {stroke:#00A0E3;stroke-width:36.2;stroke-miterlimit:22.9256}
    .str0 {stroke:#F77E29;stroke-width:36.2;stroke-miterlimit:22.9256}
    .fil2 {fill:none}
    .fil1 {fill:#EF7F1A}
    .fil0 {fill:#00A0E3}
   ]]>
  </style>
 </defs>
 <g id="Layer_x0020_1">
  <metadata id="CorelCorpID_0Corel-Layer"/>
  <g id="_1517397303232">
   <g>
    <path class="fil0" d="M1490.53 401.86c-204.41,0 -370.18,165.96 -370.18,370.7 0,163.78 106.07,302.7 253.18,351.72 18.52,3.41 25.27,-8.03 25.27,-17.86 0,-8.79 -0.31,-32.11 -0.5,-63.04 -102.97,22.39 -124.71,-49.7 -124.71,-49.7 -16.84,-42.83 -41.11,-54.22 -41.11,-54.22 -33.62,-22.98 2.54,-22.54 2.54,-22.54 37.16,2.63 56.71,38.21 56.71,38.21 33.03,56.64 86.66,40.28 107.75,30.79 3.36,-23.94 12.94,-40.27 23.51,-49.54 -82.21,-9.36 -168.65,-41.17 -168.65,-183.21 0,-40.46 14.43,-73.58 38.12,-99.47 -3.82,-9.37 -16.51,-47.08 3.64,-98.1 0,0 31.06,-9.97 101.8,38 29.52,-8.23 61.2,-12.33 92.67,-12.49 31.45,0.15 63.12,4.26 92.69,12.49 70.68,-47.97 101.71,-38 101.71,-38 20.2,51.02 7.5,88.73 3.7,98.1 23.73,25.89 38.04,59.01 38.04,99.47 0,142.41 -86.57,173.74 -169.02,182.92 13.27,11.45 25.12,34.06 25.12,68.65 0,49.54 -0.46,89.53 -0.46,101.68 0,9.92 6.68,21.46 25.45,17.84 147,-49.13 252.98,-187.97 252.98,-351.7 0,-204.74 -165.77,-370.7 -370.25,-370.7z"/>
   </g>
  </g>
  <path class="fil1" d="M364.61 0l364.61 213.85 0 427.7 -364.61 213.85 -364.61 -213.85 0 -427.7 364.61 -213.85zm141.19 637.59c-23.91,-0.68 -34.42,-0.63 -46.61,-21.06l-9.49 0.28c-11.04,-0.5 -6.45,-0.27 -13.81,-0.65 -12.32,-0.46 -10.35,-12.43 -12.52,-18.71 -3.48,-21.39 4.6,-42.98 4.34,-64.37 -0.09,-7.62 -10.64,-34.55 -14.41,-44.18 -11.82,2.27 -23.7,2.71 -35.69,3.32 -27.63,-0.07 -55.06,-3.53 -82.31,-7.9 -5.35,22.38 -21.12,53.71 -8.09,76.44 15.84,23.52 26.94,30.03 44.17,31.45 17.18,1.42 21.11,21.25 16.9,28.35 -3.67,4.88 -10.16,5.77 -15.67,6.95l-11.03 0.54c-8.66,-0.31 -16.41,-2.7 -24.13,-6.38 -12.89,-7.33 -26.23,-22.61 -36.13,-33.57 2.3,4.4 3.67,12.95 1.61,16.9 -5.86,8.49 -31.18,8.42 -42.77,3.14 -13.16,-5.95 -44.98,-47.87 -49.9,-79.26 13.09,-25.26 32.16,-47.25 41.8,-74.74 -21.03,-13.7 -32.28,-35.99 -30.8,-61.21l0.54 -2.94c-20.69,3.94 -9.95,2.47 -32.21,4.2 -70.89,-0.21 -133.22,-49.26 -98.1,-125.46 2.27,-4.49 4.44,-8.6 8.31,-6.65 3.12,1.59 2.68,7.88 1.12,14.88 -20.08,91.07 77.99,91.76 138.27,74.91 5.95,-1.68 17.84,-12.94 26.1,-16.68 13.47,-6.08 28.11,-8.56 42.61,-10.36 36.09,-4.21 79.48,15.21 101.51,15.84 22.05,0.64 53.4,-5.38 72.64,-4.11 13.97,0.65 27.69,3.23 41.17,6.89 8.73,-43.37 9.36,-75.31 30.03,-82.73 12.12,1.96 21.47,18.84 28.4,27.85 14.12,-0.57 27.53,3.07 40.87,7.12 24.13,-3.49 44.39,-17.32 65.71,-28.08 -21.61,17.98 -24.55,47.28 -22.07,74.36 0.92,14.05 -2.96,29.31 -7.78,43.7 -9.01,23.43 -26.4,48.14 -46.58,46.88 -7.62,-0.25 -12.06,-4.64 -17.74,-9.36 -1.09,9.53 -5.41,18.04 -9.58,26.46 -9.62,18.7 -34.77,26.94 -58.05,46.89 -23.28,19.95 7.44,91.21 14.9,104.21 7.44,12.96 28.24,17.72 20.18,29.45 -2.47,3.88 -6.26,5.25 -10.3,6.75l-5.47 0.74 0.08 -0.1zm-267.96 -59.14l3.69 0.94c4.64,-1.81 13.97,1 18.91,2.36 -9.1,-8.75 -22.84,-21.65 -32.72,-29.8 -3.24,-9.82 -1.86,-19.78 -1.17,-29.8l0.14 -0.83c-3.89,8.06 -8.84,15.88 -11.5,24.36 -3.11,11.43 13.83,23.77 20.4,30.84l2.25 2 0 -0.06z"/>
  <path class="fil2 str0" d="M23.49 1009.77c169.88,1.13 318.77,-10.38 493.32,-67.85 123.46,-63.33 207.01,-123.46 284.18,-223.51 92.6,-112.82 129.91,-216.75 215,-325.49 102.71,-120.27 217.9,-196.86 346.96,-249.25 149.01,-53.22 345.91,-90.48 504.49,-95.8"/>
  <path class="fil2 str1" d="M25.17 1106.28c169.88,1.13 363.47,-12.77 538.02,-70.25 123.46,-63.33 207.01,-123.46 284.18,-223.51 92.6,-112.82 129.91,-216.75 215,-325.49 102.71,-120.27 217.9,-196.86 346.96,-249.25 149.01,-53.22 297.22,-87.28 455.8,-92.6"/>
 </g>
</svg>
