<svg xmlns="http://www.w3.org/2000/svg" viewBox="0 0 6434.38 7117.61" shape-rendering="geometricPrecision" text-rendering="geometricPrecision" image-rendering="optimizeQuality" fill-rule="evenodd" clip-rule="evenodd"><defs><style>.str0{stroke:#444656;stroke-width:176.39;stroke-miterlimit:10}.fil3{fill:none;fill-rule:nonzero}.fil1,.fil2,.fil4{fill:#2b2a29;fill-rule:nonzero}.fil1,.fil2{fill:#baa689}.fil1{fill:#444656}</style></defs><g id="Layer_x0020_1"><path fill="#fffef9" fill-rule="nonzero" d="M0 7117.61h6434.38V0H0z"/><path class="fil1" d="M1883.74 6137.32v560.73c0 15.44 5.66 27.06 16.82 34.85 7.79 5.05 11.61 11.01 11.61 17.89v20.18c0 6.88-3.82 10.24-11.61 10.24h-139.12c-6.57 0-9.78-3.21-9.78-9.48v-20.94c0-6.57 3.82-12.54 11.62-17.89 11.16-8.1 16.81-19.72 16.81-34.85v-560.73h-19.72c-14.82 0-25.68 5.5-32.71 16.51-7.03 11.16-13.45 35.47-19.11 73.07-.61 5.05-3.67 7.65-9.48 7.65h-17.42c-10.25 0-15.29-4.28-15.29-13v-130.4c0-10.24 4.74-15.28 14.37-15.28 5.96 0 16.51 1.22 31.8 3.51 24.46 3.83 42.8 5.66 55.34 5.66h158.52c7.95-1.22 17.89-2.9 29.51-5.04 17.88-2.76 27.66-4.13 29.5-4.13 8.1 0 12.08 3.67 12.08 11.16v134.52c0 8.72-3.83 13-11.62 13h-17.12c-6.88 0-11.01-1.99-12.39-5.81-1.37-3.98-3.51-13.61-6.57-29.2-5.35-25.68-10.85-42.5-16.36-50.29-5.65-7.95-15.59-11.93-29.65-11.93h-20.03z"/><path id="1" class="fil1" d="M2619.81 6123.56h157.15c17.89 0 29.81-6.88 35.77-20.63 2.75-6.27 7.19-9.33 13.45-9.33h18.04c3.52 0 5.35 1.53 5.35 4.89v104.87h-184.82l-9.47 183.9c24.15-10.09 46.16-15.13 65.88-15.13 35.01 0 64.05 8.56 87.44 25.53 23.24 17.12 41.28 40.36 53.97 69.71 12.69 29.5 19.11 64.97 19.11 106.55 0 72.61-15.29 127.49-45.87 164.49-30.72 37.14-72 55.64-123.82 55.64-41.89 0-75.06-10.39-99.67-31.34-24.61-20.94-37-47.23-37-78.88 0-17.73 5.51-33.17 16.51-46.62 11.01-13.46 24.62-20.18 40.67-20.18 13.76 0 25.22 4.74 34.39 14.37 9.33 9.63 13.91 21.86 13.91 36.84 0 18.65-8.71 32.71-26.29 42.19-5.66 3.36-8.56 6.42-8.56 9.02 0 5.5 5.96 12.08 17.89 19.87 11.77 7.8 25.53 11.62 41.12 11.62 28.58 0 48.61-12.53 59.77-37.76 11.31-25.22 16.97-65.58 16.97-121.38 0-106.09-30.27-159.13-90.81-159.13-23.08 0-45.86 7.64-68.33 22.77l-18.8-16.51 16.05-315.37z"/><path id="2" class="fil1" d="M3431.09 6139.16v262.32h29.65c11.62 0 19.72-2.6 24.31-7.8 4.58-5.19 9.32-15.59 14.22-31.33 3.51-11.62 5.96-18.2 7.33-19.88 1.38-1.68 4.89-2.44 10.55-2.44h19.72c7.8 0 11.62 3.51 11.62 10.7v154.24c0 7.49-3.21 11.16-9.48 11.16h-21.86c-5.04 0-8.41-.91-10.09-2.9-1.68-1.99-3.82-7.19-6.57-15.75-5.66-19.87-11.77-32.1-18.35-36.38-6.57-4.28-13.75-6.42-21.4-6.42h-29.65v243.22c0 15.59 5.65 27.21 16.81 35 7.8 5.05 11.62 11.01 11.62 17.89v20.18c0 6.88-3.82 10.24-11.62 10.24h-139.11c-6.57 0-9.78-3.21-9.78-9.48v-20.94c0-6.57 3.82-12.54 11.61-17.89 11.16-8.1 16.82-19.72 16.82-35v-530c0-15.29-5.81-26.91-17.58-35.01-7.8-5.05-11.77-11.01-11.77-17.89v-20.18c0-6.57 3.21-9.78 9.78-9.78h231.6c6.88 0 17.73-.46 32.71-1.53 8.11-.76 12.85-1.22 14.37-1.22 7.04 0 11.47.92 12.85 2.6 1.52 1.83 2.29 5.65 2.29 11.62v132.84c0 7.8-4.28 11.62-13 11.62h-17.58c-5.35 0-8.86-1.07-10.54-3.37-1.69-2.14-3.52-9.63-5.51-22.16-4.89-29.96-13.14-50.3-24.92-60.69-11.92-10.4-29.19-15.59-51.97-15.59h-47.08z"/><path id="3" class="fil1" d="M3732.56 6173.09l-4.28-30.42c-1.53-9.78-2.14-15.28-2.14-16.51 0-3.06 2.14-5.5 6.72-7.64l75.52-35.31c1.22-.62 2.45-.92 3.98-.92 4.12 0 6.88 2.75 8.1 8.1l122.6 607.05c1.99 11.16 4.59 18.95 7.8 23.84 3.05 4.74 9.17 9.79 18.19 15.14 6.88 4.13 10.24 9.02 10.24 14.37v19.72c0 7.18-2.75 10.7-8.41 10.7h-149.2c-8.1 0-12.08-3.52-12.08-10.7v-19.72c0-6.88 4.74-12.69 14.22-17.58 11.47-6.27 17.28-14.68 17.28-25.38 0-3.05-.31-6.57-.92-10.39l-18.96-93.25h-117.1l-18.49 89.73c-.92 3.98-1.38 6.73-1.38 8.56 0 8.87 6.88 18.8 20.49 29.51 8.71 7.18 13.14 13.45 13.14 18.8v19.72c0 7.18-4.28 10.7-12.99 10.7h-94.17c-10.55 0-15.75-3.52-15.75-10.7v-23.39c0-6.27 3.37-11.31 9.94-15.13 12.23-7.49 20.18-20.18 24.15-38.07l103.5-520.83zm30.72 143.85l-47.23 229.46h93.55l-46.32-229.46z"/><path id="4" class="fil1" d="M4188.88 6455.6v242.45c0 15.44 5.65 27.06 16.81 34.85 7.8 5.05 11.62 11.01 11.62 17.89v20.18c0 6.88-3.82 10.24-11.62 10.24h-139.11c-6.57 0-9.78-3.21-9.78-9.48v-20.94c0-6.57 3.82-12.54 11.61-17.89 11.16-8.1 16.82-19.72 16.82-35v-530c0-15.29-5.66-26.76-16.82-34.55-7.79-5.05-11.61-11.16-11.61-18.35v-19.72c0-6.88 3.82-10.24 11.61-10.24h117.25c66.2 0 116.64 14.98 151.19 44.79 34.7 29.96 51.98 73.07 51.98 129.48 0 90.04-41.58 148.13-124.74 174.43 24.46 11.92 42.95 25.37 55.64 40.35 12.69 14.99 22.47 37.15 29.35 66.2l32.72 142.01c4.28 18.19 8.4 30.42 12.38 36.84 3.97 6.43 10.7 12.54 20.03 18.2 2.59 1.83 3.97 4.58 3.97 8.56v25.53c0 6.57-3.21 9.78-9.78 9.78h-89.28c-8.71 0-14.22-4.89-16.66-14.52l-60.54-246.28c-6.73-26.9-14.06-44.33-22.17-52.43-8.1-7.95-18.34-12.08-30.87-12.38zm0-316.44v263.24c32.4 0 56.25-10.24 71.54-30.58 15.29-20.33 22.93-56.4 22.93-108.38 0-50.91-7.8-84.23-23.24-100.28-15.44-16.05-39.13-24-71.23-24z"/><path id="5" class="fil1" d="M4521.82 6697.9v-530c0-15.29-5.66-26.76-16.82-34.55-7.79-5.05-11.61-11.16-11.61-18.35v-19.72c0-6.88 3.82-10.24 11.61-10.24h161.59l51.06 326.38 50.14-326.38h163.42c6.57 0 9.78 3.06 9.78 9.33V6115c0 6.88-3.82 13-11.62 18.35-11.16 8.1-16.81 19.56-16.81 34.55v530c0 15.59 5.8 27.21 17.27 35 7.49 5.05 11.16 11.01 11.16 17.89v20.18c0 6.88-3.82 10.24-11.62 10.24H4795.3c-6.26 0-9.32-3.21-9.32-9.48v-20.94c0-6.57 3.67-12.54 11.01-18.04 11.46-7.95 17.12-19.57 17.12-34.85v-543l-96.92 626.31h-35.62l-95.24-626.31v543c0 15.44 5.5 27.21 16.66 34.85 7.65 5.2 11.47 11.16 11.47 18.04v20.18c0 6.88-3.82 10.24-11.62 10.24h-99.67c-6.57 0-9.78-3.21-9.78-9.48v-20.94c0-6.57 3.82-12.54 11.61-17.89 11.16-8.1 16.82-19.72 16.82-35z"/><path id="6" class="fil1" d="M2397.69 6488.77l54.27-308.34c.92-4.89 1.38-9.63 1.38-14.37 0-14.37-6.88-24.46-20.49-30.42-10.24-4.74-15.44-11.01-15.44-18.8v-19.72c0-8.11 4.59-12.08 13.76-12.08h99.52c10.09 0 15.13 4.74 15.13 14.37v17.43c0 5.65-3.82 11-11.61 16.05-13.76 9.32-22.17 22.93-25.53 40.81l-108.08 602.31c-1.53 9.63-5.81 14.37-12.69 14.37h-19.87c-5.2 0-8.56-4.74-10.4-14.37l-73.68-400.82-71.55 400.82c-1.83 9.63-5.8 14.37-12.23 14.37h-19.26c-5.96 0-9.93-4.74-11.77-14.37l-114.96-615.3c-2.29-14.37-10.09-23.69-23.23-28.28-7.19-2.29-10.7-7.19-10.7-14.68v-21.09c0-7.8 4.28-11.62 12.99-11.62h130.7c5.66 0 8.57 2.45 8.57 7.18v27.22c0 4.89-2.91 8.4-8.57 10.85-10.7 4.74-16.2 13.15-16.2 25.07 0 3.52.46 7.95 1.38 13.3l59.62 320.11 47.08-265.84-11.47-62.22c-2.44-12.84-10.24-21.86-23.54-26.9-5.96-2.45-8.86-6.12-8.86-11.16v-28.59c0-5.96 2.75-9.02 8.1-9.02h138.96c6.57 0 9.78 3.06 9.78 9.02v16.05c0 7.49-.61 12.54-1.99 15.29-1.37 2.6-5.35 5.81-12.07 9.32-11.01 5.66-16.67 13.76-16.67 24.16 0 3.05.31 6.26.92 9.78l58.7 320.11z"/><path class="fil2" d="M5073.54 3188.91c-60.93-110.06-130.21-208.17-203.87-296.19 55.59-58.07 92.32-134.9 99.16-221.3 7.83-99.2-25.19-192.19-84.91-262.5-70.03 60.04-117.27 146.69-125.13 245.89-3.57 45.37 1.76 89.32 13.9 130.49a2035.485 2035.485 0 0 0-149.02-138.64c46.96-66.46 71.93-148.98 65.13-236.43-7.73-99.24-54.86-185.95-124.78-246.1-59.8 70.24-92.96 163.19-85.23 262.47 3.81 48.96 17.28 94.86 38.34 136.06-72.95-53.83-145.13-100.19-214.13-139.87 25.01-78.25 23.85-165.35-9.84-247.3-37.86-92.04-109.33-160.09-194.38-195.79-35.35 85.19-38.32 183.87-.43 275.9 12.98 31.65 30.2 60.22 50.34 85.87-196.85-94.4-338.8-128.59-338.8-128.59 115.64 43.01 221.89 95.89 319.4 155.4-25.93-7.23-52.88-11.96-80.93-13.23-99.44-4.48-191.27 31.68-259.54 93.74 62.41 67.94 150.61 112.21 250.02 116.73 95.67 4.3 184.08-29.25 251.42-87.03 61.32 46.46 118.57 95.14 171.66 145.24-30.55-11.26-63-18.88-97.04-21.52-99.24-7.73-192.2 25.43-262.44 85.23 60.12 69.96 146.87 117.09 246.1 124.81 86.86 6.78 168.95-17.81 235.16-64.13 64.91 71.61 122.42 143.9 172.86 214.1-62.44-32.28-134.83-46.85-209.9-37.61-98.78 12.17-183.3 63.15-240.24 135.72 72.88 56.58 167.22 85.51 265.99 73.37 89.4-11.04 166.9-54.04 223.03-115.85 183.87 270.86 261.55 496.01 261.55 496.01l16.55-324.95z"/><path class="fil1" d="M2809.62 3344.74c-3.11-11.72-5.15-23.89-5.15-36.34v-507.12c0-42.4 18.59-82.51 49.78-107.24l400.57-317.93c4.27-3.38 8.79-6.17 13.3-8.89H2209.16v4.7c-13.02 3.24-25.69 9.03-37.01 18.02l-400.54 317.89c-27.06 21.48-43.11 56.3-43.11 93.45v507.12c0 12.77 2.29 24.84 5.75 36.34h1075.37z"/><path class="fil1" d="M3779.86 2710.69l-371.12-304.94c-35.45-29.14-83.57-29.6-119.48-1.1l-400.51 317.89c-27.06 21.49-43.15 56.3-43.15 93.42v507.15c0 7.41.74 14.61 1.98 21.63h365.51v-213.15c0-80.37 65.16-145.52 145.52-145.52 80.36 0 145.52 65.15 145.52 145.52v213.15h313.27c2.47-9.92 4.23-20.15 4.23-30.94v-510.79c0-36.48-15.48-70.73-41.77-92.32zM1538.95 4075.9c14.11 53.24 29 106.47 45.51 159.74 40.88 122.2 141.78 257.78 260.63 365.09l3192.18-1180.78-3498.32 655.95zM5056.99 3513.86L2253.82 4814.13c390.81 107.35 781.58 150.91 1172.38 131.3l1700.71-1450.76c.07-.71-69.99 19.82-69.92 19.19z"/><path class="fil1" d="M5073.54 3318.28H1417.17c7.13 127.31 21.31 254.7 41.77 382.06l3614.6-382.06zM5063.41 3451.38c1.13-12.28 2.22-24.62 3.25-36.9l-26.74 4.97 23.49 31.93zM3856.7 4898.12c169.44-28.68 338.88-68.68 508.28-121.21 214.03-71.65 469.65-327.24 541.27-541.27 56.8-183.16 99.13-366.29 127.84-549.45L3856.7 4898.12z"/><path class="fil2" d="M5257.97 3840.25c-18.73 32.14-25.33 71.36-15.21 110.24 10.09 38.84 34.96 69.92 67.03 88.83 18.73-32.14 25.29-71.37 15.17-110.24-10.09-38.84-34.96-69.92-66.99-88.83zM5331.2 3715.51c-18.76 32.13-25.33 71.36-15.24 110.24 10.13 38.84 35.04 69.92 67.07 88.83 18.73-32.14 25.33-71.37 15.17-110.25-10.09-38.84-34.96-69.92-67-88.82zM5410.23 3580.85c-18.74 32.14-25.33 71.4-15.17 110.21 10.09 38.87 34.96 69.95 66.99 88.86 18.77-32.14 25.33-71.4 15.2-110.24-10.09-38.84-34.99-69.92-67.02-88.83zM5486.96 3450.15c-18.74 32.1-25.33 71.4-15.21 110.24 10.09 38.84 35 69.92 67.03 88.83 18.73-32.1 25.33-71.4 15.17-110.21-10.09-38.88-34.96-69.96-66.99-88.86zM5493.76 4047.93c-18.9 32.03-49.98 56.9-88.83 66.99-38.84 10.09-78.1 3.56-110.2-15.2 18.87-32.04 49.99-56.91 88.79-67.03 38.88-10.09 78.14-3.57 110.24 15.24zM5567.04 3923.15c-18.95 32.07-49.99 56.9-88.87 67.03-38.87 10.09-78.1 3.53-110.24-15.24 18.91-32.03 49.99-56.87 88.86-66.99 38.84-10.09 78.07-3.57 110.25 15.2zM5646.06 3788.49c-18.91 32.04-49.99 56.91-88.87 67.03-38.8 10.13-78.1 3.53-110.2-15.2 18.87-32.03 49.98-56.91 88.83-67.03 38.84-10.12 78.14-3.56 110.24 15.2zM5722.79 3657.79c-18.95 32.03-49.99 56.9-88.87 66.99-38.84 10.16-78.1 3.6-110.2-15.17 18.87-32.03 49.98-56.93 88.82-67.02 38.85-10.13 78.11-3.53 110.25 15.2zM1269.6 3840.25c18.74 32.14 25.33 71.36 15.21 110.24-10.09 38.84-34.96 69.92-67.03 88.83-18.77-32.14-25.29-71.37-15.2-110.24 10.12-38.84 34.99-69.92 67.02-88.83zM1196.37 3715.51c18.73 32.13 25.33 71.36 15.2 110.24-10.09 38.84-34.99 69.92-67.03 88.83-18.73-32.14-25.33-71.37-15.17-110.25 10.09-38.84 34.96-69.92 67-88.82zM1117.34 3580.85c18.74 32.14 25.3 71.4 15.17 110.21-10.09 38.87-34.96 69.95-66.99 88.86-18.77-32.14-25.33-71.4-15.24-110.24 10.13-38.84 35.03-69.92 67.06-88.83zM1040.62 3450.15c18.73 32.1 25.32 71.4 15.2 110.24-10.12 38.84-35 69.92-67.03 88.83-18.77-32.1-25.33-71.4-15.17-110.21 10.09-38.88 34.96-69.96 67-88.86zM1033.81 4047.93c18.91 32.03 49.99 56.9 88.79 66.99 38.88 10.09 78.14 3.56 110.24-15.2-18.91-32.04-49.98-56.91-88.83-67.03-38.84-10.09-78.1-3.57-110.2 15.24zM960.53 3923.15c18.95 32.07 49.99 56.9 88.87 67.03 38.84 10.09 78.1 3.53 110.21-15.24-18.88-32.03-49.99-56.87-88.83-66.99-38.84-10.09-78.07-3.57-110.25 15.2zM881.51 3788.49c18.88 32.04 49.99 56.91 88.83 67.03 38.84 10.13 78.14 3.53 110.24-15.2-18.9-32.03-49.98-56.91-88.86-67.03-38.81-10.12-78.1-3.56-110.21 15.2zM804.78 3657.79c18.95 32.03 49.99 56.9 88.83 66.99 38.88 10.16 78.14 3.6 110.25-15.17-18.91-32.03-49.99-56.93-88.87-67.02-38.8-10.13-78.07-3.53-110.21 15.2z"/><path class="fil3 str0" d="M5693.68 1465.52c341.28 1100.35 341.28 2200.63 0 3300.98-105.55 315.49-482.31 692.29-797.87 797.87-1100.28 341.29-2200.63 341.29-3300.91 0-315.52-105.58-692.29-482.38-797.88-797.87-341.28-1100.35-341.28-2200.63 0-3300.98 105.59-315.49 482.36-692.29 797.88-797.87 1100.28-341.28 2200.63-341.28 3300.91 0 315.56 105.58 692.32 482.38 797.87 797.87z"/><path class="fil3 str0" d="M4906.25 1996.38c231.53 746.41 231.53 1492.85 0 2239.26-71.62 214.03-327.24 469.62-541.27 541.27-746.41 231.49-1492.85 231.49-2239.26 0-214.06-71.65-469.65-327.24-541.26-541.27-231.53-746.41-231.53-1492.85 0-2239.26 71.65-214.03 327.23-469.61 541.26-541.26 746.41-231.5 1492.85-231.5 2239.26 0 214.03 71.65 469.65 327.23 541.27 541.26z"/><path class="fil1" d="M5279.77 6329.79l-116.42 116.42 116.42 116.42 116.42-116.42zM1188.75 6446.21l116.41 116.42 116.42-116.42-116.42-116.42z"/><path class="fil2" d="M1646.21 4904.11l-39.71-7.01c5.04-28.47 3.57-55.83-4.4-82.09-7.91-26.18-21.83-50.16-41.85-72-21.79-23.79-47.76-40.57-77.82-50.42-30.07-9.83-59.83-11.41-89.34-4.92-29.51 6.5-56.43 20.84-80.51 42.89-36.49 33.41-55.5 73.79-56.98 121.07-1.54 47.33 15.1 90.01 49.98 128.1 38.32 41.83 86.71 61.8 145.25 59.96l3.71 39.99c-32.61 2.43-64.34-2.69-95.08-15.49-30.72-12.81-58.73-32.94-83.89-60.41-47.91-52.3-68.32-109.53-61.13-171.61 6.16-52.19 30.05-97.41 71.6-135.47 43.7-40.03 94.56-58.44 152.48-55.11 58.04 3.35 108.17 28.12 150.48 74.31 25.55 27.89 43.14 58.08 52.76 90.6 9.56 32.59 11.06 65.14 4.45 97.61zm-6.8 20.31l33.5 20.95-23.24 37.17c19.15-8.44 36.46-12.7 52.04-12.95 15.52-.16 29.33 3.47 41.3 10.95 9.1 5.69 16.95 14.6 23.65 26.78l-34.24 16.77c-5.01-7.24-9.8-12.35-14.51-15.29-10.93-6.84-24.24-8.95-39.96-6.36-15.72 2.61-32.18 11.73-49.3 27.2-13.1 11.9-33.39 39.92-60.92 83.95l-53.72 85.91-33.5-20.95 158.9-254.13zm299.25 334.82l26.6 25.41c-16.02 17.03-32.5 29.84-49.49 38.28-16.97 8.36-34.76 13.46-53.42 15.07-18.75 1.59-38.64-.67-59.9-6.75-47.22-13.5-79.63-39.38-97.44-77.74-17.8-38.35-21.17-76.89-10.11-115.6 10.42-36.45 31.03-65.78 61.7-87.83 38.86-28.14 82.32-35.39 130.17-21.71 49.29 14.09 83.39 43.99 102.17 89.58 13.39 32.2 14.71 67.99 3.82 107.44l-260.49-74.45c-8.81 33.58-5.86 63.98 8.78 91.15 14.71 27.3 37.35 45.31 67.83 54.01 14.74 4.21 29.85 5.79 45.22 4.71 15.38-1.08 29.14-4.39 41.3-10 12.18-5.62 26.62-16.08 43.26-31.57zm22.55-77.51c.69-21.22-2.05-39.03-8.16-53.59-6.2-14.59-16.06-27.68-29.64-39.39-13.58-11.71-29.01-20.04-46.18-24.95-28.49-8.14-55.5-6.07-81.14 6.27-18.82 9-35.69 25.6-50.96 49.9l216.08 61.76zm443.12-24.88l-59.86 293.67-37.62-7.67 10.3-50.51c-19.78 16.03-40.43 26.9-62.1 32.46-21.6 5.59-44.14 5.99-67.46 1.24-41.48-8.46-73.9-30.72-97.19-66.76-23.26-36.14-30.48-75.62-21.68-118.76 8.58-42.13 30.79-75.23 66.58-99.14 35.69-23.93 74.42-31.69 116.19-23.18 24.05 4.91 44.77 14.42 62.25 28.54 17.38 14.1 31.4 32.9 41.96 56.46l11.01-54.02 37.62 7.67zm-157.34-1.54c-21.01-4.28-41.52-3.08-61.32 3.63-19.87 6.6-36.92 18.2-51.23 34.69-14.3 16.47-23.58 35.13-27.82 55.96-4.19 20.56-2.96 41.35 3.81 62.31s17.97 38.51 33.73 52.57c15.74 14.16 33.84 23.32 54.31 27.49 20.55 4.19 41.24 3.03 61.8-3.63 20.65-6.64 37.7-17.76 51.28-33.52 13.56-15.67 22.62-34.65 27.15-56.87 6.89-33.82 1.51-64.39-16.25-91.73-17.67-27.31-42.83-44.24-75.46-50.9zm309.89-88.68l37.93 5.83-16.98 110.46 60.25 9.27-5.06 32.91-60.25-9.26-40.49 263.31-37.94-5.83 40.49-263.32-51.88-7.97 5.06-32.92 51.88 7.98 16.99-110.46zm180.98 11.96c8.7.88 15.78 4.72 21.32 11.61 5.56 6.8 7.88 14.7 7 23.4-.87 8.61-4.72 15.79-11.52 21.34-6.81 5.65-14.52 7.99-23.22 7.11-8.61-.87-15.6-4.7-21.14-11.59-5.56-6.81-7.88-14.61-7.01-23.22.88-8.7 4.73-15.97 11.53-21.53 6.81-5.64 14.43-7.99 23.04-7.12zm-31.39 120.5l38.19 3.86-30.16 298.19-38.19-3.86 30.16-298.19zm130.63 17.83l38.35 1.52-2.13 53.68c16.32-19.88 34.04-34.52 53.14-43.84 19.21-9.32 39.8-13.58 61.89-12.7 22.46.89 42.17 7.32 59.1 19.38 16.94 12.07 29.21 27.9 36.72 47.5 7.51 19.49 10.46 49.64 8.84 90.35l-6.11 153.97-38.35-1.52 5.66-142.69c1.37-34.4.77-57.5-1.68-69.17-3.92-19.92-11.97-35.11-24.26-45.68-12.3-10.47-28.64-16.11-49.04-16.92-23.4-.93-44.67 5.95-63.71 20.64-19.12 14.58-32.1 33.17-38.83 55.68-4.25 14.72-7.21 41.71-8.77 81.1l-4.35 109.69-38.35-1.52 11.88-299.47zm613.12 9.33l38.36-1.18 7.34 238.45c1.29 41.94-1.43 72.8-8.17 92.49-9.22 27.76-26.05 49.46-50.61 65.08-24.46 15.63-54.23 23.98-89.2 25.06-25.67.79-48.82-2.17-69.55-8.78-20.62-6.71-37.57-15.97-50.83-27.9-13.17-11.83-25.57-29.51-37.11-52.78l41.75-1.28c11.99 19.58 27.11 33.89 45.46 42.93 18.26 9.03 40.79 13.14 67.39 12.32 26.33-.81 48.37-6.38 66.13-16.62 17.84-10.35 30.35-22.97 37.61-37.87 7.26-15 10.38-38.9 9.37-71.91l-.48-15.42c-13.92 18.79-31.25 33.44-51.92 43.86-20.57 10.51-42.71 16.09-66.22 16.81-27.54.85-53.61-5.22-78.29-18.11-24.68-12.89-43.96-30.74-57.93-53.36-13.96-22.73-21.33-47.92-22.18-75.56-.86-27.74 5.22-53.71 18.3-78.12 12.99-24.3 31.5-43.88 55.42-58.54 23.93-14.66 49.38-22.42 76.37-23.25 22.38-.69 43.49 3.28 63.14 11.81 19.65 8.51 38.83 23.17 57.45 43.97l-1.6-52.1zm-112.96 33.41c-21.81.67-41.96 6.57-60.34 17.67-18.39 11.11-32.61 26.12-42.67 45.07-10.05 18.94-14.79 39.23-14.12 60.95 1.01 32.82 12.84 59.56 35.51 80.41 22.66 20.76 51.58 30.61 86.55 29.53 35.45-1.09 63.61-12.59 84.5-34.51 20.87-22.01 30.83-50.26 29.76-84.96-.69-22.57-6.3-42.53-16.71-59.91-10.42-17.37-24.95-30.94-43.42-40.63-18.47-9.69-38.18-14.26-59.06-13.62zm518.74-35.88l-21.81 28.22c-22.71-17.51-43.93-25.16-63.47-22.95-12.43 1.4-22.62 6.72-30.57 15.95-7.97 9.14-11.36 19.27-10.13 30.2 1.09 9.63 5.78 18.48 14.04 26.33 8.31 8.16 24.91 16.89 49.65 26.31 30.07 11.48 51.03 23.59 62.86 36.07 11.56 12.72 18.37 27.76 20.33 45.05 2.76 24.49-3.52 46.12-18.8 65.08-15.29 18.86-35.82 29.79-61.63 32.7-17.2 1.94-33.98.04-50.52-5.66-16.46-5.72-30.53-14.55-42.29-26.56l21.03-30.11c22.03 19.85 44.12 28.53 66.08 26.05 15.33-1.73 27.86-8.16 37.59-19.19 9.65-11.03 13.76-23.24 12.27-36.52-1.24-10.93-5.89-20.26-13.97-28.05-8.14-7.6-25.41-16.35-51.9-26.24-28.48-10.79-48.34-22.38-59.49-34.75-11.24-12.36-17.83-27.15-19.78-44.43-2.55-22.53 3.1-42.1 16.84-58.8 13.84-16.61 32.53-26.3 56.18-28.97 27.49-3.1 56.64 6.97 87.49 30.27zm360.52 111.85l35 11.27c-6.99 22.32-16.23 41.03-27.85 56.04-11.63 14.92-25.42 27.26-41.51 36.85-16.18 9.6-35.07 16.23-56.86 20.03-48.38 8.44-88.82-.74-121.57-27.5-32.74-26.75-52.57-59.97-59.49-99.63-6.51-37.35-.74-72.73 17.25-105.94 22.71-42.26 58.66-67.72 107.68-76.27 50.51-8.81 94.23 3.24 131 36.08 26.1 23.14 42.88 54.78 50.28 95.03l-266.9 46.54c6.72 34.06 22.62 60.13 47.64 78.21 25.12 18.15 53.35 24.49 84.58 19.05 15.1-2.64 29.38-7.81 42.75-15.48 13.37-7.68 24.32-16.65 32.82-27.02 8.51-10.36 16.94-26.06 25.18-47.26zm-13.5-79.58c-8.63-19.4-18.86-34.24-30.71-44.68-11.94-10.42-26.51-17.91-43.84-22.53-17.32-4.61-34.84-5.38-52.45-2.31-29.18 5.09-52.58 18.72-70.28 41-13.01 16.31-20.96 38.6-24.11 67.13l221.39-38.61zm101.88-144.2l37.3-9.03 12.64 52.21c10.26-23.58 23.29-42.51 39.12-56.7 15.92-14.22 34.56-23.95 56.05-29.16 21.85-5.28 42.57-4.49 62.16 2.48 19.59 6.97 35.72 18.85 48.31 35.64 12.56 16.7 23.64 44.89 33.22 84.49l36.25 149.76-37.31 9.03-33.58-138.79c-8.1-33.46-14.99-55.51-20.55-66.07-9.22-18.1-21.12-30.5-35.83-37.3-14.69-6.71-31.96-7.66-51.8-2.86-22.77 5.51-41.34 17.95-55.64 37.29-14.4 19.25-21.79 40.7-22.11 64.19-.07 15.31 4.48 42.09 13.75 80.4l25.83 106.69-37.3 9.03-70.51-291.3zm499.34-103.49l-16.17 31.78c-25.57-12.97-47.85-16.53-66.63-10.72-11.95 3.69-20.97 10.81-27.07 21.36-6.12 10.47-7.57 21.06-4.32 31.57 2.86 9.25 9.12 17.08 18.7 23.26 9.68 6.47 27.62 11.95 53.68 16.6 31.68 5.67 54.53 13.67 68.48 23.73 13.73 10.34 23.22 23.85 28.36 40.47 7.28 23.55 5.14 45.97-6.34 67.44-11.51 21.38-29.65 35.95-54.46 43.6-16.54 5.11-33.38 6.37-50.69 3.85-17.23-2.55-32.7-8.59-46.5-18.21l15.05-33.5c25.34 15.41 48.66 19.82 69.78 13.29 14.74-4.55 25.85-13.21 33.36-25.86 7.42-12.64 9.19-25.4 5.25-38.16-3.25-10.51-9.56-18.81-18.95-24.96-9.42-5.96-28.01-11.33-55.88-16.11-29.99-5.3-51.66-12.98-64.92-23.07-13.35-10.04-22.58-23.34-27.72-39.97-6.7-21.66-4.79-41.94 5.59-60.9 10.51-18.91 27.07-31.91 49.81-38.94 26.43-8.16 56.94-3.7 91.59 13.45zm296.41-36.25l35.98-7.54c4.99 22.85 6.22 43.68 3.56 62.47-2.72 18.72-8.59 36.28-17.81 52.58-9.31 16.35-22.44 31.47-39.48 45.55-37.85 31.29-77.55 43.35-119.25 36.31-41.69-7.02-75.37-26.06-101.02-57.1-24.15-29.22-36.66-62.82-37.47-100.58-1.2-47.96 17.42-87.89 55.79-119.59 39.52-32.67 83.47-43.85 131.68-33.53 34.13 7.19 64.38 26.36 90.74 57.68l-208.84 172.59c22.7 26.28 49.42 41.05 80.11 44.37 30.82 3.32 58.49-5.14 82.93-25.34 11.81-9.76 21.66-21.33 29.48-34.62 7.81-13.29 12.87-26.5 15.13-39.72 2.26-13.22 1.81-31.04-1.53-53.53zm-51.13-62.46c-17.11-12.59-33.34-20.41-48.81-23.61-15.53-3.15-31.9-2.44-49.25 2.13-17.33 4.57-32.93 12.58-46.71 23.96-22.84 18.88-36.42 42.31-40.76 70.43-3.23 20.61.9 43.92 12.29 70.26l173.24-143.17zm83.49-248.15l6.24 35.11c-28.21 5.06-48.13 15.64-59.62 31.59-7.32 10.15-10.22 21.27-8.73 33.35 1.42 12.04 6.64 21.37 15.57 27.8 7.86 5.66 17.57 8.13 28.94 7.3 11.63-.68 29.23-7.11 52.83-19.1 28.7-14.57 51.76-21.95 68.95-22.31 17.19-.03 32.91 5.02 47.02 15.19 20 14.41 31.81 33.59 35.58 57.64 3.7 24-2 46.56-17.18 67.63-10.12 14.04-22.8 25.19-38.14 33.62-15.29 8.34-31.29 12.83-48.09 13.47l-8.17-35.81c29.5-2.97 50.77-13.5 63.69-31.43 9.02-12.52 12.67-26.12 11.04-40.75-1.69-14.55-7.96-25.8-18.8-33.61-8.93-6.43-18.97-9.25-30.16-8.51-11.11.93-29.19 7.84-54.3 20.82-27.13 13.84-49.06 20.77-65.71 20.71-16.71.03-32.09-5.02-46.2-15.2-18.4-13.25-29.1-30.59-32.24-51.98-3-21.41 2.38-41.76 16.29-61.07 16.17-22.44 43.21-37.27 81.19-44.46z"/><path class="fil4" d="M796.93 2649.8l-39.2-4.04 22.91-221.19 39.21 4.13-9.39 89.87 363.99 37.55-4.23 41.18-364.01-37.66z"/><path id="1" class="fil4" d="M781.29 2306.21c1.29-8.65 5.61-15.63 12.65-20.9 7.15-5.19 15.14-7.09 23.79-5.8 8.56 1.31 15.45 5.52 20.63 12.67 5.29 7.13 7.18 15.03 5.88 23.78-1.39 8.57-5.61 15.44-12.75 20.63-7.04 5.19-14.95 7.18-23.51 5.88-8.66-1.39-15.63-5.61-20.81-12.75-5.29-7.14-7.19-14.95-5.88-23.51zm119.08 37.96l5.94-38.39 296.33 45.78-5.95 38.39-296.32-45.78z"/><path id="2" class="fil4" d="M880.33 1856.88l404.96 92.94-8.46 37.01-50.24-11.47c15.56 20.15 25.94 41.11 31.05 62.88 5.19 21.86 5.13 44.44-.22 67.64-9.53 41.42-32.62 73.23-69.29 95.63-36.76 22.4-76.61 28.69-119.53 18.77-42.07-9.63-74.64-32.63-97.79-69.02-23.06-36.39-29.93-75.39-20.39-116.9 5.54-24.04 15.56-44.58 30.28-61.58 14.61-17.12 33.9-30.7 57.68-40.69l-166.51-38.2 8.46-37.01zm107.02 182.83c-4.77 20.94-4.08 41.46 2.17 61.55 6.25 20.08 17.41 37.47 33.67 52.27 16.17 14.7 34.72 24.53 55.48 29.29 20.56 4.67 41.45 3.88 62.67-2.35 21.21-6.24 39.17-17.02 53.68-32.44 14.6-15.41 24.23-33.31 28.9-53.78 4.66-20.57 3.97-41.27-2.17-62.11-6.15-20.83-16.93-38.22-32.35-52.27-15.52-13.94-34.26-23.49-56.52-28.64-33.81-7.68-64.7-3.11-92.49 13.99-27.87 17.11-45.55 41.91-53.04 74.49z"/><path id="3" class="fil4" d="M1005.1 1422.08l395.81 126.47-11.58 36.16-49.12-15.61c13.81 21.34 22.44 43.12 25.7 65.33 3.35 22.14 1.35 44.61-5.92 67.33-12.83 40.48-38.59 70.25-76.99 89.51-38.48 19.26-78.67 22.14-120.64 8.74-41.13-13.12-71.75-38.78-91.67-76.99-20.03-38.21-23.57-77.66-10.64-118.22 7.57-23.48 19.33-43.07 35.32-58.88 16.08-15.81 36.37-27.65 60.88-35.6l-162.74-51.98 11.59-36.26zm91.31 191.2c-6.51 20.47-7.47 40.98-2.98 61.51 4.5 20.53 14.28 38.83 29.15 54.82 14.96 16.08 32.58 27.36 52.87 33.88 20.09 6.41 41.06 7.38 62.72 2.88 21.66-4.39 40.35-13.69 56.14-27.81 15.88-14.22 26.89-31.27 33.3-51.18 6.42-20.1 7.47-40.79 3.07-62.08-4.39-21.28-13.7-39.49-27.92-54.71-14.21-15.32-32.21-26.33-53.9-33.32-33.06-10.53-64.21-8.54-93.36 6.16-29.15 14.7-48.85 38.02-59.09 69.85z"/><path id="4" class="fil4" d="M1169.07 1199.84l24.88-29.41 317.58 268.2-24.88 29.4z"/><path id="5" class="fil4" d="M1397.35 1117.98l34.3-22.02 211.33 138.87-40.27-248.41 34.6-22.11 70.15 441.27-34.41 21.93-22.54-142.58z"/><path id="6" class="fil4" d="M1774.92 919.99l38.63-9.03 138.59 191.23 44.42-233.73 6.7-1.55 142.63 190.23 41.69-233.1 39.2-9.11-58.8 321.4-7.26 1.73-141.43-187.49-45.06 230.81-6.98 1.64z"/><path id="7" class="fil4" d="M2309.3 673.39c8.75-1.61 16.66.17 23.91 5.24 7.24 5.07 11.58 11.94 13.19 20.59 1.51 8.47-.26 16.37-5.33 23.62-5.08 7.25-11.94 11.58-20.6 13.19-8.55 1.52-16.36-.26-23.61-5.33-7.25-5.08-11.59-11.84-13.1-20.31-1.61-8.74.17-16.65 5.24-23.9s11.84-11.58 20.3-13.1zm2.59 124.84l38.28-6.83 52.37 295.05-38.27 6.72-52.38-294.94z"/><path id="8" class="fil4" d="M2466.18 651.64l38.59-4.28 25.73 234.97 124.64-134.97 56.39-6.15-147.94 159.95 190.22 136.94-54.23 5.96-164.27-117.58 14.68 133.86-38.59 4.29z"/><path id="9" class="fil4" d="M2799.06 605.83c8.84-.78 16.64 1.61 23.37 7.3 6.83 5.6 10.64 12.87 11.43 21.63.79 8.56-1.71 16.26-7.3 23.09-5.69 6.73-12.86 10.54-21.62 11.33-8.66.8-16.37-1.61-23.09-7.3-6.84-5.6-10.65-12.77-11.44-21.34-.78-8.75 1.62-16.54 7.31-23.37 5.68-6.74 12.76-10.55 21.34-11.34zm-7.89 124.7l38.7-3.61 27.28 298.58-38.69 3.52-27.29-298.49z"/><path id="10" class="fil4" d="M3246.8 744.49l-25.14 25.29c-20.29-20.27-40.27-30.45-59.92-30.78-12.42-.15-23.23 3.84-32.23 12.05-9.01 8.12-13.59 17.73-13.66 28.74-.16 9.68 3.36 18.99 10.63 27.9 7.27 9.11 22.54 19.88 45.81 32.22 28.47 15.26 47.79 29.87 57.9 43.76 9.92 14.08 14.77 29.78 14.54 47.28-.3 24.54-9.17 45.27-26.72 62.17-17.44 16.79-39.15 25.05-65.02 24.75-17.22-.23-33.69-4.13-49.23-11.89-15.64-7.76-28.47-18.26-38.58-31.58l24.56-27.27c19.36 22.43 40.09 33.84 62.11 34.14 15.43.15 28.58-4.59 39.56-14.42 10.97-9.72 16.49-21.3 16.63-34.76.16-11-3.26-20.87-10.34-29.6-7.08-8.54-23.11-19.4-48.08-32.5-26.76-14.31-44.96-28.36-54.5-42.07s-14.2-29.21-14.07-46.71c.31-22.76 8.35-41.51 24-56.43 15.77-14.81 35.41-22.12 59.11-21.81 27.57.38 55.09 14.23 82.64 41.52z"/><path id="11" class="fil4" d="M3597.77 919.62l32.09 17.78c-11.17 20.66-23.86 37.3-38.09 49.81-14.32 12.5-30.26 21.9-47.81 28.21-17.65 6.31-37.39 9.16-59.4 8.64-48.93-1.12-86.66-18.11-113.48-50.79-26.72-32.67-39.64-69.19-38.75-109.55.9-38.02 13.4-71.67 37.4-100.79 30.45-37.15 70.52-55.08 120.01-53.97 51.09 1.21 91.38 21.57 120.97 61 20.95 27.91 31.22 62.28 30.61 103.21l-269.37-6.3c-.07 34.8 10.35 63.71 31.28 86.55 20.93 22.83 47.24 34.52 78.86 35.28 15.15.38 30.09-1.87 44.64-6.85 14.46-4.98 26.93-11.82 37.23-20.35 10.3-8.63 21.59-22.52 33.81-41.88zm1.87-80.73c-4.64-20.67-11.7-37.27-21.28-49.83-9.48-12.55-22.24-22.72-38.18-30.62-16.04-7.9-32.91-12.13-50.69-12.5-29.45-.76-54.89 8.14-76.42 26.51-15.72 13.46-27.93 33.75-36.42 61.18l222.99 5.26z"/><path id="12" class="fil4" d="M3777.2 624.43l38.36 3.94-42.72 413.26-38.35-3.94z"/><path id="13" class="fil4" d="M4075.32 665.07l-6.42 37.13c-12.84-8.35-24.29-13.31-34.25-15.05-7.42-1.27-13.83-.83-19.2 1.29-5.47 2.14-9.15 5.04-11.05 8.79-1.91 3.66-4.32 13.9-7.23 30.73l-6.81 39.94 61.66 10.5-5.64 32.61-61.84-10.59-45.01 262.78-38.06-6.51 45-262.79-38.81-6.7 5.64-32.52 38.81 6.61 7.87-46.15c3.6-21.15 8.11-35.89 13.61-44.32 5.41-8.35 13.25-14.51 23.52-18.5 10.28-3.9 22.05-4.68 35.2-2.44 12.32 2.14 26.68 7.11 43.01 15.19z"/><path id="14" class="fil4" d="M4148.17 790.91l37.51 7.4-10.57 54.09c18.95-17.55 39.17-29.58 60.66-36.06 21.5-6.48 44.26-7.32 68.19-2.63 41.84 8.22 74.58 30.34 98.38 66.27 23.82 35.93 31.57 75.1 23.27 117.4-8.49 43.26-30.51 77.12-65.87 101.49-35.36 24.37-73.87 32.5-115.52 24.28-23.46-4.6-44.04-13.75-61.75-27.34-17.7-13.59-32.61-31.53-44.65-54.01l-31.17 158.12-37.49-7.31 79.01-401.7zm145.64 58.73c-32.79-6.41-62.65-.42-89.6 18.05-26.94 18.46-43.75 44.66-50.43 78.78-4.43 22.33-3.32 43.39 3.15 63.19 6.47 19.79 17.99 36.82 34.57 50.9 16.68 14.16 35.28 23.23 56.01 27.28 20.35 4.07 40.57 2.49 60.55-4.54 19.98-6.94 37.19-18.93 51.54-35.7 14.35-16.86 23.51-35.66 27.67-56.29 4.06-20.92 2.67-41.8-4.19-62.62-6.84-20.83-18.18-38.15-33.91-52.03-15.83-13.89-34.24-22.87-55.36-27.02z"/><path id="15" class="fil4" d="M4589.2 771.1l37.47 9.18-98.93 403.4-37.47-9.18z"/><path id="16" class="fil4" d="M5040.01 1070.8l-135.83 267.33-33.89-17.18 23.29-45.93c-23.33 10.19-46.18 15.1-68.57 14.85-22.48-.26-44.32-5.78-65.59-16.58-37.84-19.25-63.18-49.41-76.01-90.41-12.85-41.1-9.32-81.27 10.67-120.62 19.53-38.5 49.79-64.49 90.69-78.09 40.91-13.68 80.42-10.81 118.45 8.52 21.93 11.08 39.45 25.92 52.46 44.25 13 18.33 21.49 40.33 25.47 65.82l24.97-49.13 33.89 17.17zm-150.95-43.57c-19.2-9.75-39.25-14.06-60.23-12.91-21.06 1.24-40.62 7.86-58.86 20.11-18.23 12.16-32.24 27.69-41.9 46.71-9.58 18.82-13.89 39.33-12.92 61.44.88 22.1 7.11 42.04 18.51 59.9 11.4 17.86 26.48 31.58 45.11 41.06 18.92 9.58 39.15 13.88 60.88 13 21.64-.96 41.2-7.19 58.49-18.78 17.3-11.59 31.21-27.59 41.52-47.93 15.68-30.96 18.66-62.01 8.83-93.14-9.81-31.22-29.59-54.34-59.43-69.46z"/><path id="17" class="fil4" d="M5320.52 1211.65l23.95 30.53-87.37 68.74 37.81 48.1-25.93 20.36-37.81-48-209.39 164.8-24.05-30.53 209.4-164.8-32.53-41.34 26.03-20.37 32.43 41.34z"/><path id="18" class="fil4" d="M5543.49 1610.56l-36.08 11.34c1.57-15.33.86-27.75-2.21-37.36-2.23-7.25-5.59-12.72-10-16.49-4.31-3.88-8.63-5.79-12.77-5.8-4.14-.1-14.3 2.48-30.6 7.59l-38.62 12.17 18.77 59.63-31.55 9.95-18.87-59.91-254.31 80.1-11.52-36.82 254.22-80.01-11.81-37.59 31.56-9.94 11.8 37.58 44.65-14.12c20.53-6.42 35.68-9.18 45.66-8.1 9.96.97 18.98 5.15 27.23 12.52 8.15 7.27 14.23 17.37 18.32 30.17 3.72 11.87 5.72 26.93 6.13 45.09z"/><path id="19" class="fil4" d="M5503.32 1885.52c10.4 44.85 2.75 85.92-22.92 122.98-23.48 33.69-55.54 55.28-96.16 64.76-40.8 9.49-79.7 3.56-116.79-17.69-37.1-21.25-60.76-54.17-71.16-98.74-10.38-44.77-3.6-84.79 20.27-120.27 23.97-35.47 56.31-57.91 97.12-67.4 40.42-9.39 78.58-4.12 114.56 15.81 39.53 21.93 64.59 55.41 75.08 100.55zm-36.75 8.48c-7.3-31.1-24.99-55.13-53.28-72.17-28.29-16.96-58.83-21.7-91.53-14.04-21.1 4.83-39.61 14.58-55.52 28.95-15.83 14.47-26.77 31.5-32.65 51.12-5.89 19.72-6.41 39.94-1.58 60.67 4.84 20.73 14.2 38.68 28.11 53.74 14 14.96 31.33 25.53 51.89 31.43 20.65 5.98 41.54 6.51 62.64 1.59 32.7-7.57 58.04-25.26 75.84-53.07 17.89-27.81 23.19-57.22 16.08-88.22z"/><path id="20" class="fil4" d="M5553.39 2140.87l6.92 38.74-43.18 7.68c19.11 8.53 33.89 18.49 44.63 29.86 10.65 11.27 17.25 23.96 19.71 37.89 1.89 10.44.49 22.29-4.01 35.37l-35.58-14.07c2.06-8.65 2.62-15.61 1.58-20.97-2.17-12.71-9.53-23.99-22.06-33.85-12.52-9.95-30.21-16.05-53.17-18.28-17.59-1.77-52.01 1.95-103.18 11.03l-99.79 17.72-6.91-38.76 295.04-52.36z"/><path id="21" class="fil4" d="M5594.2 2370.43l4.42 38.01-51.38 6.08c20.48 11.06 35.88 23.14 46.28 36.15 13.98 17.9 22.21 37.59 24.68 58.95 1.66 14.4.41 28.41-3.77 41.95-4.08 13.63-10.41 25.09-18.81 34.38-8.49 9.29-21.02 18.01-37.88 26.06 24.81 10.04 44.43 23.91 58.79 41.64 14.34 17.71 22.84 37.59 25.42 59.7 2.4 20.61-.66 39.42-9.26 56.33-8.52 17.01-21.63 30.43-39.33 40.26-17.72 9.82-45.21 16.9-82.38 21.23l-162.41 18.96-4.61-39.15 162.42-18.95c31.9-3.68 53.65-8.52 65.04-14.52 11.4-5.89 20.08-14.81 26.13-26.73 5.96-11.85 8.06-25.48 6.32-40.73-2.21-18.63-9.6-35.01-22.36-49.16-12.76-14.05-28.63-23.68-47.72-28.62-19.08-5.04-49.94-5.03-92.56-.06l-116.51 13.63-4.42-38.01 152.26-17.77c35.95-4.24 60.04-9.26 72.39-15.24 12.33-6 21.77-15 28.2-27.02 6.42-12.03 8.81-25.67 6.96-41.01-2.02-17.68-9.31-33.6-21.79-47.75-12.48-14.14-28.16-23.87-47.06-29.18-18.9-5.22-46.92-5.67-84.1-1.35l-126.09 14.63-4.42-38.01 297.55-34.7z"/></g></svg>