<?xml version="1.0" encoding="UTF-8"?>
<!DOCTYPE svg PUBLIC "-//W3C//DTD SVG 1.1//EN" "http://www.w3.org/Graphics/SVG/1.1/DTD/svg11.dtd">
<!-- Creator: CorelDRAW 2017 -->
<svg xmlns="http://www.w3.org/2000/svg" xml:space="preserve" width="100%" height="100%" version="1.1" style="shape-rendering:geometricPrecision; text-rendering:geometricPrecision; image-rendering:optimizeQuality; fill-rule:evenodd; clip-rule:evenodd"
viewBox="0 0 17461.93 15464.39"
 xmlns:xlink="http://www.w3.org/1999/xlink">
 <defs>
  <style type="text/css">
   <![CDATA[
    .str0 {stroke:white;stroke-width:20;stroke-miterlimit:22.9256}
    .fil6 {fill:none}
    .fil0 {fill:#303C42}
    .fil5 {fill:#546E7A}
    .fil3 {fill:#ABA96A}
    .fil1 {fill:#FAFAFA}
    .fil2 {fill:black;fill-opacity:0.101961}
    .fil4 {fill:white;fill-opacity:0.200000}
   ]]>
  </style>
 </defs>
 <g id="Layer_x0020_1">
  <metadata id="CorelCorpID_0Corel-Layer"/>
  <g id="g4669">
   <path id="path4574" class="fil0" d="M13236.15 6165.5l-322.01 -241.51c-17.77,-13.37 -40.73,-18.95 -61.8,-14.94 -21.86,3.7 -41.19,16.28 -53.46,34.67l-113.82 170.72 -242.04 -181.59c53.32,-132.34 95.47,-276.93 125.37,-432.11 132.08,-118.02 216.96,-287.74 216.96,-478.4 0,-179.21 -73.85,-341.26 -192.39,-458.12 -128.49,-679.58 -641,-1151.94 -1256.65,-1151.94 -615.66,0 -1128.18,472.36 -1256.67,1151.94 -118.54,116.87 -192.39,278.92 -192.39,458.13 0,190.65 84.87,360.37 216.96,478.4 29.9,155.2 72.02,299.8 125.34,432.14l-242 181.56 -113.82 -170.72c-12.27,-18.4 -31.61,-30.98 -53.46,-34.67 -21.23,-3.93 -44.18,1.57 -61.8,14.94l-322.01 241.5c-34.28,25.64 -42.45,73.51 -18.71,109.04l644.03 966.04c12.27,18.4 31.61,30.98 53.46,34.67 4.39,0.78 8.96,1.18 13.52,1.18 17.3,0 34.28,-5.59 48.27,-16.12l322.01 -241.5c34.29,-25.64 42.46,-73.51 18.71,-109.04l-118.77 -178.18 147.42 -110.57c70.46,372.47 397.28,655.41 789.92,655.41 392.62,0 719.44,-282.96 789.9,-655.41l147.43 110.57 -118.78 178.18c-23.74,35.53 -15.57,83.4 18.71,109.04l322.01 241.5c14,10.54 30.98,16.12 48.27,16.12 4.56,0 9.12,-0.4 13.53,-1.18 21.85,-3.7 41.19,-16.28 53.46,-34.67l644.02 -966.04c23.73,-35.53 15.56,-83.4 -18.71,-109.04l0 0 -0.01 0z"/>
   <g id="g4576">
    <circle id="circle4578" class="fil1" cx="12141.34" cy="5022.34" r="483.02"/>
    <circle id="circle4580" class="fil1" cx="10531.28" cy="5022.34" r="483.02"/>
   </g>
   <path id="path4582" class="fil2" d="M12438.62 4644.55c64.87,82.24 105.23,184.64 105.23,297.29 0,266.35 -216.67,483.01 -483.02,483.01 -112.65,0 -215.05,-40.34 -297.29,-105.22 88.52,112.2 224.08,185.72 377.79,185.72 266.36,0 483.02,-216.65 483.02,-483.01 0.01,-153.7 -73.51,-289.27 -185.73,-377.79z"/>
   <path id="path4584" class="fil2" d="M10828.57 4644.55c64.87,82.24 105.22,184.64 105.22,297.29 0,266.35 -216.66,483.01 -483.02,483.01 -112.65,0 -215.04,-40.34 -297.28,-105.22 88.52,112.2 224.07,185.72 377.79,185.72 266.35,0 483.02,-216.65 483.02,-483.01 0,-153.7 -73.51,-289.27 -185.73,-377.79z"/>
   <path id="path4586" class="fil3" d="M10531.28 5666.37c355.2,0 644.03,-288.92 644.03,-644.02 0,-355.11 -288.84,-644.03 -644.03,-644.03 -89.77,0 -175.17,18.68 -252.88,52 157.99,-512.85 571.32,-857.03 1057.91,-857.03 486.59,0 899.92,344.18 1057.91,857.03 -77.71,-33.31 -163.11,-52 -252.89,-52 -355.19,0 -644.02,288.92 -644.02,644.03 0,355.1 288.83,644.02 644.02,644.02 83.09,0 161.97,-17.1 234.96,-45.87 -61.71,237.57 -155.8,442.23 -277.58,604.55 -104.78,-322.96 -405.01,-558.69 -762.41,-558.69 -357.38,0 -657.58,235.69 -762.39,558.61 -121.85,-162.2 -215.92,-366.85 -277.62,-604.48 73,28.78 151.88,45.87 234.99,45.87l0 0 0 0.01z"/>
   <path id="path4588" class="fil4" d="M11336.31 3573.28c-486.6,0 -899.93,344.17 -1057.91,857.03 58.14,-24.94 121.57,-38.35 186.94,-45.2 140.75,-486.91 476.15,-811.83 870.97,-811.83z"/>
   <path id="path4590" class="fil2" d="M12207.28 4385.12c65.36,6.85 128.8,20.26 186.94,45.19 -157.99,-512.84 -571.33,-857.02 -1057.91,-857.02 394.81,0 730.22,324.92 870.97,811.83z"/>
   <path id="path4592" class="fil4" d="M10476.03 5660.84c-62.63,-5.8 -123.37,-18.12 -179.73,-40.34 61.71,237.63 155.76,442.27 277.62,604.48 14.27,-43.96 32.79,-85.87 53.96,-126.22 -63.08,-127.2 -113.6,-274.87 -151.85,-437.93l0 0.01z"/>
   <path id="path4594" class="fil2" d="M12044.73 6098.77c21.17,40.37 39.72,82.3 53.99,126.28 121.8,-162.32 215.86,-366.97 277.58,-604.55 -56.37,22.22 -117.11,34.54 -179.73,40.34 -38.25,163.02 -88.77,310.7 -151.84,437.93l0.01 0 -0.01 0z"/>
   <g id="g4596">
    <polygon id="polygon4598" class="fil5" points="10341.5,6935.7 10148.57,7080.43 9594.02,6248.6 9786.94,6103.86 "/>
    <path id="path4600" class="fil5" d="M10076.96 6248.56l220.87 -165.69c66.71,131.49 145.77,247.72 236.5,346.03l-224.76 168.57 -232.61 -348.91 0 0 0 0z"/>
    <circle id="circle4602" class="fil5" cx="11336.31" cy="6471.4" r="644.02"/>
   </g>
   <path id="path4604" class="fil2" d="M11862.17 6101.83c22.7,65.78 37.65,135.17 37.65,208.56 0,355.11 -288.84,644.03 -644.02,644.03 -217.46,0 -409.2,-108.98 -525.86,-274.46 87.18,252.47 324.59,435.46 606.37,435.46 355.18,0 644.01,-288.91 644.01,-644.02 0,-137.7 -44.27,-264.76 -118.16,-369.57l0.01 0z"/>
   <g id="g4606">
    <path id="path4608" class="fil5" d="M12138.35 6428.93c90.67,-98.36 169.72,-214.61 236.4,-346.09l220.92 165.72 -232.61 348.91 -224.72 -168.54 0.01 0z"/>
    <polygon id="polygon4610" class="fil5" points="13078.6,6248.6 12524.04,7080.43 12331.12,6935.7 12885.68,6103.86 "/>
   </g>
   <g id="g4612">
    <path id="path4614" class="fil0" d="M11151.72 6172.97c-31.44,-31.45 -82.39,-31.45 -113.83,0 -31.44,31.45 -31.44,82.39 0,113.83l80.52 80.51c15.72,15.72 36.32,23.58 56.91,23.58 20.6,0 41.2,-7.86 56.92,-23.58 31.45,-31.45 31.45,-82.39 0,-113.83l-80.51 -80.51 -0.01 0z"/>
    <path id="path4616" class="fil0" d="M11520.91 6172.97l-80.52 80.51c-31.44,31.45 -31.44,82.39 0,113.83 15.72,15.72 36.33,23.58 56.92,23.58 20.6,0 41.19,-7.86 56.92,-23.58l80.51 -80.51c31.45,-31.45 31.45,-82.39 0,-113.83 -31.45,-31.45 -82.39,-31.45 -113.84,0l0.01 0z"/>
    <path id="path4618" class="fil0" d="M11554.22 6575.48c-31.44,-31.44 -82.39,-31.44 -113.83,0 -31.44,31.45 -31.44,82.39 0,113.83l80.52 80.51c15.72,15.72 36.32,23.59 56.91,23.59 20.6,0 41.2,-7.87 56.92,-23.59 31.45,-31.44 31.45,-82.39 0,-113.83l-80.51 -80.51 -0.01 0z"/>
    <path id="path4620" class="fil0" d="M11118.39 6575.48l-80.51 80.51c-31.45,31.45 -31.45,82.39 0,113.83 15.72,15.72 36.32,23.59 56.92,23.59 20.59,0 41.19,-7.87 56.92,-23.59l80.51 -80.51c31.45,-31.44 31.45,-82.39 0,-113.83 -31.45,-31.44 -82.39,-31.44 -113.85,0l0.01 0z"/>
   </g>
  </g>
  <g id="g4629">
  </g>
  <g id="g4631">
  </g>
  <g id="g4633">
  </g>
  <g id="g4635">
  </g>
  <g id="g4637">
  </g>
  <g id="g4639">
  </g>
  <g id="g4641">
  </g>
  <g id="g4643">
  </g>
  <g id="g4645">
  </g>
  <g id="g4647">
  </g>
  <g id="g4649">
  </g>
  <g id="g4651">
  </g>
  <g id="g4653">
  </g>
  <g id="g4655">
  </g>
  <g id="g4657">
  </g>
  <g id="_1935819208480">
   <path id="path4715" class="fil0" d="M1610.24 4922.6c68.83,-242.95 125.52,-433.26 174.11,-623.58l16.2 0c52.64,198.41 105.28,372.53 182.21,635.72l242.95 789.58 -862.47 0 247 -801.72zm-117.43 -907.02l-898.91 2838.47 417.06 0 242.95 -777.44 1081.13 0 238.9 777.44 433.26 0 -907.02 -2838.47 -607.38 0 0.01 0z"/>
   <path id="path4717" class="fil0" d="M3441.41 6854.05l400.87 0 0 -2227.04 -400.87 0 0 2227.04zm-76.93 -2854.66c0,145.77 117.43,259.14 263.2,259.14 153.87,0 267.25,-113.37 267.25,-259.14 0,-157.92 -113.38,-271.3 -267.25,-271.3 -145.77,0 -263.2,113.38 -263.2,271.3z"/>
   <path id="path4719" class="fil0" d="M5721.34 4606.76c-48.58,-12.14 -121.48,-20.25 -214.6,-20.25 -267.25,0 -465.65,133.63 -562.83,311.79l-16.2 0 -85.03 -271.3 -307.74 0 0 2227.04 396.82 0 0 -1615.61c113.37,-170.07 332.03,-255.1 538.54,-255.1 80.99,0 170.06,12.15 251.05,32.39l0 -408.96 0.01 0 -0.02 0z"/>
  </g>
  <g id="_1935819218016">
   <path id="path4721" class="fil0" d="M1580.36 8375.51l-858.43 0 0 2838.47 404.92 0 0 -1089.23 376.58 0c704.55,0 1016.34,-372.51 1016.34,-927.26 0,-587.12 -372.52,-821.98 -939.41,-821.98l0 0zm-80.99 356.33c396.82,0 599.27,149.82 599.27,518.29 0,327.98 -149.82,526.4 -603.32,526.4l-368.48 0 0 -1044.69 372.53 0 0 0z"/>
   <path id="path4723" class="fil0" d="M3218.81 10084.25c0,-542.58 149.82,-805.77 526.39,-805.77 392.77,0 550.69,275.34 550.69,834.12 0,542.59 -137.67,805.79 -526.39,805.79 -388.72,0 -550.69,-279.4 -550.69,-834.13l0 -0.01zm526.39 1166.17c696.46,0 963.7,-473.76 963.7,-1162.12 0,-684.3 -234.86,-1141.86 -939.41,-1141.86 -696.46,0 -963.7,473.76 -963.7,1162.11 0,684.3 234.85,1141.87 939.41,1141.87z"/>
   <path id="path4725" class="fil0" d="M5244.85 8140.66l0 2599.56c0,315.83 166.01,506.14 489.95,506.14 101.23,0 202.46,-20.25 283.44,-52.63l0 -327.98c-36.45,12.14 -85.03,32.38 -157.92,32.38 -149.82,0 -218.65,-76.93 -218.65,-263.2l0 -2494.28 -396.82 0 0 0.01 0 0z"/>
   <path id="path4727" class="fil0" d="M6439.03 8140.66l0 2599.56c0,315.83 166.02,506.14 489.95,506.14 101.23,0 202.46,-20.25 283.44,-52.63l0 -327.98c-36.45,12.14 -85.03,32.38 -157.92,32.38 -149.82,0 -218.65,-76.93 -218.65,-263.2l0 -2494.28 -396.82 0 0 0.01z"/>
   <path id="path4729" class="fil0" d="M7604.88 10501.32c8.1,514.24 255.09,757.19 716.7,757.19 344.18,0 538.53,-161.96 623.57,-267.25l16.2 0 64.79 222.7 327.98 0 0 -2227.04 -400.86 0 0 1481.99c-16.2,271.3 -210.57,457.56 -510.2,457.56 -291.54,0 -437.32,-161.96 -437.32,-489.95l0 -1449.6 -400.86 0 0 1514.38 -0.01 0 0.01 0.02z"/>
   <path id="path4731" class="fil0" d="M10645.55 11234.22c299.63,0 453.51,-60.74 534.49,-113.38l-105.28 -311.78c-68.83,48.58 -174.11,85.03 -332.03,85.03 -182.21,0 -295.58,-97.18 -295.58,-315.84l0 -1275.47 595.23 0 0 -315.84 -595.23 0 0 -579.03 -267.25 0 -129.57 562.83 -315.83 80.99 0 251.05 315.83 0 0 1283.59c0,453.51 222.7,647.86 595.22,647.86l0 0 0 -0.01z"/>
   <path id="path4733" class="fil0" d="M11632.4 11213.97l400.87 0 0 -2227.04 -400.87 0 0 2227.04zm-76.94 -2854.66c0,145.77 117.43,259.14 263.2,259.14 153.87,0 267.25,-113.37 267.25,-259.14 0,-157.92 -113.37,-271.3 -267.25,-271.3 -145.77,0 -263.2,113.38 -263.2,271.3z"/>
   <path id="path4735" class="fil0" d="M13017.48 10084.25c0,-542.58 149.82,-805.77 526.39,-805.77 392.77,0 550.68,275.34 550.68,834.12 0,542.59 -137.66,805.79 -526.38,805.79 -388.72,0 -550.69,-279.4 -550.69,-834.13l0 0 0 -0.01zm526.38 1166.17c696.46,0 963.71,-473.76 963.71,-1162.12 0,-684.3 -234.86,-1141.86 -939.41,-1141.86 -696.46,0 -963.7,473.76 -963.7,1162.11 0,684.3 234.86,1141.87 939.41,1141.87l-0.01 0z"/>
   <path id="path4737" class="fil0" d="M16768.45 9675.29c-8.1,-494 -271.29,-736.95 -712.65,-736.95 -311.78,0 -538.53,170.06 -623.57,275.34l-16.2 0 -80.99 -226.75 -307.74 0 0 2227.04 400.87 0 0 -1567.02c72.88,-202.46 263.2,-360.38 510.2,-360.38 279.39,0 429.21,174.12 429.21,477.8l0 1449.61 400.87 0 0 -1538.68 0 -0.01 0 0z"/>
  </g>
  <rect class="fil6 str0" x="9.99" y="9.99" width="17441.93" height="15444.39"/>
 </g>
</svg>
