<?xml version="1.0" encoding="UTF-8"?>
<!DOCTYPE svg PUBLIC "-//W3C//DTD SVG 1.1//EN" "http://www.w3.org/Graphics/SVG/1.1/DTD/svg11.dtd">
<svg xmlns="http://www.w3.org/2000/svg" xml:space="preserve" width="100%" height="100%" version="1.1" style="fill-rule:evenodd; clip-rule:evenodd"
viewBox="0 0 18708.66 12667.33" xmlns:xlink="http://www.w3.org/1999/xlink">
 <defs>
  <style type="text/css">
   <![CDATA[
    .fil0 {fill:#EF7F1A}
   ]]>
  </style>
 </defs>
 <g>
  <path class="fil0" d="M6228.77 10315.77l106.34 26.97c133.59,-52.13 402.16,28.78 544.65,67.84 -262.18,-252.03 -657.67,-623.61 -942.36,-858.26 -93.28,-282.75 -53.66,-569.67 -33.64,-858.12l3.89 -23.91c-112.04,232.01 -254.53,457.35 -331.13,701.45 -89.52,329.18 398.41,684.63 587.47,888.15l64.78 57.69 0 -1.81zm7716.57 1703.03c-688.53,-19.6 -991.3,-18.07 -1342.3,-606.51l-273.3 7.92c-318.06,-14.32 -185.72,-7.65 -397.71,-18.77 -354.76,-13.35 -298.04,-357.96 -360.46,-538.81 -100.09,-616.1 132.34,-1237.62 124.97,-1853.59 -2.5,-219.36 -306.52,-995.05 -415.09,-1272.24 -340.3,65.47 -682.41,78.12 -1027.72,95.64 -795.71,-1.95 -1585.71,-101.62 -2370.3,-227.56 -154.03,644.6 -608.18,1546.65 -232.98,2201.4 456.1,677.27 775.69,864.93 1272.1,905.8 494.74,41.01 608.04,611.93 486.82,816.42 -105.65,140.54 -292.62,166.26 -451.23,200.18l-317.5 15.57c-249.39,-8.9 -472.5,-77.71 -694.78,-183.77 -371.3,-211.02 -755.39,-650.99 -1040.37,-966.69 66.31,126.64 105.65,372.83 46.29,486.82 -168.76,244.38 -897.88,242.44 -1231.79,90.5 -378.95,-171.4 -1295.31,-1378.44 -1437.11,-2282.44 377,-727.45 926.1,-1360.65 1203.84,-2152.46 -605.54,-394.66 -929.57,-1036.34 -887.04,-1762.81l15.43 -84.8c-595.94,113.57 -286.5,71.04 -927.63,120.94 -2041.53,-6.12 -3836.46,-1418.48 -2825.14,-3612.92 65.34,-129.42 127.89,-247.58 239.24,-191.42 89.8,45.73 77.15,227.01 32.11,428.57 -578.29,2622.6 2245.88,2642.62 3981.72,2157.33 171.4,-48.24 513.79,-372.69 751.5,-480.29 387.84,-175.16 809.47,-246.61 1227.06,-298.32 1039.25,-121.22 2288.83,438.03 2923.29,456.1 635.01,18.35 1537.75,-154.86 2091.85,-118.44 402.16,18.77 797.37,93 1185.5,198.37 251.33,-1248.88 269.41,-2168.73 864.66,-2382.39 349.06,56.58 618.19,542.43 817.81,802.1 406.61,-16.54 792.92,88.55 1176.88,205.04 694.78,-100.64 1278.22,-498.91 1892.37,-808.77 -622.36,517.68 -706.88,1361.62 -635.7,2141.48 26.55,404.66 -85.35,843.94 -224.09,1258.48 -259.4,674.76 -760.26,1386.37 -1341.33,1349.95 -219.36,-7.09 -347.25,-133.73 -510.73,-269.54 -31.42,274.55 -155.83,519.63 -275.8,762.06 -277.05,538.39 -1001.3,775.69 -1671.76,1350.22 -670.32,574.54 214.36,2626.77 429.13,3000.99 214.36,373.25 813.22,510.31 581.21,847.97 -71.17,111.77 -180.3,151.11 -296.51,194.34l-157.64 21.27 2.22 -2.92 0.01 0zm-12191.4 -12018.8l15200.78 0c964.67,0 1753.94,789.27 1753.94,1753.94l0 9159.45c0,964.67 -789.27,1753.94 -1753.94,1753.94l-15200.78 0c-964.67,0 -1753.94,-789.27 -1753.94,-1753.94l0 -9159.45c0,-964.67 789.27,-1753.94 1753.94,-1753.94z"/>
 </g>
</svg>
