<?xml version="1.0" encoding="UTF-8"?>
<svg xmlns="http://www.w3.org/2000/svg" xml:space="preserve" width="100%" height="100%" version="1.1" viewBox="0 0 16134.43 16127.19"
 xmlns:xlink="http://www.w3.org/1999/xlink">
 <defs>
  <style type="text/css">
   <![CDATA[
    .str1 {stroke:#2B2A29;stroke-width:28.93;stroke-miterlimit:22.9256}
    .str0 {stroke:#E1E1E1;stroke-width:14.46;stroke-miterlimit:22.9256}
    .fil1 {fill:#00000D}
    .fil3 {fill:#2B2A29}
    .fil2 {fill:#4D42B3}
    .fil0 {fill:#EB5F5F}
    .fil4 {fill:#EB5F5F;fill-rule:nonzero}
   ]]>
  </style>
 </defs>
 <g>
  <rect class="fil0 str0" x="7.23" y="7.23" width="16119.97" height="12185.34"/>
  <path class="fil1" d="M11423.55 6087.49c1419.66,-208.84 2595.68,884.23 2756.66,2115.51 190.79,1459.33 -866.57,2603.58 -2122.35,2775.88 -1445.15,198.29 -2615.91,-874.8 -2776.44,-2117.81 -193.09,-1495.02 867.3,-2586.02 2142.13,-2773.58zm-7182.97 -6.2c1416.1,-168.04 2579.3,912.3 2717.12,2168.22 159.03,1448.99 -899.63,2585.92 -2174.43,2735.56 -1439.03,168.93 -2598.71,-922.56 -2734.96,-2167.57 -160.59,-1467.52 901.32,-2583.02 2192.26,-2736.21l0.01 0zm-1818.19 -27.52c82.08,-538.68 240.74,-1146.17 356.99,-1687.48 221.25,-1030.21 263.16,-2653.65 1628.08,-2477.27 216.21,27.94 631.71,251.67 819.55,206.71 200.65,-48.05 364.55,-535.39 201.67,-681.96 -292.47,-263.12 -2130.26,-711.03 -2854.27,679.64 -294.89,566.4 -606.53,2511.42 -772.4,3302.07 -205.06,977.53 -641.42,2551.43 -504.77,3560.92 323.61,2390.56 2988.49,3537.98 4911.04,2314.84 787.37,-500.93 1391.67,-1281.53 1507.43,-2548.94l800.49 0c153.03,1674.24 1385.06,3002.55 3131.54,3040.53 1749.94,38.04 3135.03,-1282.61 3298.33,-2893.93 108.73,-1072.9 -636.63,-4050.45 -890.22,-5273.17 -201.87,-973.45 -257.61,-1684.99 -962.67,-2132.81 -1136.82,-722.05 -2294.67,-53.52 -2335.23,14.31 -60.22,207.74 57.99,480.31 184.65,623.93 289.76,144.38 1798.06,-1016.95 2230.09,970.07 207.94,956.29 486.92,2033.37 636.95,2980.81 -190.95,-94.36 -387.76,-277.71 -654.86,-411.43 -854.22,-427.65 -1805.69,-444.23 -2667.55,-90.87 -922.43,378.21 -1727.6,1255.73 -1932.53,2411.83l-881.41 0c-203.59,-1158.94 -1000.54,-2031.23 -1927.47,-2411.72 -557,-228.63 -1213.85,-320.42 -1859.4,-188.86 -850.18,173.24 -1034.34,469.26 -1464.03,692.79l0 -0.01z"/>
  <circle class="fil2 str1" cx="3526.7" cy="9532.43" r="799.63"/>
  <circle class="fil2 str1" cx="10864.53" cy="9532.43" r="799.63"/>
  <rect class="fil3" x="7.23" y="12155.82" width="16119.97" height="3971.37"/>
  <path class="fil4" d="M14797.9 15308.48l-688.36 0 0 -988.66c0,-76.48 -7.52,-129.77 -23.19,-159.23 -15.68,-29.47 -43.89,-44.52 -85.26,-44.52 -75.86,0 -113.48,68.34 -113.48,205.64l0 986.77 -688.36 0 0 -988.66c0,-76.48 -8.15,-129.77 -25.07,-159.23 -16.3,-29.47 -45.14,-44.52 -86.52,-44.52 -75.86,0 -114.1,68.34 -114.1,205.64l0 986.77 -688.36 0 0 -1128.46c0,-205.63 69.59,-380.54 208.14,-524.73 138.55,-144.19 306.56,-216.29 504.04,-216.29 203.13,0 386.19,85.89 547.93,258.29 179.93,-172.4 359.23,-258.29 539.16,-258.29 228.82,0 411.88,83.38 550.43,250.14 108.46,129.77 163,319.1 163,568.62l0 1050.72zm-3744.6 -1869.48c260.17,0 482.73,93.41 668.3,280.23 186.2,186.83 278.98,410.64 278.98,671.44 0,264.56 -94.04,490.25 -282.11,676.45 -188.71,186.19 -415.65,278.98 -681.47,278.98 -266.44,0 -494.01,-93.42 -682.72,-280.24 -188.7,-186.82 -283.36,-411.89 -283.36,-675.19 0,-268.33 94.66,-494.02 283.36,-677.08 188.71,-183.06 421.92,-274.59 699.02,-274.59zm-375.37 968.11c-73.98,0 -136.04,26.96 -187.45,80.25 -51.41,53.29 -77.11,118.49 -77.11,196.23 0,75.85 25.7,141.05 77.74,195.6 52.03,53.91 114.1,80.87 186.82,80.87 73.35,0 136.04,-26.96 188.08,-80.87 52.03,-54.55 77.74,-119.75 77.74,-195.6 0,-77.74 -25.71,-142.94 -77.12,-196.23 -51.4,-53.29 -114.1,-80.25 -188.7,-80.25zm-1726.07 -968.11c260.17,0 482.73,93.41 668.3,280.23 186.2,186.83 278.98,410.64 278.98,671.44 0,264.56 -94.04,490.25 -282.11,676.45 -188.71,186.19 -415.65,278.98 -681.47,278.98 -266.44,0 -494.01,-93.42 -682.72,-280.24 -188.7,-186.82 -283.36,-411.89 -283.36,-675.19 0,-268.33 94.66,-494.02 283.36,-677.08 188.71,-183.06 421.92,-274.59 699.02,-274.59zm-375.37 968.11c-73.98,0 -136.04,26.96 -187.45,80.25 -51.41,53.29 -77.11,118.49 -77.11,196.23 0,75.85 25.7,141.05 77.74,195.6 52.03,53.91 114.1,80.87 186.82,80.87 73.35,0 136.04,-26.96 188.08,-80.87 52.03,-54.55 77.74,-119.75 77.74,-195.6 0,-77.74 -25.71,-142.94 -77.12,-196.23 -51.4,-53.29 -114.1,-80.25 -188.7,-80.25zm-2559.78 -930.5l1732.09 0 -561.72 1109.66 646.36 0 0 722.21 -1764.79 0 558.59 -1117.17 -610.53 0c-47.65,-26.33 -90.36,-37.62 -129.23,-37.62 -124.13,0 -186.2,95.29 -186.2,285.88l0 868.91 -688.36 0 0 -1001.19c0,-264.56 72.1,-475.21 216.92,-632.57 144.19,-157.36 337.28,-235.72 578.02,-235.72 53.91,0 129.1,16.19 208.78,37.62l0.07 -0.01zm-1746.69 -816.25c93.41,0 173.66,32.6 241.99,98.43 68.34,65.2 102.19,142.94 102.19,232.59 0,95.29 -31.97,174.28 -96.54,235.09 -64.58,61.44 -146.7,92.16 -247.64,92.16 -100.3,0 -183.06,-30.72 -247.63,-92.16 -64.57,-60.81 -96.55,-139.8 -96.55,-235.09 0,-89.65 33.86,-167.39 102.19,-232.59 68.34,-65.83 148.58,-98.43 241.99,-98.43zm340.42 816.25l0 1831.87 -688.36 0 0 -1831.87 688.36 0zm-1512.14 1477.03l71.47 287.13c-230.08,77.74 -477.71,116.61 -743.53,116.61 -458.28,0 -809.98,-137.3 -1056.36,-411.26 -213.16,-237.6 -319.73,-526.61 -319.73,-868.29 0,-375.52 126.01,-690.24 378.03,-943.51 252.02,-253.28 564.86,-379.92 937.88,-379.92 350.45,0 639.46,104.07 868.28,312.83 228.83,208.77 343.56,472.7 343.56,790.55 0,241.37 -72.73,441.98 -218.17,601.85 -146.08,159.86 -329.14,239.48 -549.19,239.48 -117.86,0 -211.27,-21.94 -282.11,-65.2 -70.22,-43.88 -105.32,-102.19 -105.32,-176.16 0,-33.86 6.89,-78.37 20.06,-132.28l70.21 -267.07c5.02,-20.69 7.53,-44.51 7.53,-71.47 0,-99.68 -48.28,-149.21 -144.82,-149.21 -60.19,0 -112.22,23.2 -156.73,68.96 -44.51,46.4 -67.08,99.06 -67.08,159.24 0,78.37 37.61,117.86 112.22,117.86 35.73,0 69.58,-6.27 102.81,-18.18l-165.51 455.77c-38.87,6.9 -71.47,10.03 -97.17,10.03 -133.53,0 -240.11,-39.49 -319.1,-118.48 -78.99,-79 -118.49,-186.2 -118.49,-320.99 0,-219.42 80.25,-410.63 240.11,-573 159.87,-162.38 348.57,-243.88 565.48,-243.88 155.48,0 280.86,40.13 376.16,120.37 94.66,80.88 142.31,186.2 142.31,315.97 0,53.92 -8.15,113.47 -23.83,178.67l-55.79 222.56 -10.66 38.87c-10.03,35.73 -15.05,66.45 -15.05,92.16 0,58.93 26.96,88.39 80.25,88.39 83.38,0 159.24,-59.55 227.57,-178.04 68.34,-119.12 102.19,-250.77 102.19,-395.59 0,-243.87 -84.63,-441.98 -254.53,-593.69 -169.27,-152.35 -390.57,-228.2 -663.28,-228.2 -294.03,0 -536.65,99.05 -728.48,296.53 -191.22,198.11 -287.13,448.25 -287.13,750.43 0,260.79 74.6,481.47 223.81,661.4 183.06,220.05 464.55,330.39 845.09,330.39 216.91,0 439.47,-40.75 667.04,-121.63z"/>
 </g>
</svg>  

